G04*
G04 #@! TF.GenerationSoftware,Altium Limited,Altium Designer,25.1.2 (22)*
G04*
G04 Layer_Physical_Order=1*
G04 Layer_Color=255*
%FSLAX26Y26*%
%MOIN*%
G70*
G04*
G04 #@! TF.SameCoordinates,3C89DFF2-4D07-40C4-B63C-CCDB096C3DA4*
G04*
G04*
G04 #@! TF.FilePolarity,Positive*
G04*
G01*
G75*
%ADD12C,0.010000*%
%ADD14R,0.037745X0.035911*%
%ADD15R,0.035911X0.033808*%
%ADD16R,0.033808X0.035911*%
%ADD17R,0.035911X0.037745*%
G04:AMPARAMS|DCode=18|XSize=23.622mil|YSize=57.087mil|CornerRadius=2.008mil|HoleSize=0mil|Usage=FLASHONLY|Rotation=90.000|XOffset=0mil|YOffset=0mil|HoleType=Round|Shape=RoundedRectangle|*
%AMROUNDEDRECTD18*
21,1,0.023622,0.053071,0,0,90.0*
21,1,0.019606,0.057087,0,0,90.0*
1,1,0.004016,0.026535,0.009803*
1,1,0.004016,0.026535,-0.009803*
1,1,0.004016,-0.026535,-0.009803*
1,1,0.004016,-0.026535,0.009803*
%
%ADD18ROUNDEDRECTD18*%
%ADD23C,0.150000*%
%ADD24C,0.064961*%
%ADD25R,0.064961X0.064961*%
%ADD26C,0.024000*%
G36*
X242760Y810000D02*
X232640Y815000D01*
Y825000D01*
X242760Y830000D01*
Y810000D01*
D02*
G37*
G36*
X391734Y792163D02*
X387042Y789312D01*
X364921Y774121D01*
X363294Y772632D01*
X362049Y771313D01*
X351200Y774277D01*
X352724Y776139D01*
X353827Y778219D01*
X354509Y780516D01*
X354771Y783033D01*
X354611Y785767D01*
X354031Y788720D01*
X353030Y791890D01*
X351609Y795279D01*
X349766Y798887D01*
X347503Y802712D01*
X391734Y792163D01*
D02*
G37*
G36*
X182344Y759050D02*
X182648Y758200D01*
X183154Y757450D01*
X183862Y756800D01*
X184773Y756250D01*
X185886Y755800D01*
X187202Y755450D01*
X188720Y755200D01*
X190440Y755050D01*
X192363Y755000D01*
Y745000D01*
X190440Y744950D01*
X188720Y744800D01*
X187202Y744550D01*
X185886Y744200D01*
X184773Y743750D01*
X183862Y743200D01*
X183154Y742550D01*
X182648Y741800D01*
X182344Y740950D01*
X182243Y740000D01*
Y760000D01*
X182344Y759050D01*
D02*
G37*
G36*
X110000Y722165D02*
X100000D01*
X95000Y732285D01*
X115000D01*
X110000Y722165D01*
D02*
G37*
G36*
X110050Y700913D02*
X110200Y699192D01*
X110450Y697674D01*
X110800Y696359D01*
X111250Y695245D01*
X111800Y694335D01*
X112450Y693626D01*
X113200Y693120D01*
X114050Y692817D01*
X115000Y692715D01*
X95000D01*
X95950Y692817D01*
X96800Y693120D01*
X97550Y693626D01*
X98200Y694335D01*
X98750Y695245D01*
X99200Y696359D01*
X99550Y697674D01*
X99800Y699192D01*
X99950Y700913D01*
X100000Y702835D01*
X110000D01*
X110050Y700913D01*
D02*
G37*
G36*
X190192Y663570D02*
X188517Y653616D01*
X180973Y657165D01*
X180853Y672530D01*
X190192Y663570D01*
D02*
G37*
G36*
X111389Y647165D02*
X101389D01*
X96389Y657165D01*
X116389D01*
X111389Y647165D01*
D02*
G37*
G36*
X222285Y645579D02*
X212165Y650579D01*
Y660579D01*
X222285Y665579D01*
Y645579D01*
D02*
G37*
G36*
X257923Y662242D02*
X258185Y661124D01*
X258623Y660007D01*
X259235Y658891D01*
X260022Y657775D01*
X260984Y656660D01*
X262121Y655545D01*
X263433Y654431D01*
X264920Y653317D01*
X266582Y652204D01*
X265720Y639925D01*
X264222Y640826D01*
X262882Y641522D01*
X261699Y642013D01*
X260674Y642299D01*
X259807Y642380D01*
X259097Y642257D01*
X258545Y641929D01*
X258151Y641395D01*
X257914Y640657D01*
X257835Y639715D01*
Y663360D01*
X257923Y662242D01*
D02*
G37*
G36*
X111439Y625913D02*
X111590Y624192D01*
X111840Y622674D01*
X112189Y621359D01*
X112639Y620245D01*
X113189Y619335D01*
X113840Y618626D01*
X114590Y618120D01*
X115439Y617817D01*
X116389Y617715D01*
X96389D01*
X97340Y617817D01*
X98189Y618120D01*
X98939Y618626D01*
X99590Y619335D01*
X100139Y620245D01*
X100590Y621359D01*
X100939Y622674D01*
X101189Y624192D01*
X101340Y625913D01*
X101389Y627835D01*
X111389D01*
X111439Y625913D01*
D02*
G37*
G36*
X307424Y612433D02*
X308855Y611210D01*
X310281Y610132D01*
X311703Y609197D01*
X313120Y608406D01*
X314531Y607759D01*
X315938Y607255D01*
X317341Y606896D01*
X317555Y606863D01*
X319038Y607183D01*
X320579Y607650D01*
X322133Y608255D01*
X323700Y608997D01*
X325282Y609877D01*
X326876Y610895D01*
X328484Y612051D01*
X330106Y613345D01*
X345630Y612923D01*
X344217Y611678D01*
X343108Y610562D01*
X342303Y609576D01*
X341803Y608719D01*
X341608Y607991D01*
X341717Y607393D01*
X342130Y606925D01*
X342848Y606586D01*
X343871Y606377D01*
X345198Y606297D01*
X314498Y606608D01*
X291846D01*
X293141Y606680D01*
X294147Y606896D01*
X294867Y607255D01*
X295298Y607759D01*
X295442Y608406D01*
X295298Y609197D01*
X294867Y610132D01*
X294147Y611210D01*
X293141Y612433D01*
X291846Y613799D01*
X305988D01*
X307424Y612433D01*
D02*
G37*
G36*
X222285Y590000D02*
X212165Y595000D01*
Y605000D01*
X222285Y610000D01*
Y590000D01*
D02*
G37*
G36*
X182344Y609050D02*
X182648Y608200D01*
X183154Y607450D01*
X183862Y606800D01*
X184773Y606250D01*
X185886Y605800D01*
X187202Y605450D01*
X188720Y605200D01*
X190440Y605050D01*
X192363Y605000D01*
Y595000D01*
X190440Y594950D01*
X188720Y594800D01*
X187202Y594550D01*
X185886Y594200D01*
X184773Y593750D01*
X183862Y593200D01*
X183154Y592550D01*
X182648Y591800D01*
X182344Y590950D01*
X182243Y590000D01*
Y610000D01*
X182344Y609050D01*
D02*
G37*
G36*
X117997Y572941D02*
X107033Y572730D01*
X98254Y582165D01*
X119620D01*
X117997Y572941D01*
D02*
G37*
G36*
X257115Y590008D02*
X256807Y589133D01*
X256793Y588105D01*
X257072Y586922D01*
X257645Y585585D01*
X258511Y584093D01*
X259670Y582448D01*
X261122Y580648D01*
X264906Y576586D01*
X256784Y570566D01*
X242642Y577757D01*
X257715Y590728D01*
X257115Y590008D01*
D02*
G37*
G36*
X291181Y556728D02*
X289376Y539808D01*
X280333Y550247D01*
X281474Y561400D01*
X291181Y556728D01*
D02*
G37*
G36*
X162757Y516140D02*
X153199Y524927D01*
X153470Y535984D01*
X162757Y537524D01*
Y516140D01*
D02*
G37*
G36*
X61089Y516818D02*
X61686Y515006D01*
X62331Y513383D01*
X63026Y511950D01*
X63769Y510708D01*
X64561Y509655D01*
X65402Y508793D01*
X66291Y508120D01*
X67230Y507638D01*
X68217Y507345D01*
X69252Y507243D01*
X52165Y507363D01*
X52437Y507459D01*
X52620Y507748D01*
X52714Y508231D01*
X52717Y508905D01*
X52632Y509773D01*
X52456Y510834D01*
X51837Y513533D01*
X50859Y517004D01*
X61089Y516818D01*
D02*
G37*
G36*
X257339Y517079D02*
X257610Y515972D01*
X258056Y514888D01*
X258677Y513828D01*
X259474Y512790D01*
X260445Y511776D01*
X261591Y510785D01*
X262913Y509818D01*
X264409Y508873D01*
X266080Y507952D01*
X264567Y497642D01*
X257363Y502165D01*
X257243Y518210D01*
X257339Y517079D01*
D02*
G37*
G36*
X289376Y485614D02*
X279432Y492596D01*
X279478Y502918D01*
X289752Y505846D01*
X289376Y485614D01*
D02*
G37*
G36*
X346106Y502107D02*
X346362Y501174D01*
X346825Y500288D01*
X347495Y499447D01*
X348372Y498651D01*
X349456Y497902D01*
X350746Y497199D01*
X352244Y496541D01*
X353949Y495929D01*
X355861Y495363D01*
X355790Y484872D01*
X354576Y485156D01*
X353391Y485344D01*
X352236Y485437D01*
X351112Y485435D01*
X350017Y485337D01*
X348951Y485144D01*
X347916Y484856D01*
X346910Y484472D01*
X345935Y483993D01*
X344988Y483418D01*
X346057Y503085D01*
X346106Y502107D01*
D02*
G37*
G36*
X236869Y455064D02*
X237900Y453547D01*
X238938Y452208D01*
X239983Y451048D01*
X241036Y450066D01*
X242097Y449263D01*
X243165Y448639D01*
X244241Y448192D01*
X245325Y447925D01*
X246416Y447835D01*
X223435D01*
X224374Y447918D01*
X225115Y448167D01*
X225657Y448583D01*
X226000Y449164D01*
X226145Y449911D01*
X226091Y450825D01*
X225838Y451904D01*
X225387Y453149D01*
X224737Y454561D01*
X223889Y456139D01*
X235847Y456760D01*
X236869Y455064D01*
D02*
G37*
G36*
X266957Y439325D02*
X257243Y431626D01*
X257363Y447835D01*
X257460Y447697D01*
X257752Y447626D01*
X258239Y447622D01*
X258920Y447685D01*
X259796Y447815D01*
X263591Y448605D01*
X267094Y449466D01*
X266957Y439325D01*
D02*
G37*
G36*
X289413Y435023D02*
X279256Y440000D01*
Y450000D01*
X289413Y454977D01*
Y435023D01*
D02*
G37*
G36*
X162757Y420000D02*
X152662Y424988D01*
X151896Y424966D01*
X150741Y424864D01*
X149643Y424694D01*
X148603Y424456D01*
X147621Y424150D01*
X146696Y423776D01*
X145828Y423334D01*
X145018Y422824D01*
X144265Y422246D01*
X143570Y421600D01*
Y438400D01*
X144265Y437754D01*
X145018Y437176D01*
X145828Y436666D01*
X146696Y436224D01*
X147621Y435850D01*
X148603Y435544D01*
X149643Y435306D01*
X150741Y435136D01*
X151896Y435034D01*
X152662Y435012D01*
X162757Y440000D01*
Y420000D01*
D02*
G37*
G36*
X52165Y414245D02*
X43861Y414699D01*
X43240Y426658D01*
X44936Y427680D01*
X46453Y428710D01*
X47792Y429748D01*
X48952Y430793D01*
X49934Y431846D01*
X50737Y432907D01*
X51361Y433976D01*
X51808Y435051D01*
X52075Y436135D01*
X52165Y437226D01*
Y414245D01*
D02*
G37*
G36*
X227754Y370735D02*
X227176Y369982D01*
X226666Y369172D01*
X226224Y368304D01*
X225850Y367379D01*
X225544Y366397D01*
X225306Y365356D01*
X225136Y364259D01*
X225034Y363104D01*
X225006Y362118D01*
X225050Y360440D01*
X225200Y358720D01*
X225450Y357202D01*
X225800Y355886D01*
X226250Y354773D01*
X226800Y353862D01*
X227450Y353154D01*
X228200Y352648D01*
X229050Y352344D01*
X230000Y352243D01*
X210000D01*
X210950Y352344D01*
X211800Y352648D01*
X212550Y353154D01*
X213200Y353862D01*
X213750Y354773D01*
X214200Y355886D01*
X214550Y357202D01*
X214800Y358720D01*
X214950Y360440D01*
X214994Y362118D01*
X214966Y363104D01*
X214864Y364259D01*
X214694Y365356D01*
X214456Y366397D01*
X214150Y367379D01*
X213776Y368304D01*
X213334Y369172D01*
X212824Y369982D01*
X212246Y370735D01*
X211600Y371430D01*
X228400D01*
X227754Y370735D01*
D02*
G37*
G36*
X152754D02*
X152176Y369982D01*
X151666Y369172D01*
X151224Y368304D01*
X150850Y367379D01*
X150544Y366397D01*
X150306Y365356D01*
X150136Y364259D01*
X150034Y363104D01*
X150006Y362118D01*
X150050Y360440D01*
X150200Y358720D01*
X150450Y357202D01*
X150800Y355886D01*
X151250Y354773D01*
X151800Y353862D01*
X152450Y353154D01*
X153200Y352648D01*
X154050Y352344D01*
X155000Y352243D01*
X135000D01*
X135950Y352344D01*
X136800Y352648D01*
X137550Y353154D01*
X138200Y353862D01*
X138750Y354773D01*
X139200Y355886D01*
X139550Y357202D01*
X139800Y358720D01*
X139950Y360440D01*
X139994Y362118D01*
X139966Y363104D01*
X139864Y364259D01*
X139694Y365356D01*
X139456Y366397D01*
X139150Y367379D01*
X138776Y368304D01*
X138334Y369172D01*
X137824Y369982D01*
X137246Y370735D01*
X136600Y371430D01*
X153400D01*
X152754Y370735D01*
D02*
G37*
G36*
X77754D02*
X77176Y369982D01*
X76666Y369172D01*
X76224Y368304D01*
X75850Y367379D01*
X75544Y366397D01*
X75306Y365356D01*
X75136Y364259D01*
X75034Y363104D01*
X75006Y362118D01*
X75050Y360440D01*
X75200Y358720D01*
X75450Y357202D01*
X75800Y355886D01*
X76250Y354773D01*
X76800Y353862D01*
X77450Y353154D01*
X78200Y352648D01*
X79050Y352344D01*
X80000Y352243D01*
X60000D01*
X60950Y352344D01*
X61800Y352648D01*
X62550Y353154D01*
X63200Y353862D01*
X63750Y354773D01*
X64200Y355886D01*
X64550Y357202D01*
X64800Y358720D01*
X64950Y360440D01*
X64994Y362118D01*
X64966Y363104D01*
X64864Y364259D01*
X64694Y365356D01*
X64456Y366397D01*
X64150Y367379D01*
X63776Y368304D01*
X63334Y369172D01*
X62824Y369982D01*
X62246Y370735D01*
X61600Y371430D01*
X78400D01*
X77754Y370735D01*
D02*
G37*
G36*
X378795Y302482D02*
X377932Y302530D01*
X377042Y302504D01*
X376123Y302404D01*
X375175Y302230D01*
X374199Y301982D01*
X373194Y301659D01*
X372161Y301262D01*
X370010Y300245D01*
X368892Y299625D01*
X362326Y307407D01*
X363337Y308004D01*
X364250Y308645D01*
X365066Y309332D01*
X365784Y310063D01*
X366404Y310838D01*
X366927Y311659D01*
X367351Y312524D01*
X367678Y313433D01*
X367908Y314388D01*
X368039Y315387D01*
X378795Y302482D01*
D02*
G37*
G36*
X346188Y305436D02*
X346860Y304829D01*
X347630Y304343D01*
X348496Y303978D01*
X349459Y303734D01*
X350519Y303610D01*
X351677Y303607D01*
X352931Y303726D01*
X354282Y303964D01*
X355731Y304324D01*
X355847Y293721D01*
X353967Y293142D01*
X352287Y292519D01*
X350808Y291852D01*
X349529Y291139D01*
X348449Y290382D01*
X347570Y289579D01*
X346892Y288732D01*
X346413Y287841D01*
X346135Y286904D01*
X346057Y285923D01*
X345613Y306164D01*
X346188Y305436D01*
D02*
G37*
G36*
X320000Y273272D02*
X310000D01*
X305000Y283392D01*
X325000D01*
X320000Y273272D01*
D02*
G37*
G36*
X52285Y266616D02*
X52194Y267695D01*
X51923Y268769D01*
X51471Y269838D01*
X50838Y270902D01*
X50024Y271961D01*
X49029Y273016D01*
X47853Y274065D01*
X46496Y275110D01*
X44959Y276150D01*
X43240Y277185D01*
X43861Y289143D01*
X52285Y289597D01*
Y266616D01*
D02*
G37*
G36*
X202285Y266389D02*
X192165Y271389D01*
Y281389D01*
X202285Y286389D01*
Y266389D01*
D02*
G37*
G36*
X162935Y285440D02*
X163235Y284589D01*
X163735Y283839D01*
X164435Y283190D01*
X165335Y282639D01*
X166435Y282190D01*
X167735Y281839D01*
X169235Y281589D01*
X170935Y281440D01*
X172835Y281389D01*
Y271389D01*
X170935Y271339D01*
X169235Y271190D01*
X167735Y270940D01*
X166435Y270589D01*
X165335Y270139D01*
X164435Y269589D01*
X163735Y268940D01*
X163235Y268190D01*
X162935Y267339D01*
X162835Y266389D01*
Y286389D01*
X162935Y285440D01*
D02*
G37*
G36*
X127285Y264421D02*
X117165Y269421D01*
Y279421D01*
X127285Y284421D01*
Y264421D01*
D02*
G37*
G36*
X87935Y283471D02*
X88235Y282621D01*
X88735Y281871D01*
X89435Y281221D01*
X90335Y280671D01*
X91435Y280221D01*
X92735Y279871D01*
X94235Y279621D01*
X95935Y279471D01*
X97835Y279421D01*
Y269421D01*
X95935Y269371D01*
X94235Y269221D01*
X92735Y268971D01*
X91435Y268621D01*
X90335Y268171D01*
X89435Y267621D01*
X88735Y266971D01*
X88235Y266221D01*
X87935Y265371D01*
X87835Y264421D01*
Y284421D01*
X87935Y283471D01*
D02*
G37*
G36*
X320050Y255440D02*
X320200Y253720D01*
X320450Y252202D01*
X320800Y250886D01*
X321250Y249773D01*
X321800Y248862D01*
X322450Y248154D01*
X323200Y247648D01*
X324050Y247344D01*
X325000Y247243D01*
X305000D01*
X305950Y247344D01*
X306800Y247648D01*
X307550Y248154D01*
X308200Y248862D01*
X308750Y249773D01*
X309200Y250886D01*
X309550Y252202D01*
X309800Y253720D01*
X309950Y255440D01*
X310000Y257363D01*
X320000D01*
X320050Y255440D01*
D02*
G37*
G36*
X416139Y233333D02*
X414968Y232348D01*
Y223611D01*
X413590Y223589D01*
X411269Y223418D01*
X410326Y223269D01*
X409529Y223077D01*
X408876Y222843D01*
X408368Y222565D01*
X408005Y222245D01*
X407806Y221913D01*
X407800Y221883D01*
X407715Y220704D01*
Y221478D01*
Y235743D01*
Y246287D01*
X407786Y245338D01*
X407997Y244608D01*
X408348Y244097D01*
X408840Y243805D01*
X409473Y243732D01*
X410247Y243877D01*
X411161Y244242D01*
X412215Y244826D01*
X413411Y245629D01*
X414746Y246651D01*
X416139Y233333D01*
D02*
G37*
G36*
X372165Y218611D02*
X362165Y223611D01*
Y233611D01*
X372165Y238611D01*
Y218611D01*
D02*
G37*
G36*
X332817Y237661D02*
X333120Y236810D01*
X333626Y236060D01*
X334334Y235411D01*
X335245Y234861D01*
X336358Y234411D01*
X337674Y234060D01*
X339192Y233810D01*
X340913Y233661D01*
X342835Y233611D01*
Y223611D01*
X340913Y223560D01*
X339192Y223411D01*
X337674Y223161D01*
X336358Y222810D01*
X335245Y222361D01*
X334334Y221810D01*
X333626Y221161D01*
X333120Y220411D01*
X332817Y219560D01*
X332715Y218611D01*
Y238611D01*
X332817Y237661D01*
D02*
G37*
G36*
X431430Y161600D02*
X430735Y162246D01*
X429982Y162824D01*
X429172Y163334D01*
X428304Y163776D01*
X427379Y164150D01*
X426397Y164456D01*
X425356Y164694D01*
X424259Y164864D01*
X423104Y164966D01*
X421891Y165000D01*
Y175000D01*
X423104Y175034D01*
X424259Y175136D01*
X425356Y175306D01*
X426397Y175544D01*
X427379Y175850D01*
X428304Y176224D01*
X429172Y176666D01*
X429982Y177176D01*
X430735Y177754D01*
X431430Y178400D01*
Y161600D01*
D02*
G37*
G36*
X274265Y177754D02*
X275018Y177176D01*
X275828Y176666D01*
X276696Y176224D01*
X277621Y175850D01*
X278603Y175544D01*
X279644Y175306D01*
X280741Y175136D01*
X281896Y175034D01*
X283109Y175000D01*
Y165000D01*
X281896Y164966D01*
X280741Y164864D01*
X279644Y164694D01*
X278603Y164456D01*
X277621Y164150D01*
X276696Y163776D01*
X275828Y163334D01*
X275018Y162824D01*
X274265Y162246D01*
X273570Y161600D01*
Y178400D01*
X274265Y177754D01*
D02*
G37*
G36*
X407817Y179050D02*
X408120Y178200D01*
X408626Y177450D01*
X409334Y176800D01*
X410245Y176250D01*
X411358Y175800D01*
X412674Y175450D01*
X414192Y175200D01*
X415913Y175050D01*
X417835Y175000D01*
Y165000D01*
X415913Y164950D01*
X414192Y164800D01*
X412674Y164550D01*
X411358Y164200D01*
X410245Y163750D01*
X409334Y163200D01*
X408626Y162550D01*
X408120Y161800D01*
X407817Y160950D01*
X407715Y160000D01*
Y180000D01*
X407817Y179050D01*
D02*
G37*
G36*
X297165Y160000D02*
X287165Y165000D01*
Y175000D01*
X297165Y180000D01*
Y160000D01*
D02*
G37*
G36*
X777184Y473240D02*
X765886Y472908D01*
X756451Y482285D01*
X778336D01*
X777184Y473240D01*
D02*
G37*
G36*
X652184D02*
X640886Y472908D01*
X631451Y482285D01*
X653336D01*
X652184Y473240D01*
D02*
G37*
G36*
X821430Y445013D02*
Y436600D01*
X820778Y437206D01*
X820089Y437738D01*
X819317Y438234D01*
X818474Y438686D01*
X817965Y438913D01*
X817379Y439150D01*
X816397Y439456D01*
X815356Y439694D01*
X814259Y439864D01*
X813104Y439966D01*
X811891Y440000D01*
Y450000D01*
X811920Y450001D01*
X811920Y450566D01*
X813068Y450434D01*
X814173Y450395D01*
X815234Y450449D01*
X816252Y450595D01*
X817226Y450834D01*
X818157Y451165D01*
X818652Y451401D01*
X819166Y451663D01*
X819206Y451687D01*
X819979Y452174D01*
X820034Y452216D01*
X820717Y452740D01*
X821443Y453413D01*
X821430Y445013D01*
D02*
G37*
G36*
X747184Y416760D02*
X746476Y415064D01*
X745951Y413547D01*
X745609Y412208D01*
X745450Y411048D01*
X745473Y410066D01*
X745680Y409263D01*
X746069Y408639D01*
X746642Y408192D01*
X747397Y407925D01*
X748336Y407835D01*
X726451D01*
X727497Y407928D01*
X728520Y408206D01*
X729521Y408668D01*
X730499Y409316D01*
X731454Y410149D01*
X732386Y411168D01*
X733295Y412371D01*
X734181Y413760D01*
X735045Y415333D01*
X735886Y417092D01*
X747184Y416760D01*
D02*
G37*
G36*
X683342D02*
X682625Y415041D01*
X682092Y413504D01*
X681744Y412147D01*
X681582Y410971D01*
X681605Y409976D01*
X681812Y409162D01*
X682205Y408529D01*
X682783Y408077D01*
X683545Y407806D01*
X684494Y407715D01*
X662609D01*
X663645Y407809D01*
X664661Y408090D01*
X665656Y408559D01*
X666631Y409216D01*
X667585Y410060D01*
X668518Y411091D01*
X669430Y412310D01*
X670322Y413716D01*
X671193Y415310D01*
X672044Y417092D01*
X683342Y416760D01*
D02*
G37*
G36*
X487674Y382593D02*
X486663Y381996D01*
X485750Y381355D01*
X484934Y380668D01*
X484216Y379937D01*
X483596Y379162D01*
X483073Y378341D01*
X482649Y377476D01*
X482322Y376566D01*
X482092Y375612D01*
X481961Y374613D01*
X471205Y387518D01*
X472067Y387470D01*
X472958Y387496D01*
X473877Y387596D01*
X474825Y387770D01*
X475801Y388018D01*
X476806Y388341D01*
X477839Y388738D01*
X479990Y389755D01*
X481108Y390375D01*
X487674Y382593D01*
D02*
G37*
G36*
X560688Y404031D02*
X560993Y403185D01*
X561501Y402438D01*
X562212Y401792D01*
X563126Y401244D01*
X564243Y400796D01*
X565564Y400448D01*
X567087Y400199D01*
X568814Y400050D01*
X570744Y400000D01*
Y390000D01*
X568814Y389950D01*
X567087Y389801D01*
X565564Y389552D01*
X564243Y389204D01*
X563126Y388756D01*
X562212Y388208D01*
X561501Y387562D01*
X560993Y386815D01*
X560688Y385969D01*
X560587Y385023D01*
Y404977D01*
X560688Y404031D01*
D02*
G37*
G36*
X592757Y385000D02*
X582637Y390000D01*
Y400000D01*
X592757Y405000D01*
Y385000D01*
D02*
G37*
G36*
X504387Y383836D02*
X503812Y384564D01*
X503139Y385171D01*
X502370Y385657D01*
X501504Y386022D01*
X500541Y386266D01*
X499481Y386390D01*
X498323Y386393D01*
X497069Y386275D01*
X495718Y386036D01*
X494269Y385676D01*
X494153Y396279D01*
X503943Y404077D01*
X504387Y383836D01*
D02*
G37*
G36*
X812340Y401238D02*
X812630Y400453D01*
X813114Y399825D01*
X813792Y399353D01*
X814663Y399039D01*
X815728Y398881D01*
X816987Y398880D01*
X818439Y399037D01*
X820085Y399349D01*
X821925Y399819D01*
X822023Y389248D01*
X820164Y388672D01*
X818502Y388049D01*
X817035Y387380D01*
X815764Y386665D01*
X814688Y385904D01*
X813808Y385097D01*
X813123Y384243D01*
X812634Y383344D01*
X812341Y382399D01*
X812243Y381408D01*
Y402180D01*
X812340Y401238D01*
D02*
G37*
G36*
X882754Y365735D02*
X882176Y364982D01*
X881666Y364172D01*
X881224Y363304D01*
X880850Y362379D01*
X880544Y361397D01*
X880306Y360356D01*
X880136Y359259D01*
X880034Y358104D01*
X880000Y356891D01*
X870000D01*
X869966Y358104D01*
X869864Y359259D01*
X869694Y360356D01*
X869456Y361397D01*
X869150Y362379D01*
X868776Y363304D01*
X868334Y364172D01*
X867824Y364982D01*
X867246Y365735D01*
X866600Y366430D01*
X883400D01*
X882754Y365735D01*
D02*
G37*
G36*
X560668Y350936D02*
X560917Y349979D01*
X561371Y349057D01*
X562029Y348170D01*
X562893Y347318D01*
X563961Y346502D01*
X565234Y345721D01*
X566712Y344976D01*
X568395Y344265D01*
X570283Y343590D01*
X570179Y332906D01*
X568701Y333364D01*
X566022Y334010D01*
X564821Y334197D01*
X563712Y334293D01*
X562696Y334299D01*
X561772Y334215D01*
X560941Y334040D01*
X560202Y333774D01*
X559555Y333418D01*
X560624Y351928D01*
X560668Y350936D01*
D02*
G37*
G36*
X593852Y331517D02*
X598658Y328907D01*
X600766Y327964D01*
X602679Y327262D01*
X604396Y326800D01*
X605917Y326579D01*
X607242Y326600D01*
X608372Y326861D01*
X609305Y327363D01*
X592165Y314593D01*
X583939Y325912D01*
X591156Y333183D01*
X593852Y331517D01*
D02*
G37*
G36*
X757333Y328177D02*
X757605Y327412D01*
X758057Y326833D01*
X758690Y326440D01*
X759504Y326232D01*
X760498Y326210D01*
X761674Y326375D01*
X763030Y326724D01*
X764567Y327260D01*
X766285Y327982D01*
X766609Y316686D01*
X764829Y315832D01*
X763237Y314957D01*
X761832Y314062D01*
X760615Y313147D01*
X759584Y312210D01*
X758741Y311254D01*
X758086Y310276D01*
X757617Y309279D01*
X757337Y308260D01*
X757243Y307221D01*
Y329128D01*
X757333Y328177D01*
D02*
G37*
G36*
X503943Y285923D02*
X494153Y293721D01*
X494269Y304324D01*
X495718Y303964D01*
X497069Y303725D01*
X498323Y303607D01*
X499481Y303610D01*
X500541Y303734D01*
X501504Y303978D01*
X502370Y304343D01*
X503139Y304829D01*
X503812Y305436D01*
X504387Y306164D01*
X503943Y285923D01*
D02*
G37*
G36*
X662757Y300579D02*
X652637Y305579D01*
Y315579D01*
X662757Y320579D01*
Y300579D01*
D02*
G37*
G36*
X627817Y319629D02*
X628120Y318779D01*
X628626Y318029D01*
X629335Y317379D01*
X630245Y316829D01*
X631359Y316379D01*
X632674Y316029D01*
X634192Y315779D01*
X635913Y315629D01*
X637835Y315579D01*
Y305579D01*
X635913Y305529D01*
X634192Y305379D01*
X632674Y305129D01*
X631359Y304779D01*
X630245Y304329D01*
X629335Y303779D01*
X628626Y303129D01*
X628120Y302379D01*
X627817Y301529D01*
X627715Y300579D01*
Y320579D01*
X627817Y319629D01*
D02*
G37*
G36*
X482092Y314388D02*
X482322Y313433D01*
X482649Y312524D01*
X483073Y311659D01*
X483596Y310838D01*
X484216Y310063D01*
X484934Y309332D01*
X485750Y308645D01*
X486663Y308004D01*
X487674Y307407D01*
X481108Y299625D01*
X479990Y300245D01*
X477839Y301262D01*
X476806Y301659D01*
X475801Y301982D01*
X474825Y302230D01*
X473877Y302404D01*
X472958Y302504D01*
X472068Y302530D01*
X471205Y302482D01*
X481961Y315387D01*
X482092Y314388D01*
D02*
G37*
G36*
X558154Y276201D02*
X544011D01*
X540514Y277979D01*
X538753Y273353D01*
X528614Y273338D01*
X522445Y283392D01*
X558154D01*
Y276201D01*
D02*
G37*
G36*
X764434Y258752D02*
X757363Y244610D01*
X742304Y257835D01*
X743123Y257311D01*
X744074Y257060D01*
X745158Y257083D01*
X746374Y257380D01*
X747722Y257950D01*
X749202Y258794D01*
X750814Y259911D01*
X752559Y261303D01*
X754437Y262968D01*
X756446Y264906D01*
X764434Y258752D01*
D02*
G37*
G36*
X592165Y241050D02*
X582555Y249115D01*
X582671Y259762D01*
X592165Y261947D01*
Y241050D01*
D02*
G37*
G36*
X831340Y239269D02*
X830507Y238388D01*
X829762Y237499D01*
X829106Y236603D01*
X828539Y235699D01*
X828061Y234788D01*
X827671Y233869D01*
X827370Y232943D01*
X827158Y232009D01*
X827034Y231068D01*
X826999Y230120D01*
X815120Y241999D01*
X816068Y242034D01*
X817009Y242158D01*
X817943Y242370D01*
X818869Y242671D01*
X819788Y243061D01*
X820699Y243539D01*
X821603Y244107D01*
X822499Y244762D01*
X823388Y245507D01*
X824269Y246340D01*
X831340Y239269D01*
D02*
G37*
G36*
X662757Y230000D02*
X652637Y235000D01*
Y245000D01*
X662757Y250000D01*
Y230000D01*
D02*
G37*
G36*
X726430Y141600D02*
X725735Y142246D01*
X724982Y142824D01*
X724172Y143334D01*
X723304Y143776D01*
X722379Y144150D01*
X721397Y144456D01*
X720356Y144694D01*
X719259Y144864D01*
X718104Y144966D01*
X716891Y145000D01*
Y155000D01*
X718104Y155034D01*
X719259Y155136D01*
X720356Y155306D01*
X721397Y155544D01*
X722379Y155850D01*
X723304Y156224D01*
X724172Y156666D01*
X724982Y157176D01*
X725735Y157754D01*
X726430Y158400D01*
Y141600D01*
D02*
G37*
G36*
X480339Y499099D02*
X479231Y499768D01*
X477102Y500883D01*
X476081Y501329D01*
X475089Y501700D01*
X474127Y501996D01*
X473195Y502218D01*
X472291Y502365D01*
X471417Y502437D01*
X470572Y502435D01*
X481995Y514754D01*
X482075Y513735D01*
X482255Y512760D01*
X482536Y511830D01*
X482918Y510944D01*
X483401Y510102D01*
X483985Y509305D01*
X484670Y508553D01*
X485456Y507844D01*
X486342Y507180D01*
X487330Y506561D01*
X480339Y499099D01*
D02*
G37*
G36*
X494192Y503289D02*
X496089Y502872D01*
X497788Y502601D01*
X499289Y502478D01*
X500592Y502502D01*
X501697Y502673D01*
X502604Y502992D01*
X503312Y503458D01*
X503822Y504071D01*
X504134Y504832D01*
X504248Y505740D01*
X503943Y485319D01*
X503858Y486288D01*
X503572Y487207D01*
X503086Y488076D01*
X502400Y488894D01*
X501514Y489661D01*
X500427Y490378D01*
X499140Y491045D01*
X497653Y491660D01*
X495966Y492226D01*
X494078Y492740D01*
X494192Y503289D01*
D02*
G37*
G36*
X569554Y499168D02*
X567766Y498039D01*
X564786Y495809D01*
X563594Y494708D01*
X562602Y493617D01*
X561808Y492535D01*
X561214Y491462D01*
X560818Y490399D01*
X560621Y489345D01*
X560624Y488300D01*
X558819Y506728D01*
X559288Y506699D01*
X559875Y506773D01*
X560581Y506952D01*
X561406Y507234D01*
X562350Y507620D01*
X564592Y508705D01*
X567310Y510206D01*
X568847Y511113D01*
X569554Y499168D01*
D02*
G37*
G36*
Y549168D02*
X567766Y548039D01*
X564786Y545809D01*
X563594Y544708D01*
X562602Y543617D01*
X561808Y542535D01*
X561214Y541462D01*
X560818Y540399D01*
X560621Y539345D01*
X560624Y538300D01*
X558819Y556728D01*
X559288Y556699D01*
X559875Y556773D01*
X560581Y556952D01*
X561406Y557234D01*
X562350Y557620D01*
X564592Y558705D01*
X567310Y560206D01*
X568847Y561112D01*
X569554Y549168D01*
D02*
G37*
G36*
X487674Y582593D02*
X486663Y581996D01*
X485750Y581355D01*
X484934Y580668D01*
X484216Y579937D01*
X483596Y579162D01*
X483073Y578341D01*
X482649Y577476D01*
X482322Y576566D01*
X482092Y575612D01*
X481961Y574613D01*
X471205Y587518D01*
X472067Y587470D01*
X472958Y587496D01*
X473877Y587596D01*
X474825Y587770D01*
X475801Y588018D01*
X476806Y588341D01*
X477839Y588738D01*
X479990Y589755D01*
X481108Y590375D01*
X487674Y582593D01*
D02*
G37*
G36*
X494153Y596279D02*
X503943Y604077D01*
X504387Y583836D01*
X503812Y584564D01*
X503139Y585171D01*
X502370Y585657D01*
X501504Y586022D01*
X500541Y586266D01*
X499481Y586390D01*
X498323Y586393D01*
X497069Y586275D01*
X495718Y586036D01*
X494269Y585676D01*
X494153Y596279D01*
D02*
G37*
G36*
X549072Y616266D02*
X548484Y614431D01*
X548074Y612789D01*
X547842Y611341D01*
X547789Y610085D01*
X547913Y609023D01*
X548216Y608153D01*
X548697Y607477D01*
X549356Y606994D01*
X550193Y606705D01*
X551208Y606608D01*
X530062D01*
X531122Y606702D01*
X532139Y606982D01*
X533114Y607450D01*
X534046Y608105D01*
X534935Y608947D01*
X535783Y609976D01*
X536587Y611193D01*
X537349Y612596D01*
X538069Y614187D01*
X538746Y615965D01*
X549072Y616266D01*
D02*
G37*
G36*
X442221Y662637D02*
X452285Y668727D01*
Y648612D01*
X442226Y652551D01*
X442221Y662637D01*
D02*
G37*
G36*
X497835Y715579D02*
X495935Y715529D01*
X494235Y715379D01*
X492735Y715129D01*
X491435Y714779D01*
X490335Y714329D01*
X489435Y713779D01*
X488735Y713129D01*
X488235Y712379D01*
X487935Y711529D01*
X487835Y710579D01*
Y730579D01*
X487935Y729629D01*
X488235Y728779D01*
X488735Y728029D01*
X489435Y727379D01*
X490335Y726829D01*
X491435Y726379D01*
X492735Y726029D01*
X494235Y725779D01*
X495935Y725629D01*
X497835Y725579D01*
Y715579D01*
D02*
G37*
G36*
X517165Y725579D02*
X527165Y730579D01*
Y710579D01*
X517165Y715579D01*
Y725579D01*
D02*
G37*
G36*
X540000Y632637D02*
X535000Y642757D01*
X555000D01*
X550000Y632637D01*
X540000D01*
D02*
G37*
G36*
X572835Y655579D02*
X570913Y655529D01*
X569192Y655379D01*
X567674Y655129D01*
X566359Y654779D01*
X565245Y654329D01*
X564335Y653779D01*
X563626Y653129D01*
X563120Y652379D01*
X562817Y651529D01*
X562715Y650579D01*
Y670579D01*
X562817Y669629D01*
X563120Y668779D01*
X563626Y668029D01*
X564335Y667379D01*
X565245Y666829D01*
X566359Y666379D01*
X567674Y666029D01*
X569192Y665779D01*
X570913Y665629D01*
X572835Y665579D01*
Y655579D01*
D02*
G37*
G36*
Y713611D02*
X570913Y713561D01*
X569192Y713410D01*
X567674Y713160D01*
X566359Y712811D01*
X565245Y712361D01*
X564335Y711811D01*
X563626Y711160D01*
X563120Y710410D01*
X562817Y709561D01*
X562715Y708611D01*
Y728611D01*
X562817Y727660D01*
X563120Y726811D01*
X563626Y726061D01*
X564335Y725410D01*
X565245Y724861D01*
X566359Y724410D01*
X567674Y724061D01*
X569192Y723811D01*
X570913Y723660D01*
X572835Y723611D01*
Y713611D01*
D02*
G37*
G36*
X807509Y814879D02*
X808052Y806309D01*
X808564Y802537D01*
X809237Y799105D01*
X810070Y796014D01*
X811064Y793264D01*
X812219Y790856D01*
X813534Y788788D01*
X815009Y787062D01*
X807938Y779991D01*
X806212Y781466D01*
X804144Y782781D01*
X801736Y783936D01*
X798986Y784930D01*
X795895Y785763D01*
X792463Y786436D01*
X788691Y786948D01*
X780121Y787491D01*
X775325Y787521D01*
X807479Y819675D01*
X807509Y814879D01*
D02*
G37*
G36*
X602285Y650579D02*
X592165Y655579D01*
Y665579D01*
X602285Y670579D01*
Y650579D01*
D02*
G37*
G36*
X672757Y644434D02*
X667071Y645000D01*
Y655000D01*
X672757Y655566D01*
Y644434D01*
D02*
G37*
G36*
X767344Y659050D02*
X767648Y658200D01*
X768154Y657450D01*
X768862Y656800D01*
X769124Y656642D01*
X769172Y656666D01*
X769982Y657176D01*
X770735Y657754D01*
X771430Y658400D01*
Y655655D01*
X772202Y655450D01*
X773720Y655200D01*
X775440Y655050D01*
X777363Y655000D01*
Y645000D01*
X775440Y644950D01*
X773720Y644800D01*
X772202Y644550D01*
X771430Y644345D01*
Y641600D01*
X770735Y642246D01*
X769982Y642824D01*
X769172Y643334D01*
X769124Y643358D01*
X768862Y643200D01*
X768154Y642550D01*
X767648Y641800D01*
X767344Y640950D01*
X767243Y640000D01*
Y644192D01*
X766397Y644456D01*
X765356Y644694D01*
X764259Y644864D01*
X763104Y644966D01*
X761891Y645000D01*
Y655000D01*
X763104Y655034D01*
X764259Y655136D01*
X765356Y655306D01*
X766397Y655544D01*
X767243Y655808D01*
Y660000D01*
X767344Y659050D01*
D02*
G37*
G36*
X882754Y610735D02*
X882176Y609982D01*
X881666Y609172D01*
X881224Y608304D01*
X880850Y607379D01*
X880544Y606397D01*
X880306Y605356D01*
X880136Y604259D01*
X880034Y603104D01*
X880000Y601891D01*
X870000D01*
X869966Y603104D01*
X869864Y604259D01*
X869694Y605356D01*
X869456Y606397D01*
X869150Y607379D01*
X868776Y608304D01*
X868334Y609172D01*
X867824Y609982D01*
X867246Y610735D01*
X866600Y611430D01*
X883400D01*
X882754Y610735D01*
D02*
G37*
G36*
X815695Y579909D02*
X814089Y578586D01*
X811384Y575989D01*
X810285Y574715D01*
X809356Y573457D01*
X808595Y572216D01*
X808004Y570992D01*
X807581Y569784D01*
X807327Y568592D01*
X807243Y567418D01*
Y592801D01*
X807315Y591841D01*
X807530Y591101D01*
X807889Y590581D01*
X808391Y590281D01*
X809037Y590202D01*
X809827Y590342D01*
X810760Y590703D01*
X811836Y591283D01*
X813057Y592084D01*
X814420Y593105D01*
X815695Y579909D01*
D02*
G37*
G36*
X637935Y608471D02*
X638235Y607621D01*
X638735Y606871D01*
X639435Y606221D01*
X640335Y605671D01*
X641435Y605221D01*
X642735Y604871D01*
X644235Y604621D01*
X645935Y604471D01*
X647835Y604421D01*
Y594421D01*
X645935Y594371D01*
X644235Y594221D01*
X642735Y593971D01*
X641435Y593621D01*
X640335Y593171D01*
X639435Y592621D01*
X638735Y591971D01*
X638235Y591221D01*
X637935Y590371D01*
X637835Y589421D01*
Y609421D01*
X637935Y608471D01*
D02*
G37*
G36*
X611779Y582757D02*
X597637Y575566D01*
X595094Y587165D01*
X596884Y589024D01*
X599750Y592446D01*
X600826Y594009D01*
X601664Y595472D01*
X602264Y596837D01*
X602626Y598103D01*
X602750Y599270D01*
X602636Y600338D01*
X602285Y601307D01*
X611779Y582757D01*
D02*
G37*
G36*
X712757Y565063D02*
X703094Y573441D01*
X703459Y584580D01*
X712757Y586188D01*
Y565063D01*
D02*
G37*
G36*
X830629Y525935D02*
X830779Y524235D01*
X831029Y522735D01*
X831379Y521435D01*
X831829Y520335D01*
X832379Y519435D01*
X833029Y518735D01*
X833779Y518235D01*
X834629Y517935D01*
X835579Y517835D01*
X815579D01*
X816529Y517935D01*
X817379Y518235D01*
X818129Y518735D01*
X818779Y519435D01*
X819329Y520335D01*
X819779Y521435D01*
X820129Y522735D01*
X820379Y524235D01*
X820529Y525935D01*
X820579Y527835D01*
X830579D01*
X830629Y525935D01*
D02*
G37*
G36*
X698838Y525064D02*
X699868Y523547D01*
X700906Y522208D01*
X701952Y521048D01*
X703005Y520066D01*
X704065Y519263D01*
X705134Y518639D01*
X706209Y518192D01*
X707293Y517924D01*
X708384Y517835D01*
X685403D01*
X686342Y517918D01*
X687083Y518167D01*
X687625Y518583D01*
X687968Y519164D01*
X688113Y519911D01*
X688059Y520825D01*
X687807Y521904D01*
X687356Y523149D01*
X686706Y524561D01*
X685857Y526139D01*
X697816Y526760D01*
X698838Y525064D01*
D02*
G37*
D12*
X317716Y345000D02*
G03*
X371839Y367418I0J76541D01*
G01*
X220000Y276389D02*
G03*
X265000Y321389I0J45000D01*
G01*
X290000Y395000D02*
G03*
X265000Y370000I0J-25000D01*
G01*
X333114Y295000D02*
G03*
X380000Y314421I0J66307D01*
G01*
X457045Y659025D02*
G03*
X324668Y601811I12955J-211722D01*
G01*
X269256Y643461D02*
G03*
X240000Y655579I-29256J-29256D01*
G01*
X109948Y820000D02*
G03*
X55000Y765052I0J-54948D01*
G01*
X236705Y442955D02*
G03*
X193611Y475000I-43095J-12955D01*
G01*
X137929Y487071D02*
G03*
X167071Y475000I29142J29142D01*
G01*
X55000Y606282D02*
G03*
X80655Y544345I87593J0D01*
G01*
X55000Y526792D02*
G03*
X70000Y490579I51213J0D01*
G01*
X274824Y445000D02*
G03*
X238611Y430000I0J-51213D01*
G01*
X425000Y395000D02*
G03*
X325000Y495000I-100000J0D01*
G01*
X240579Y520000D02*
G03*
X300934Y495000I60355J60355D01*
G01*
X140008Y539991D02*
G03*
X176213Y525000I36205J36222D01*
G01*
X140000Y540000D02*
G03*
X140008Y539991I36213J36213D01*
G01*
X106389Y600000D02*
G03*
X125050Y554950I63710J0D01*
G01*
X305000Y750000D02*
G03*
X375000Y820000I0J70000D01*
G01*
X240000Y594421D02*
G03*
X226531Y600000I-13469J-13469D01*
G01*
X269413Y565008D02*
G03*
X317716Y545000I48303J48303D01*
G01*
X800393Y190000D02*
G03*
X912000Y301607I0J111607D01*
G01*
X555138Y272146D02*
G03*
X610000Y249421I54862J54862D01*
G01*
X532283Y290000D02*
G03*
X632283Y190000I100000J0D01*
G01*
X470000Y314421D02*
G03*
X516886Y295000I46886J46886D01*
G01*
X610000Y249421D02*
G03*
X632744Y240000I22744J22744D01*
G01*
X912000Y641579D02*
G03*
X882711Y712289I-100000J0D01*
G01*
X845711Y260711D02*
G03*
X875000Y331421I-70711J70711D01*
G01*
X162221Y675000D02*
G03*
X209107Y655579I46886J46886D01*
G01*
X106389Y673611D02*
G03*
X105000Y675000I-1389J0D01*
G01*
X25000Y319421D02*
G03*
X70000Y274421I45000J0D01*
G01*
Y429421D02*
G03*
X25000Y384421I0J-45000D01*
G01*
X143031Y274421D02*
G03*
X145000Y276389I0J1968D01*
G01*
X516886Y395000D02*
G03*
X470000Y375579I0J-66307D01*
G01*
X473536Y510885D02*
G03*
X511886Y495000I38351J38351D01*
G01*
X532283Y595000D02*
G03*
X545000Y625701I-30701J30701D01*
G01*
X516886Y595000D02*
G03*
X470000Y575579I0J-66307D01*
G01*
X538787Y495000D02*
G03*
X574991Y509991I0J51213D01*
G01*
X485679Y199321D02*
G03*
X414968Y228611I-70711J-70711D01*
G01*
X505711Y179289D02*
G03*
X576421Y150000I70711J70711D01*
G01*
X764421Y500000D02*
G03*
X819421Y445000I55000J0D01*
G01*
X639421Y500000D02*
G03*
X694421Y445000I55000J0D01*
G01*
X725579D02*
G03*
X670579Y390000I0J-55000D01*
G01*
X789421Y445000D02*
G03*
X734421Y390000I0J-55000D01*
G01*
X390000Y228611D02*
G03*
X425000Y263611I0J35000D01*
G01*
X795579Y390000D02*
G03*
X875000Y469421I0J79421D01*
G01*
X766290Y267679D02*
G03*
X795579Y338390I-70711J70711D01*
G01*
X670716Y310579D02*
G03*
X681389Y315000I0J15094D01*
G01*
X604868Y315711D02*
G03*
X534158Y345000I-70711J-70711D01*
G01*
X738611Y315000D02*
G03*
X795579Y371969I0J56968D01*
G01*
X609421Y390000D02*
G03*
X604421Y395000I-5000J0D01*
G01*
X788611Y575000D02*
G03*
X825579Y611968I0J36968D01*
G01*
Y618611D02*
G03*
X725579Y718611I-100000J0D01*
G01*
X545000D02*
G03*
X540248Y720579I-4752J-4752D01*
G01*
X545000Y661389D02*
G03*
X546957Y660579I1957J1957D01*
G01*
X655000Y655000D02*
G03*
X667071Y650000I12071J12071D01*
G01*
X655000Y655000D02*
G03*
X641531Y660579I-13469J-13469D01*
G01*
X695000Y585000D02*
G03*
X719142Y575000I24142J24142D01*
G01*
X695000Y585000D02*
G03*
X660185Y599421I-34815J-34815D01*
G01*
X700579Y500000D02*
G03*
X655579Y545000I-45000J0D01*
G01*
X574991Y509991D02*
G03*
X575000Y510000I-36205J36222D01*
G01*
X624142Y545000D02*
G03*
X600000Y535000I0J-34142D01*
G01*
X610479Y595479D02*
G03*
X610476Y595476I9521J-9527D01*
G01*
X620000Y599421D02*
G03*
X610479Y595479I0J-13469D01*
G01*
X574991Y559991D02*
G03*
X575000Y560000I-36205J36222D01*
G01*
X538787Y545000D02*
G03*
X574991Y559991I0J51213D01*
G01*
X390000Y171389D02*
G03*
X393354Y170000I3354J3354D01*
G01*
X311646D02*
G03*
X315000Y171389I0J4744D01*
G01*
X470000Y445000D02*
X532283D01*
X531132Y446151D02*
X532283Y445000D01*
X371839Y367418D02*
X380000Y375579D01*
X265000Y321389D02*
Y370000D01*
X290000Y395000D02*
X317716D01*
Y295000D02*
X333114D01*
X324668Y601811D02*
X324668Y601811D01*
X317716Y595000D02*
X324668Y601811D01*
X209107Y655579D02*
X240000D01*
X269255Y643461D02*
X317716Y595000D01*
X55000Y606282D02*
Y765052D01*
X109948Y820000D02*
X275000D01*
X167134Y475000D02*
X193611D01*
X137888Y487112D02*
X137929Y487071D01*
X167071Y475000D02*
X167134Y475000D01*
X80655Y544345D02*
X137888Y487112D01*
X55000Y526792D02*
Y606282D01*
X236705Y442955D02*
X238611Y430000D01*
X274824Y445000D02*
X317716D01*
Y495000D02*
X325000D01*
X300934D02*
X317716D01*
X176213Y525000D02*
X179421D01*
X140000Y540000D02*
X140008Y539991D01*
X125050Y554950D02*
X140000Y540000D01*
X106389Y600000D02*
Y673611D01*
X165579Y750000D02*
X305000D01*
X163611Y600000D02*
X226531D01*
X240000Y594421D02*
X269413Y565008D01*
X815000Y230000D02*
X845711Y260711D01*
X576421Y150000D02*
X735000D01*
X632283Y190000D02*
X800393D01*
X532283Y295000D02*
X555138Y272146D01*
X516886Y295000D02*
X532283D01*
X632744Y240000D02*
X681389D01*
X912000Y301607D02*
Y641579D01*
X775000Y820000D02*
X882711Y712289D01*
X104421Y750000D02*
X105000D01*
Y675000D02*
Y750000D01*
X25000Y319421D02*
Y384421D01*
X70000Y274421D02*
X143031D01*
X145000Y276389D02*
X220000D01*
X70000Y335579D02*
Y380000D01*
X135000Y430000D02*
X181389D01*
X145000Y333611D02*
Y380000D01*
X220000Y333611D02*
Y380000D01*
X315000Y228611D02*
Y292284D01*
X532283Y395000D02*
X604421D01*
X516886D02*
X532283D01*
X511886Y495000D02*
X532283D01*
X470000Y514421D02*
X473536Y510885D01*
X516886Y595000D02*
X532283D01*
X457045Y659025D02*
X470000Y659421D01*
X532283Y495000D02*
X538787D01*
X875000Y469421D02*
Y620000D01*
X485679Y199321D02*
X505711Y179289D01*
X725579Y445000D02*
X789421D01*
X819421D02*
X830000D01*
X789421D02*
X819421D01*
X694421D02*
X725579D01*
X425000Y263611D02*
Y395000D01*
X390000Y228611D02*
X414968D01*
X315000D02*
X390000D01*
X875000Y331421D02*
Y375000D01*
X738611Y240000D02*
X766290Y267679D01*
X795579Y371969D02*
Y390000D01*
Y338390D02*
Y371969D01*
X604868Y315711D02*
X610000Y310579D01*
X670716D01*
X532283Y345000D02*
X534158D01*
X825579Y611968D02*
Y618611D01*
Y500000D02*
Y611968D01*
X750579Y650000D02*
X780000D01*
X545000Y718611D02*
X725579D01*
X470000Y720579D02*
X540248D01*
X546957Y660579D02*
X620000D01*
X545000Y625701D02*
Y661389D01*
X667071Y650000D02*
X689421D01*
X620000Y660579D02*
X641531D01*
X620000Y599421D02*
X660185D01*
X624142Y545000D02*
X655579D01*
X575000Y510000D02*
X600000Y535000D01*
X574991Y509991D02*
X575000Y510000D01*
X610476Y595476D02*
X610479Y595479D01*
X575000Y560000D02*
X610476Y595476D01*
X574991Y559991D02*
X575000Y560000D01*
X532283Y545000D02*
X538787D01*
X719142Y575000D02*
X731389D01*
X393354Y170000D02*
X440000D01*
X265000D02*
X311646D01*
D14*
X238611Y430000D02*
D03*
X181389D02*
D03*
X105000Y675000D02*
D03*
X162221D02*
D03*
X106389Y600000D02*
D03*
X163611D02*
D03*
X738611Y315000D02*
D03*
X681389D02*
D03*
X788611Y575000D02*
D03*
X731389D02*
D03*
X738611Y240000D02*
D03*
X681389D02*
D03*
D15*
X70000Y274421D02*
D03*
Y335579D02*
D03*
X240000Y594421D02*
D03*
Y655579D02*
D03*
X70000Y490579D02*
D03*
Y429421D02*
D03*
X620000Y599421D02*
D03*
Y660579D02*
D03*
X610000Y310579D02*
D03*
Y249421D02*
D03*
X470000Y659421D02*
D03*
Y720579D02*
D03*
D16*
X179421Y520000D02*
D03*
X240579D02*
D03*
X165579Y750000D02*
D03*
X104421D02*
D03*
X795579Y390000D02*
D03*
X734421D02*
D03*
X609421D02*
D03*
X670579D02*
D03*
X825579Y500000D02*
D03*
X764421D02*
D03*
X700579D02*
D03*
X639421D02*
D03*
X689421Y650000D02*
D03*
X750579D02*
D03*
D17*
X220000Y276389D02*
D03*
Y333611D02*
D03*
X145000Y276389D02*
D03*
Y333611D02*
D03*
X315000Y171389D02*
D03*
Y228611D02*
D03*
X545000Y661389D02*
D03*
Y718611D02*
D03*
X390000Y171389D02*
D03*
Y228611D02*
D03*
D18*
X532283Y295000D02*
D03*
Y345000D02*
D03*
Y395000D02*
D03*
Y445000D02*
D03*
Y495000D02*
D03*
Y545000D02*
D03*
Y595000D02*
D03*
X317716Y295000D02*
D03*
Y345000D02*
D03*
Y395000D02*
D03*
Y445000D02*
D03*
Y495000D02*
D03*
Y545000D02*
D03*
Y595000D02*
D03*
D23*
X150000Y150000D02*
D03*
D24*
X775000Y820000D02*
D03*
X675000D02*
D03*
X575000D02*
D03*
X475000D02*
D03*
X375000D02*
D03*
D25*
X275000D02*
D03*
D26*
X470000Y445000D02*
D03*
X380000Y314421D02*
D03*
X735000Y150000D02*
D03*
X815000Y230000D02*
D03*
X70000Y380000D02*
D03*
X135000Y430000D02*
D03*
X145000Y380000D02*
D03*
X220000D02*
D03*
X875000Y620000D02*
D03*
Y375000D02*
D03*
X830000Y445000D02*
D03*
X780000Y650000D02*
D03*
X440000Y170000D02*
D03*
X265000D02*
D03*
X470000Y575579D02*
D03*
Y514421D02*
D03*
Y314421D02*
D03*
Y375579D02*
D03*
X380000D02*
D03*
M02*
