M48
;Layer_Color=9474304
;FILE_FORMAT=2:4
INCH,LZ
;TYPE=PLATED
T01F00S00C0.0120
T02F00S00C0.0433
T03F00S00C0.0840
%
T01
X00265Y0017
X0044
X0047Y003144
Y003756
Y00445
Y005144
Y005756
X0038Y003756
Y003144
X0022Y0038
X00145
X00135Y0043
X0007Y0038
X00875Y00375
X0083Y00445
X00875Y0062
X0078Y0065
X00815Y0023
X00735Y0015
T02
X00275Y0082
X00375
X00475
X00575
X00675
X00775
T03
X0015Y0015
M30
