G04*
G04 #@! TF.GenerationSoftware,Altium Limited,Altium Designer,25.1.2 (22)*
G04*
G04 Layer_Physical_Order=2*
G04 Layer_Color=16711680*
%FSLAX26Y26*%
%MOIN*%
G70*
G04*
G04 #@! TF.SameCoordinates,3C89DFF2-4D07-40C4-B63C-CCDB096C3DA4*
G04*
G04*
G04 #@! TF.FilePolarity,Positive*
G04*
G01*
G75*
%ADD12C,0.010000*%
%ADD15R,0.035911X0.033808*%
%ADD23C,0.150000*%
%ADD24C,0.064961*%
%ADD25R,0.064961X0.064961*%
%ADD26C,0.024000*%
G36*
X814880Y218001D02*
X813932Y217966D01*
X812991Y217842D01*
X812057Y217630D01*
X811131Y217329D01*
X810212Y216939D01*
X809301Y216461D01*
X808397Y215893D01*
X807501Y215238D01*
X806612Y214493D01*
X805731Y213660D01*
X798660Y220731D01*
X799493Y221612D01*
X800238Y222501D01*
X800894Y223397D01*
X801461Y224301D01*
X801939Y225212D01*
X802329Y226131D01*
X802630Y227057D01*
X802842Y227991D01*
X802966Y228932D01*
X803001Y229880D01*
X814880Y218001D01*
D02*
G37*
G36*
X751340Y159269D02*
X750507Y158388D01*
X749762Y157499D01*
X749106Y156603D01*
X748539Y155699D01*
X748061Y154788D01*
X747671Y153869D01*
X747370Y152943D01*
X747158Y152009D01*
X747034Y151068D01*
X746999Y150120D01*
X735120Y161999D01*
X736068Y162034D01*
X737009Y162158D01*
X737943Y162370D01*
X738869Y162671D01*
X739788Y163061D01*
X740699Y163539D01*
X741603Y164107D01*
X742499Y164762D01*
X743388Y165507D01*
X744269Y166340D01*
X751340Y159269D01*
D02*
G37*
G36*
X875600Y884393D02*
X891573Y877776D01*
X905947Y868172D01*
X918172Y855947D01*
X927777Y841572D01*
X934393Y825600D01*
X937765Y808644D01*
Y800000D01*
Y215000D01*
Y206356D01*
X934393Y189400D01*
X927776Y173427D01*
X918172Y159053D01*
X905947Y146828D01*
X891572Y137223D01*
X875600Y130607D01*
X858644Y127235D01*
X850001D01*
X764045Y127240D01*
X763505Y127688D01*
X758810Y137240D01*
X760160Y139578D01*
X762000Y146445D01*
Y148162D01*
X816838Y203000D01*
X818555D01*
X825422Y204840D01*
X831578Y208395D01*
X836605Y213422D01*
X840160Y219578D01*
X842000Y226445D01*
Y233555D01*
X840160Y240422D01*
X836605Y246578D01*
X831578Y251605D01*
X825422Y255160D01*
X818555Y257000D01*
X811445D01*
X804578Y255160D01*
X798422Y251605D01*
X793395Y246578D01*
X789840Y240422D01*
X788000Y233555D01*
Y231838D01*
X733162Y177000D01*
X731445D01*
X724578Y175160D01*
X718422Y171605D01*
X713395Y166578D01*
X709840Y160422D01*
X708000Y153555D01*
Y146445D01*
X709840Y139578D01*
X711188Y137243D01*
X706489Y127687D01*
X705954Y127243D01*
X335001Y127264D01*
X334981Y127260D01*
X334961Y127264D01*
X295320Y127138D01*
X294555Y126983D01*
X293776Y127035D01*
X292234Y126514D01*
X290640Y126192D01*
X289993Y125756D01*
X289253Y125506D01*
X288029Y124435D01*
X286679Y123527D01*
X286248Y122877D01*
X285661Y122363D01*
X284939Y120904D01*
X284040Y119549D01*
X283890Y118783D01*
X283544Y118084D01*
X280930Y108373D01*
X272609Y90061D01*
X261420Y73347D01*
X247659Y58676D01*
X231695Y46442D01*
X213951Y36968D01*
X194902Y30508D01*
X175057Y27235D01*
X135000D01*
X126953Y27235D01*
X110998Y29335D01*
X95453Y33500D01*
X80585Y39659D01*
X66648Y47706D01*
X53881Y57502D01*
X42502Y68881D01*
X32705Y81648D01*
X24659Y95586D01*
X18500Y110453D01*
X14335Y125998D01*
X12235Y141953D01*
Y150000D01*
Y800000D01*
Y808644D01*
X15607Y825600D01*
X22224Y841573D01*
X31828Y855947D01*
X44053Y868172D01*
X58428Y877777D01*
X74400Y884393D01*
X91356Y887765D01*
X858644D01*
X875600Y884393D01*
D02*
G37*
%LPC*%
G36*
X381251Y867480D02*
X368749D01*
X356673Y864245D01*
X345846Y857994D01*
X337006Y849154D01*
X332480Y841314D01*
X322480Y843994D01*
Y867480D01*
X227520D01*
Y772520D01*
X322480D01*
Y796006D01*
X332480Y798686D01*
X337006Y790846D01*
X345846Y782006D01*
X356673Y775755D01*
X368749Y772520D01*
X381251D01*
X393327Y775755D01*
X404154Y782006D01*
X412994Y790846D01*
X419245Y801673D01*
X422480Y813749D01*
Y826251D01*
X419245Y838327D01*
X412994Y849154D01*
X404154Y857994D01*
X393327Y864245D01*
X381251Y867480D01*
D02*
G37*
G36*
X781251D02*
X768749D01*
X756673Y864245D01*
X745846Y857994D01*
X737006Y849154D01*
X730755Y838327D01*
X727520Y826251D01*
Y813749D01*
X730755Y801673D01*
X737006Y790846D01*
X745846Y782006D01*
X756673Y775755D01*
X768749Y772520D01*
X781251D01*
X793327Y775755D01*
X804154Y782006D01*
X812994Y790846D01*
X819245Y801673D01*
X822480Y813749D01*
Y826251D01*
X819245Y838327D01*
X812994Y849154D01*
X804154Y857994D01*
X793327Y864245D01*
X781251Y867480D01*
D02*
G37*
G36*
X783555Y677000D02*
X776445D01*
X769578Y675160D01*
X763422Y671605D01*
X758395Y666578D01*
X754840Y660422D01*
X753000Y653555D01*
Y646445D01*
X754840Y639578D01*
X758395Y633422D01*
X763422Y628395D01*
X769578Y624840D01*
X776445Y623000D01*
X783555D01*
X790422Y624840D01*
X796578Y628395D01*
X797792Y629608D01*
X839269D01*
X846674Y624474D01*
X848000Y620409D01*
Y616445D01*
X849840Y609578D01*
X853395Y603422D01*
X858422Y598395D01*
X864578Y594840D01*
X871445Y593000D01*
X878555D01*
X885422Y594840D01*
X891578Y598395D01*
X896605Y603422D01*
X900160Y609578D01*
X902000Y616445D01*
Y623555D01*
X900160Y630422D01*
X896605Y636578D01*
X891578Y641605D01*
X889728Y642674D01*
X888675Y645216D01*
X880660Y655660D01*
X870216Y663675D01*
X858053Y668713D01*
X845000Y670431D01*
Y670392D01*
X797792D01*
X796578Y671605D01*
X790422Y675160D01*
X783555Y677000D01*
D02*
G37*
G36*
X502955Y607483D02*
X437045D01*
Y543675D01*
Y482517D01*
X502955D01*
Y543675D01*
Y607483D01*
D02*
G37*
G36*
X833555Y472000D02*
X826445D01*
X819578Y470160D01*
X813422Y466605D01*
X808395Y461578D01*
X804840Y455422D01*
X803000Y448555D01*
Y441445D01*
X804840Y434578D01*
X808395Y428422D01*
X813422Y423395D01*
X819578Y419840D01*
X826445Y418000D01*
X833555D01*
X840422Y419840D01*
X842559Y421074D01*
X847663Y417663D01*
X853078Y409559D01*
X854794Y400935D01*
X854608Y400000D01*
Y392792D01*
X853395Y391578D01*
X849840Y385422D01*
X848000Y378555D01*
Y371445D01*
X849840Y364578D01*
X853395Y358422D01*
X858422Y353395D01*
X864578Y349840D01*
X871445Y348000D01*
X878555D01*
X885422Y349840D01*
X891578Y353395D01*
X896605Y358422D01*
X900160Y364578D01*
X902000Y371445D01*
Y378555D01*
X900160Y385422D01*
X896605Y391578D01*
X895392Y392792D01*
Y400000D01*
X895239Y400770D01*
X894059Y412742D01*
X890343Y424995D01*
X884307Y436287D01*
X876184Y446184D01*
X866287Y454307D01*
X854995Y460343D01*
X851751Y461327D01*
X851605Y461578D01*
X846578Y466605D01*
X840422Y470160D01*
X833555Y472000D01*
D02*
G37*
G36*
X502955Y407483D02*
X437045D01*
Y343675D01*
Y282517D01*
X502955D01*
Y343675D01*
Y407483D01*
D02*
G37*
G36*
X412955D02*
X347045D01*
Y343675D01*
Y282517D01*
X412955D01*
Y343675D01*
Y407483D01*
D02*
G37*
G36*
X158864Y240000D02*
X141136D01*
X123748Y236541D01*
X107369Y229757D01*
X92628Y219908D01*
X80092Y207372D01*
X70243Y192631D01*
X63459Y176252D01*
X60000Y158864D01*
Y141136D01*
X63459Y123748D01*
X70243Y107369D01*
X80092Y92628D01*
X92628Y80092D01*
X107369Y70243D01*
X123748Y63459D01*
X141136Y60000D01*
X158864D01*
X176252Y63459D01*
X192631Y70243D01*
X207372Y80092D01*
X219908Y92628D01*
X229757Y107369D01*
X236541Y123748D01*
X240000Y141136D01*
Y158864D01*
X236541Y176252D01*
X229757Y192631D01*
X219908Y207372D01*
X207372Y219908D01*
X192631Y229757D01*
X176252Y236541D01*
X158864Y240000D01*
D02*
G37*
%LPD*%
G36*
X789265Y657754D02*
X790018Y657176D01*
X790828Y656666D01*
X791696Y656224D01*
X792621Y655850D01*
X793603Y655544D01*
X794644Y655306D01*
X795741Y655136D01*
X796896Y655034D01*
X798109Y655000D01*
Y645000D01*
X796896Y644966D01*
X795741Y644864D01*
X794644Y644694D01*
X793603Y644456D01*
X792621Y644150D01*
X791696Y643776D01*
X790828Y643334D01*
X790018Y642824D01*
X789265Y642246D01*
X788570Y641600D01*
Y658400D01*
X789265Y657754D01*
D02*
G37*
G36*
X880034Y391896D02*
X880136Y390741D01*
X880306Y389644D01*
X880544Y388603D01*
X880850Y387621D01*
X881224Y386696D01*
X881666Y385828D01*
X882176Y385018D01*
X882754Y384265D01*
X883400Y383570D01*
X866600D01*
X867246Y384265D01*
X867824Y385018D01*
X868334Y385828D01*
X868776Y386696D01*
X869150Y387621D01*
X869456Y388603D01*
X869694Y389644D01*
X869864Y390741D01*
X869966Y391896D01*
X870000Y393109D01*
X880000D01*
X880034Y391896D01*
D02*
G37*
D12*
X875000Y620000D02*
G03*
X845000Y650000I-30000J0D01*
G01*
X875000Y400000D02*
G03*
X830000Y445000I-45000J0D01*
G01*
X735000Y150000D02*
X815000Y230000D01*
X875000Y375000D02*
Y400000D01*
X780000Y650000D02*
X845000D01*
D15*
X470000Y314421D02*
D03*
Y375579D02*
D03*
Y575579D02*
D03*
Y514421D02*
D03*
X380000Y314421D02*
D03*
Y375579D02*
D03*
D23*
X150000Y150000D02*
D03*
D24*
X775000Y820000D02*
D03*
X675000D02*
D03*
X575000D02*
D03*
X475000D02*
D03*
X375000D02*
D03*
D25*
X275000D02*
D03*
D26*
X470000Y445000D02*
D03*
X380000Y314421D02*
D03*
X735000Y150000D02*
D03*
X815000Y230000D02*
D03*
X70000Y380000D02*
D03*
X135000Y430000D02*
D03*
X145000Y380000D02*
D03*
X220000D02*
D03*
X875000Y620000D02*
D03*
Y375000D02*
D03*
X830000Y445000D02*
D03*
X780000Y650000D02*
D03*
X440000Y170000D02*
D03*
X265000D02*
D03*
X470000Y575579D02*
D03*
Y514421D02*
D03*
Y314421D02*
D03*
Y375579D02*
D03*
X380000D02*
D03*
M02*
