G04*
G04 #@! TF.GenerationSoftware,Altium Limited,Altium Designer,25.1.2 (22)*
G04*
G04 Layer_Color=65535*
%FSLAX26Y26*%
%MOIN*%
G70*
G04*
G04 #@! TF.SameCoordinates,3C89DFF2-4D07-40C4-B63C-CCDB096C3DA4*
G04*
G04*
G04 #@! TF.FilePolarity,Positive*
G04*
G01*
G75*
%ADD10C,0.023622*%
%ADD11C,0.009842*%
%ADD12C,0.010000*%
%ADD13C,0.007874*%
D10*
X413189Y578858D02*
G03*
X413189Y578858I-11811J0D01*
G01*
D11*
X322638Y628465D02*
G03*
X322638Y628465I-4921J0D01*
G01*
D12*
X275000Y872953D02*
X830905D01*
Y767047D02*
Y872953D01*
X219095Y767047D02*
X830905D01*
X219095D02*
Y820000D01*
X368674Y675995D02*
Y649337D01*
X374005Y644005D01*
X384668D01*
X390000Y649337D01*
Y675995D01*
X400663Y644005D02*
X411327D01*
X405995D01*
Y675995D01*
X400663Y670663D01*
X840013Y374005D02*
Y405995D01*
X856008D01*
X861339Y400663D01*
Y390000D01*
X856008Y384668D01*
X840013D01*
X850676D02*
X861339Y374005D01*
X872003D02*
X882666D01*
X877334D01*
Y405995D01*
X872003Y400663D01*
X919987Y374005D02*
X898661D01*
X919987Y395332D01*
Y400663D01*
X914655Y405995D01*
X903992D01*
X898661Y400663D01*
X798342Y634005D02*
Y665995D01*
X814337D01*
X819668Y660663D01*
Y650000D01*
X814337Y644668D01*
X798342D01*
X809005D02*
X819668Y634005D01*
X830332Y665995D02*
X851658D01*
Y660663D01*
X830332Y639337D01*
Y634005D01*
X583342Y174005D02*
Y205995D01*
X599337D01*
X604668Y200663D01*
Y190000D01*
X599337Y184668D01*
X583342D01*
X594005D02*
X604668Y174005D01*
X631327D02*
Y205995D01*
X615332Y190000D01*
X636658D01*
X598342Y704005D02*
Y735995D01*
X614337D01*
X619668Y730663D01*
Y720000D01*
X614337Y714668D01*
X598342D01*
X609005D02*
X619668Y704005D01*
X630332Y730663D02*
X635663Y735995D01*
X646327D01*
X651658Y730663D01*
Y725332D01*
X646327Y720000D01*
X640995D01*
X646327D01*
X651658Y714668D01*
Y709337D01*
X646327Y704005D01*
X635663D01*
X630332Y709337D01*
X213342Y699005D02*
Y730995D01*
X229337D01*
X234668Y725663D01*
Y715000D01*
X229337Y709668D01*
X213342D01*
X224005D02*
X234668Y699005D01*
X266658D02*
X245332D01*
X266658Y720332D01*
Y725663D01*
X261327Y730995D01*
X250663D01*
X245332Y725663D01*
X466339Y225663D02*
X461008Y230995D01*
X450345D01*
X445013Y225663D01*
Y204337D01*
X450345Y199005D01*
X461008D01*
X466339Y204337D01*
X477003Y199005D02*
X487666D01*
X482334D01*
Y230995D01*
X477003Y225663D01*
X503661D02*
X508992Y230995D01*
X519655D01*
X524987Y225663D01*
Y204337D01*
X519655Y199005D01*
X508992D01*
X503661Y204337D01*
Y225663D01*
X804668Y325663D02*
X799337Y330995D01*
X788674D01*
X783342Y325663D01*
Y304337D01*
X788674Y299005D01*
X799337D01*
X804668Y304337D01*
X836658Y330995D02*
X825995Y325663D01*
X815332Y315000D01*
Y304337D01*
X820663Y299005D01*
X831327D01*
X836658Y304337D01*
Y309668D01*
X831327Y315000D01*
X815332D01*
X864668Y580663D02*
X859337Y585995D01*
X848674D01*
X843342Y580663D01*
Y559337D01*
X848674Y554005D01*
X859337D01*
X864668Y559337D01*
X896658Y585995D02*
X875332D01*
Y570000D01*
X885995Y575332D01*
X891327D01*
X896658Y570000D01*
Y559337D01*
X891327Y554005D01*
X880663D01*
X875332Y559337D01*
X804668Y250663D02*
X799337Y255995D01*
X788674D01*
X783342Y250663D01*
Y229337D01*
X788674Y224005D01*
X799337D01*
X804668Y229337D01*
X815332Y250663D02*
X820663Y255995D01*
X831327D01*
X836658Y250663D01*
Y245332D01*
X831327Y240000D01*
X825995D01*
X831327D01*
X836658Y234668D01*
Y229337D01*
X831327Y224005D01*
X820663D01*
X815332Y229337D01*
X175000Y835995D02*
X164337D01*
X169668D01*
Y809337D01*
X164337Y804005D01*
X159005D01*
X153674Y809337D01*
X185663Y804005D02*
X196327D01*
X190995D01*
Y835995D01*
X185663Y830663D01*
D13*
X162517Y463703D02*
X257483D01*
X162517Y396297D02*
X257483D01*
X103703Y257517D02*
Y352483D01*
X36297Y257517D02*
Y352483D01*
X162517Y486297D02*
X257483D01*
X162517Y553703D02*
X257483D01*
X273703Y577517D02*
Y672483D01*
X206297Y577517D02*
Y672483D01*
X86128Y641297D02*
X181093D01*
X86128Y708703D02*
X181093D01*
X87517Y783703D02*
X182483D01*
X87517Y716297D02*
X182483D01*
X36297Y412517D02*
Y507483D01*
X103703Y412517D02*
Y507483D01*
X87517Y566297D02*
X182483D01*
X87517Y633703D02*
X182483D01*
X253703Y257517D02*
Y352483D01*
X186297Y257517D02*
Y352483D01*
X178703Y257517D02*
Y352483D01*
X111297Y257517D02*
Y352483D01*
X717517Y423703D02*
X812483D01*
X717517Y356297D02*
X812483D01*
X662517Y348703D02*
X757483D01*
X662517Y281297D02*
X757483D01*
X712517Y608703D02*
X807483D01*
X712517Y541297D02*
X807483D01*
X653703Y582517D02*
Y677483D01*
X586297Y582517D02*
Y677483D01*
X592517Y356297D02*
X687483D01*
X592517Y423703D02*
X687483D01*
X662517Y273703D02*
X757483D01*
X662517Y206297D02*
X757483D01*
X747517Y533703D02*
X842483D01*
X747517Y466297D02*
X842483D01*
X622517Y533703D02*
X717483D01*
X622517Y466297D02*
X717483D01*
X576297Y232517D02*
Y327483D01*
X643703Y232517D02*
Y327483D01*
X503703Y642517D02*
Y737483D01*
X436297Y642517D02*
Y737483D01*
X672517Y616297D02*
X767483D01*
X672517Y683703D02*
X767483D01*
X362008Y272756D02*
X487992D01*
X362008Y617244D02*
X487992D01*
Y272756D02*
Y617244D01*
X362008Y272756D02*
Y617244D01*
X348703Y152517D02*
Y247483D01*
X281297Y152517D02*
Y247483D01*
X578703Y642517D02*
Y737483D01*
X511297Y642517D02*
Y737483D01*
X423703Y152517D02*
Y247483D01*
X356297Y152517D02*
Y247483D01*
M02*
