G04*
G04 #@! TF.GenerationSoftware,Altium Limited,Altium Designer,25.1.2 (22)*
G04*
G04 Layer_Color=32896*
%FSLAX26Y26*%
%MOIN*%
G70*
G04*
G04 #@! TF.SameCoordinates,3C89DFF2-4D07-40C4-B63C-CCDB096C3DA4*
G04*
G04*
G04 #@! TF.FilePolarity,Positive*
G04*
G01*
G75*
%ADD12C,0.010000*%
%ADD13C,0.007874*%
D12*
X679987Y374005D02*
Y405995D01*
X663992D01*
X658661Y400663D01*
Y390000D01*
X663992Y384668D01*
X679987D01*
X669324D02*
X658661Y374005D01*
X647997D02*
X637334D01*
X642666D01*
Y405995D01*
X647997Y400663D01*
X600013Y405995D02*
X610676Y400663D01*
X621339Y390000D01*
Y379337D01*
X616008Y374005D01*
X605345D01*
X600013Y379337D01*
Y384668D01*
X605345Y390000D01*
X621339D01*
X709987Y484005D02*
Y515995D01*
X693992D01*
X688661Y510663D01*
Y500000D01*
X693992Y494668D01*
X709987D01*
X699324D02*
X688661Y484005D01*
X677997D02*
X667334D01*
X672666D01*
Y515995D01*
X677997Y510663D01*
X630013Y515995D02*
X651339D01*
Y500000D01*
X640676Y505332D01*
X635345D01*
X630013Y500000D01*
Y489337D01*
X635345Y484005D01*
X646008D01*
X651339Y489337D01*
X395995Y269987D02*
X364005D01*
Y253992D01*
X369337Y248661D01*
X380000D01*
X385332Y253992D01*
Y269987D01*
Y259324D02*
X395995Y248661D01*
Y237997D02*
Y227334D01*
Y232666D01*
X364005D01*
X369337Y237997D01*
X395995Y195345D02*
X364005D01*
X380000Y211339D01*
Y190013D01*
X454005Y185013D02*
X485995D01*
Y201008D01*
X480663Y206339D01*
X470000D01*
X464668Y201008D01*
Y185013D01*
Y195676D02*
X454005Y206339D01*
Y217003D02*
Y227666D01*
Y222334D01*
X485995D01*
X480663Y217003D01*
Y243661D02*
X485995Y248992D01*
Y259656D01*
X480663Y264987D01*
X475332D01*
X470000Y259656D01*
Y254324D01*
Y259656D01*
X464668Y264987D01*
X459337D01*
X454005Y259656D01*
Y248992D01*
X459337Y243661D01*
X415995Y579655D02*
X384005D01*
Y563661D01*
X389337Y558329D01*
X400000D01*
X405332Y563661D01*
Y579655D01*
Y568992D02*
X415995Y558329D01*
Y547666D02*
Y537003D01*
Y542334D01*
X384005D01*
X389337Y547666D01*
X415995Y521008D02*
Y510344D01*
Y515676D01*
X384005D01*
X389337Y521008D01*
X834987Y484005D02*
Y515995D01*
X818992D01*
X813661Y510663D01*
Y500000D01*
X818992Y494668D01*
X834987D01*
X824324D02*
X813661Y484005D01*
X802997D02*
X792334D01*
X797666D01*
Y515995D01*
X802997Y510663D01*
X776339D02*
X771008Y515995D01*
X760345D01*
X755013Y510663D01*
Y489337D01*
X760345Y484005D01*
X771008D01*
X776339Y489337D01*
Y510663D01*
X236658Y504005D02*
Y535995D01*
X220663D01*
X215332Y530663D01*
Y520000D01*
X220663Y514668D01*
X236658D01*
X225995D02*
X215332Y504005D01*
X204668Y509337D02*
X199337Y504005D01*
X188673D01*
X183342Y509337D01*
Y530663D01*
X188673Y535995D01*
X199337D01*
X204668Y530663D01*
Y525332D01*
X199337Y520000D01*
X183342D01*
X85995Y331658D02*
X54005D01*
Y315663D01*
X59337Y310332D01*
X70000D01*
X75332Y315663D01*
Y331658D01*
Y320995D02*
X85995Y310332D01*
X59337Y299668D02*
X54005Y294337D01*
Y283673D01*
X59337Y278342D01*
X64668D01*
X70000Y283673D01*
X75332Y278342D01*
X80663D01*
X85995Y283673D01*
Y294337D01*
X80663Y299668D01*
X75332D01*
X70000Y294337D01*
X64668Y299668D01*
X59337D01*
X70000Y294337D02*
Y283673D01*
X485995Y716658D02*
X454005D01*
Y700663D01*
X459337Y695332D01*
X470000D01*
X475332Y700663D01*
Y716658D01*
Y705995D02*
X485995Y695332D01*
X454005Y663342D02*
X459337Y674005D01*
X470000Y684668D01*
X480663D01*
X485995Y679337D01*
Y668673D01*
X480663Y663342D01*
X475332D01*
X470000Y668673D01*
Y684668D01*
X161658Y734005D02*
Y765995D01*
X145663D01*
X140332Y760663D01*
Y750000D01*
X145663Y744668D01*
X161658D01*
X150995D02*
X140332Y734005D01*
X108342Y765995D02*
X129668D01*
Y750000D01*
X119005Y755332D01*
X113674D01*
X108342Y750000D01*
Y739337D01*
X113674Y734005D01*
X124337D01*
X129668Y739337D01*
X91326Y444005D02*
Y475995D01*
X75332D01*
X70000Y470663D01*
Y460000D01*
X75332Y454668D01*
X91326D01*
X80663D02*
X70000Y444005D01*
X59337D02*
X48673D01*
X54005D01*
Y475995D01*
X59337Y470663D01*
X223329Y440663D02*
X228661Y445995D01*
X239324D01*
X244655Y440663D01*
Y419337D01*
X239324Y414005D01*
X228661D01*
X223329Y419337D01*
X212666Y414005D02*
X202002D01*
X207334D01*
Y445995D01*
X212666Y440663D01*
X186008Y414005D02*
X175345D01*
X180676D01*
Y445995D01*
X186008Y440663D01*
X304337Y205332D02*
X299005Y210663D01*
Y221326D01*
X304337Y226658D01*
X325663D01*
X330995Y221326D01*
Y210663D01*
X325663Y205332D01*
Y194668D02*
X330995Y189337D01*
Y178673D01*
X325663Y173342D01*
X304337D01*
X299005Y178673D01*
Y189337D01*
X304337Y194668D01*
X309668D01*
X315000Y189337D01*
Y173342D01*
X209337Y310332D02*
X204005Y315663D01*
Y326326D01*
X209337Y331658D01*
X230663D01*
X235995Y326326D01*
Y315663D01*
X230663Y310332D01*
X209337Y299668D02*
X204005Y294337D01*
Y283673D01*
X209337Y278342D01*
X214668D01*
X220000Y283673D01*
X225332Y278342D01*
X230663D01*
X235995Y283673D01*
Y294337D01*
X230663Y299668D01*
X225332D01*
X220000Y294337D01*
X214668Y299668D01*
X209337D01*
X220000Y294337D02*
Y283673D01*
X134337Y310332D02*
X129005Y315663D01*
Y326326D01*
X134337Y331658D01*
X155663D01*
X160995Y326326D01*
Y315663D01*
X155663Y310332D01*
X129005Y299668D02*
Y278342D01*
X134337D01*
X155663Y299668D01*
X160995D01*
X140332Y610663D02*
X145663Y615995D01*
X156326D01*
X161658Y610663D01*
Y589337D01*
X156326Y584005D01*
X145663D01*
X140332Y589337D01*
X113674Y584005D02*
Y615995D01*
X129668Y600000D01*
X108342D01*
X534337Y695332D02*
X529005Y700663D01*
Y711326D01*
X534337Y716658D01*
X555663D01*
X560995Y711326D01*
Y700663D01*
X555663Y695332D01*
X560995Y663342D02*
Y684668D01*
X539668Y663342D01*
X534337D01*
X529005Y668673D01*
Y679337D01*
X534337Y684668D01*
X135000Y685663D02*
X140332Y690995D01*
X150995D01*
X156326Y685663D01*
Y664337D01*
X150995Y659005D01*
X140332D01*
X135000Y664337D01*
X124337Y659005D02*
X113674D01*
X119005D01*
Y690995D01*
X124337Y685663D01*
D13*
X436297Y297517D02*
Y392483D01*
X503703Y297517D02*
Y392483D01*
Y497517D02*
Y592483D01*
X436297Y497517D02*
Y592483D01*
X346297Y297517D02*
Y392483D01*
X413703Y297517D02*
Y392483D01*
M02*
