G04*
G04 #@! TF.GenerationSoftware,Altium Limited,Altium Designer,25.1.2 (22)*
G04*
G04 Layer_Color=8421504*
%FSLAX26Y26*%
%MOIN*%
G70*
G04*
G04 #@! TF.SameCoordinates,3C89DFF2-4D07-40C4-B63C-CCDB096C3DA4*
G04*
G04*
G04 #@! TF.FilePolarity,Positive*
G04*
G01*
G75*
%ADD14R,0.037745X0.035911*%
%ADD15R,0.035911X0.033808*%
%ADD16R,0.033808X0.035911*%
%ADD17R,0.035911X0.037745*%
G04:AMPARAMS|DCode=18|XSize=23.622mil|YSize=57.087mil|CornerRadius=2.008mil|HoleSize=0mil|Usage=FLASHONLY|Rotation=90.000|XOffset=0mil|YOffset=0mil|HoleType=Round|Shape=RoundedRectangle|*
%AMROUNDEDRECTD18*
21,1,0.023622,0.053071,0,0,90.0*
21,1,0.019606,0.057087,0,0,90.0*
1,1,0.004016,0.026535,0.009803*
1,1,0.004016,0.026535,-0.009803*
1,1,0.004016,-0.026535,-0.009803*
1,1,0.004016,-0.026535,0.009803*
%
%ADD18ROUNDEDRECTD18*%
D14*
X238611Y430000D02*
D03*
X181389D02*
D03*
X105000Y675000D02*
D03*
X162221D02*
D03*
X106389Y600000D02*
D03*
X163611D02*
D03*
X738611Y315000D02*
D03*
X681389D02*
D03*
X788611Y575000D02*
D03*
X731389D02*
D03*
X738611Y240000D02*
D03*
X681389D02*
D03*
D15*
X70000Y274421D02*
D03*
Y335579D02*
D03*
X240000Y594421D02*
D03*
Y655579D02*
D03*
X70000Y490579D02*
D03*
Y429421D02*
D03*
X620000Y599421D02*
D03*
Y660579D02*
D03*
X610000Y310579D02*
D03*
Y249421D02*
D03*
X470000Y659421D02*
D03*
Y720579D02*
D03*
D16*
X179421Y520000D02*
D03*
X240579D02*
D03*
X165579Y750000D02*
D03*
X104421D02*
D03*
X795579Y390000D02*
D03*
X734421D02*
D03*
X609421D02*
D03*
X670579D02*
D03*
X825579Y500000D02*
D03*
X764421D02*
D03*
X700579D02*
D03*
X639421D02*
D03*
X689421Y650000D02*
D03*
X750579D02*
D03*
D17*
X220000Y276389D02*
D03*
Y333611D02*
D03*
X145000Y276389D02*
D03*
Y333611D02*
D03*
X315000Y171389D02*
D03*
Y228611D02*
D03*
X545000Y661389D02*
D03*
Y718611D02*
D03*
X390000Y171389D02*
D03*
Y228611D02*
D03*
D18*
X532283Y295000D02*
D03*
Y345000D02*
D03*
Y395000D02*
D03*
Y445000D02*
D03*
Y495000D02*
D03*
Y545000D02*
D03*
Y595000D02*
D03*
X317716Y295000D02*
D03*
Y345000D02*
D03*
Y395000D02*
D03*
Y445000D02*
D03*
Y495000D02*
D03*
Y545000D02*
D03*
Y595000D02*
D03*
M02*
