G04*
G04 #@! TF.GenerationSoftware,Altium Limited,Altium Designer,25.1.2 (22)*
G04*
G04 Layer_Physical_Order=1*
G04 Layer_Color=255*
%FSLAX26Y26*%
%MOIN*%
G70*
G04*
G04 #@! TF.SameCoordinates,36FF1957-655E-4FCE-A78B-4FF043CE075B*
G04*
G04*
G04 #@! TF.FilePolarity,Positive*
G04*
G01*
G75*
%ADD10C,0.010000*%
%ADD16R,0.045619X0.039848*%
%ADD17R,0.061268X0.059238*%
%ADD18R,0.097047X0.139370*%
%ADD19R,0.097047X0.041339*%
%ADD20R,0.059238X0.061268*%
%ADD21R,0.039848X0.045619*%
%ADD22R,0.023622X0.061024*%
%ADD23R,0.039848X0.041682*%
G04:AMPARAMS|DCode=24|XSize=85.4mil|YSize=22.919mil|CornerRadius=11.459mil|HoleSize=0mil|Usage=FLASHONLY|Rotation=90.000|XOffset=0mil|YOffset=0mil|HoleType=Round|Shape=RoundedRectangle|*
%AMROUNDEDRECTD24*
21,1,0.085400,0.000000,0,0,90.0*
21,1,0.062481,0.022919,0,0,90.0*
1,1,0.022919,0.000000,0.031241*
1,1,0.022919,0.000000,-0.031241*
1,1,0.022919,0.000000,-0.031241*
1,1,0.022919,0.000000,0.031241*
%
%ADD24ROUNDEDRECTD24*%
%ADD25R,0.022919X0.085400*%
%ADD26R,0.078740X0.078740*%
%ADD27R,0.066929X0.041496*%
%ADD28R,0.062008X0.026457*%
%ADD29R,0.114173X0.094488*%
%ADD30R,0.100394X0.137795*%
%ADD47C,0.055118*%
%ADD48R,0.055118X0.055118*%
%ADD49C,0.020000*%
%ADD50C,0.060000*%
%ADD51C,0.015000*%
%ADD52R,0.021654X0.025591*%
%ADD53R,0.192913X0.116142*%
%AMCUSTOMSHAPE54*
4,1,122,0.068451,-0.037402,-0.004548,-0.037402,-0.006301,-0.037360,-0.008050,-0.037237,-0.009793,-0.037032,-0.011523,-0.036746,-0.013238,-0.036378,-0.014932,-0.035931,-0.016605,-0.035405,-0.018252,-0.034801,-0.019867,-0.034120,-0.021451,-0.033365,-0.022995,-0.032536,-0.024500,-0.031635,-0.025962,-0.030665,-0.027375,-0.029628,-0.028738,-0.028526,-0.030049,-0.027360,-0.031303,-0.026135,-0.032499,-0.024852,-0.033633,-0.023515,-0.034703,-0.022126,-0.035708,-0.020688,-0.036642,-0.019205,-0.037508,-0.017679,-0.038300,-0.016115,-0.039019,-0.012993,-0.105843,-0.012993,-0.105843,0.012991,-0.039019,0.012991,-0.038300,0.016115,-0.037508,0.017679,-0.036642,0.019205,-0.035708,0.020688,-0.034703,0.022126,-0.033633,0.023515,-0.032499,0.024852,-0.031303,0.026135,-0.030049,0.027360,-0.028738,0.028526,-0.027375,0.029628,-0.025962,0.030665,-0.024500,0.031635,-0.022995,0.032536,-0.021451,0.033365,-0.019867,0.034120,-0.018252,0.034801,-0.016605,0.035405,-0.014932,0.035931,-0.013238,0.036378,-0.011523,0.036746,-0.009793,0.037032,-0.008050,0.037237,-0.006301,0.037360,-0.004548,0.037402,0.068451,0.037402,0.070204,0.037360,0.071954,0.037237,0.073695,0.037032,0.075425,0.036746,0.077141,0.036378,0.078835,0.035931,0.080508,0.035405,0.082154,0.034801,0.083770,0.034120,0.085353,0.033365,0.086898,0.032536,0.088403,0.031635,0.089865,0.030665,0.091278,0.029628,0.092641,0.028526,0.093953,0.027360,0.095207,0.026135,0.096403,0.024852,0.097537,0.023515,0.098606,0.022126,0.099611,0.020688,0.100546,0.019205,0.101410,0.017679,0.102204,0.016115,0.102921,0.014515,0.103564,0.012884,0.104129,0.011224,0.104617,0.009539,0.105023,0.007833,0.105350,0.006111,0.105597,0.004374,0.105760,0.002628,0.105843,0.000877,0.105843,-0.000877,0.105760,-0.002628,0.105597,-0.004374,0.105350,-0.006111,0.105023,-0.007833,0.104617,-0.009539,0.104129,-0.011224,0.103564,-0.012884,0.102921,-0.014515,0.102204,-0.016115,0.101410,-0.017679,0.100546,-0.019205,0.099611,-0.020688,0.098606,-0.022126,0.097537,-0.023515,0.096403,-0.024852,0.095207,-0.026135,0.093953,-0.027360,0.092641,-0.028526,0.091278,-0.029628,0.089865,-0.030665,0.088403,-0.031635,0.086898,-0.032536,0.085353,-0.033365,0.083770,-0.034120,0.082154,-0.034801,0.080508,-0.035405,0.078835,-0.035931,0.077141,-0.036378,0.075425,-0.036746,0.073695,-0.037032,0.071954,-0.037237,0.070204,-0.037360,0.068451,-0.037402,0.0*%
%ADD54CUSTOMSHAPE54*%

%ADD55C,0.059843*%
G04:AMPARAMS|DCode=56|XSize=59.843mil|YSize=59.843mil|CornerRadius=14.961mil|HoleSize=0mil|Usage=FLASHONLY|Rotation=90.000|XOffset=0mil|YOffset=0mil|HoleType=Round|Shape=RoundedRectangle|*
%AMROUNDEDRECTD56*
21,1,0.059843,0.029921,0,0,90.0*
21,1,0.029921,0.059843,0,0,90.0*
1,1,0.029921,0.014961,0.014961*
1,1,0.029921,0.014961,-0.014961*
1,1,0.029921,-0.014961,-0.014961*
1,1,0.029921,-0.014961,0.014961*
%
%ADD56ROUNDEDRECTD56*%
%ADD57C,0.150000*%
%ADD58C,0.250000*%
%ADD59C,0.019685*%
%ADD60C,0.062992*%
G04:AMPARAMS|DCode=61|XSize=62.992mil|YSize=62.992mil|CornerRadius=15.748mil|HoleSize=0mil|Usage=FLASHONLY|Rotation=180.000|XOffset=0mil|YOffset=0mil|HoleType=Round|Shape=RoundedRectangle|*
%AMROUNDEDRECTD61*
21,1,0.062992,0.031496,0,0,180.0*
21,1,0.031496,0.062992,0,0,180.0*
1,1,0.031496,-0.015748,0.015748*
1,1,0.031496,0.015748,0.015748*
1,1,0.031496,0.015748,-0.015748*
1,1,0.031496,-0.015748,-0.015748*
%
%ADD61ROUNDEDRECTD61*%
%ADD62C,0.067913*%
%ADD63R,0.067913X0.067913*%
%ADD64C,0.051496*%
%ADD65C,0.024000*%
G36*
X271079Y3029900D02*
X258189Y3017210D01*
Y3042790D01*
X271079Y3029900D01*
D02*
G37*
G36*
X282500Y3017200D02*
X268400D01*
X281200Y3030000D01*
X268404Y3042796D01*
X282500D01*
Y3017200D01*
D02*
G37*
G36*
X306529Y2111350D02*
X293639Y2098660D01*
Y2124240D01*
X306529Y2111350D01*
D02*
G37*
G36*
X317950Y2098650D02*
X303850D01*
X316650Y2111450D01*
X303854Y2124246D01*
X317950D01*
Y2098650D01*
D02*
G37*
G36*
X1685000Y1672216D02*
Y1661887D01*
X1684369D01*
Y1580620D01*
X1685000D01*
X1685000Y1501777D01*
Y1487288D01*
Y1380000D01*
X1685000Y1380000D01*
X1685000Y1377016D01*
X1682716Y1371503D01*
X1678497Y1367284D01*
X1672984Y1365000D01*
X1670000Y1365000D01*
X1525000D01*
X1525000Y1365000D01*
X1522073Y1364712D01*
X1516666Y1362472D01*
X1512528Y1358333D01*
X1510288Y1352926D01*
X1510000Y1350000D01*
Y1345000D01*
X1510000Y1345000D01*
X1510000Y1342016D01*
X1507716Y1336503D01*
X1503497Y1332284D01*
X1497984Y1330000D01*
X1495000Y1330000D01*
X1389157D01*
Y1330408D01*
X1307890D01*
X1307890Y1330409D01*
Y1330409D01*
X1304094Y1331210D01*
X1301503Y1332284D01*
X1297284Y1336503D01*
X1295000Y1342016D01*
X1295000Y1416290D01*
X1295000Y1419999D01*
X1295000Y1419999D01*
X1295000Y1419999D01*
X1294999Y1424972D01*
X1298805Y1434161D01*
X1305838Y1441194D01*
X1315026Y1444999D01*
X1319999Y1444999D01*
X1451298Y1445000D01*
X1455000Y1445000D01*
X1455000Y1445000D01*
X1455000Y1445000D01*
X1462841Y1445385D01*
X1478222Y1448445D01*
X1492711Y1454446D01*
X1505751Y1463159D01*
X1516840Y1474248D01*
X1525553Y1487288D01*
X1531554Y1501777D01*
X1534614Y1517158D01*
X1534999Y1525000D01*
X1535000Y1596291D01*
X1535000Y1599999D01*
X1535000Y1599999D01*
X1535000Y1600000D01*
X1535000Y1600000D01*
X1535000Y1607386D01*
X1537882Y1621876D01*
X1543535Y1635525D01*
X1551743Y1647809D01*
X1562190Y1658256D01*
X1574474Y1666464D01*
X1588123Y1672117D01*
X1602613Y1674999D01*
X1610000Y1674999D01*
X1682216Y1675000D01*
X1685000Y1672216D01*
D02*
G37*
G36*
X1504040Y1317907D02*
X1507907Y1314040D01*
X1510000Y1308988D01*
X1510000Y1306253D01*
X1510000D01*
X1510288Y1303327D01*
X1512528Y1297920D01*
X1516666Y1293781D01*
X1522073Y1291542D01*
X1525000Y1291254D01*
X1663746Y1291253D01*
X1665985Y1291253D01*
X1670121Y1289540D01*
X1673287Y1286374D01*
X1674433Y1283606D01*
X1675000Y1280001D01*
Y1280000D01*
X1675000D01*
X1675000Y1280000D01*
X1675000Y1216253D01*
X1675000Y1213270D01*
X1672716Y1207756D01*
X1668497Y1203537D01*
X1663797Y1201591D01*
X1660000Y1201254D01*
X1323746Y1201254D01*
X1320915D01*
X1315361Y1202358D01*
X1310130Y1204525D01*
X1305422Y1207671D01*
X1301418Y1211675D01*
X1298272Y1216383D01*
X1296105Y1221615D01*
X1295000Y1227169D01*
Y1230000D01*
X1295000D01*
Y1307945D01*
X1297254Y1313386D01*
X1301418Y1317550D01*
X1306859Y1319804D01*
X1309804D01*
X1388738Y1319888D01*
X1389157Y1319804D01*
X1495000D01*
X1497984Y1319804D01*
X1498968Y1320000D01*
X1498988D01*
X1504040Y1317907D01*
D02*
G37*
G36*
X1748746Y1676253D02*
X1748746Y1676253D01*
X1748746Y1676253D01*
X1748748D01*
X1752581Y1676005D01*
X1756404Y1675244D01*
X1761182Y1673265D01*
X1765482Y1670392D01*
X1769139Y1666736D01*
X1772012Y1662436D01*
X1773991Y1657658D01*
X1775000Y1652586D01*
X1775000Y1650000D01*
X1775000Y1531421D01*
X1775482Y1521619D01*
X1779306Y1502393D01*
X1786808Y1484282D01*
X1797699Y1467982D01*
X1804289Y1460711D01*
X1824233Y1440767D01*
X1824233Y1440766D01*
X1824233Y1440766D01*
X1824233Y1440766D01*
X1831197Y1433802D01*
X1842141Y1417424D01*
X1849679Y1399225D01*
X1853522Y1379905D01*
X1853522Y1370056D01*
X1853522Y1253522D01*
X1853522Y1253522D01*
X1853522Y1248374D01*
X1851513Y1238276D01*
X1847573Y1228764D01*
X1841853Y1220203D01*
X1834573Y1212922D01*
X1826012Y1207202D01*
X1816500Y1203262D01*
X1806401Y1201253D01*
X1801253Y1201254D01*
X1700000D01*
X1697717Y1201253D01*
X1693499Y1203000D01*
X1690270Y1206229D01*
X1688523Y1210447D01*
X1688524Y1212730D01*
X1688524Y1290000D01*
X1688524D01*
X1688523Y1290000D01*
X1688523Y1290002D01*
X1688211Y1293171D01*
X1688029Y1293611D01*
X1685784Y1299030D01*
X1681300Y1303514D01*
X1675441Y1305941D01*
X1672270Y1306253D01*
X1523524Y1306254D01*
Y1351254D01*
X1675000D01*
X1678614Y1351609D01*
X1685291Y1354375D01*
X1690402Y1359486D01*
X1693168Y1366163D01*
X1693523Y1369777D01*
Y1370951D01*
X1694420Y1373115D01*
X1695196Y1377016D01*
X1695196Y1379999D01*
X1695196Y1380000D01*
Y1487288D01*
Y1501777D01*
X1695196Y1580620D01*
X1694564Y1583794D01*
Y1658713D01*
X1695196Y1661887D01*
Y1672216D01*
X1695176Y1672316D01*
X1698407Y1676254D01*
X1748746Y1676253D01*
D02*
G37*
G36*
X306079Y1144900D02*
X293189Y1132210D01*
Y1157790D01*
X306079Y1144900D01*
D02*
G37*
G36*
X317500Y1132200D02*
X303400D01*
X316200Y1145000D01*
X303404Y1157796D01*
X317500D01*
Y1132200D01*
D02*
G37*
G36*
X1790000Y1020000D02*
X1792984Y1020000D01*
X1798497Y1017716D01*
X1802716Y1013497D01*
X1804733Y1008628D01*
X1805000Y1005002D01*
Y1005000D01*
X1805000D01*
X1805000Y1005000D01*
X1805000Y885000D01*
X1805000Y882016D01*
X1802716Y876503D01*
X1798497Y872284D01*
X1792984Y870000D01*
X1790000D01*
X1290000Y870000D01*
X1287016D01*
X1281503Y872284D01*
X1277284Y876503D01*
X1275000Y882016D01*
Y885000D01*
X1275000D01*
Y1005000D01*
X1275000Y1007984D01*
X1277284Y1013497D01*
X1281503Y1017716D01*
X1287016Y1020000D01*
X1290000Y1020000D01*
X1290000Y1020000D01*
X1790000Y1020000D01*
D02*
G37*
G36*
X2053498Y1017718D02*
X2057718Y1013498D01*
X2059734Y1008627D01*
X2059999Y1005001D01*
Y1005000D01*
X2059999D01*
X2059999Y1004999D01*
X2059999Y445000D01*
X2059999Y435151D01*
X2056157Y415831D01*
X2048618Y397632D01*
X2037675Y381253D01*
X2023746Y367324D01*
X2007367Y356381D01*
X1989168Y348843D01*
X1969848Y345000D01*
X1959999Y345000D01*
X1849999D01*
X1845567Y345000D01*
X1836873Y346729D01*
X1828684Y350121D01*
X1821313Y355046D01*
X1815046Y361313D01*
X1810121Y368684D01*
X1806729Y376873D01*
X1805000Y385567D01*
X1805000Y389999D01*
Y425000D01*
X1804520Y429877D01*
X1800787Y438889D01*
X1793889Y445786D01*
X1784877Y449519D01*
X1780000Y450000D01*
X1774792Y449999D01*
X1769478Y451056D01*
X1764474Y453129D01*
X1759970Y456139D01*
X1756139Y459969D01*
X1753130Y464473D01*
X1751057Y469478D01*
X1750196Y473806D01*
Y526929D01*
X1801457D01*
Y527000D01*
X1917000D01*
X1920512Y527346D01*
X1927000Y530034D01*
X1931966Y535000D01*
X1934653Y541488D01*
X1934999Y545000D01*
X1934999Y545000D01*
X1935000Y1005000D01*
X1934999Y1007984D01*
X1937283Y1013497D01*
X1941502Y1017716D01*
X1947016Y1020000D01*
X1949999Y1019999D01*
X1949999Y1019999D01*
X2045000Y1020000D01*
X2047984Y1020001D01*
X2053498Y1017718D01*
D02*
G37*
G36*
X820000Y874999D02*
X820000Y874999D01*
X820007D01*
X823653Y874722D01*
X828497Y872716D01*
X832717Y868497D01*
X835000Y862984D01*
X835000Y860000D01*
X835000Y790000D01*
X835384Y786098D01*
X838370Y778888D01*
X843888Y773370D01*
X851098Y770384D01*
X855000Y770000D01*
X1005000Y770000D01*
Y725000D01*
X855000D01*
X851098Y724616D01*
X843889Y721629D01*
X838371Y716111D01*
X835384Y708902D01*
X835000Y705000D01*
X835000Y415000D01*
X835000Y412016D01*
X832716Y406503D01*
X828497Y402284D01*
X822984Y400000D01*
X774997D01*
X765148Y400000D01*
X745829Y403843D01*
X727630Y411381D01*
X711252Y422325D01*
X697323Y436254D01*
X686380Y452632D01*
X678842Y470831D01*
X675000Y490151D01*
X675000Y500000D01*
X675000Y796291D01*
X675000Y800000D01*
X675000Y800000D01*
X675000Y800000D01*
X675000Y807386D01*
X677882Y821876D01*
X683535Y835526D01*
X691743Y847810D01*
X702190Y858256D01*
X714474Y866464D01*
X728123Y872118D01*
X742613Y875000D01*
X750000Y875000D01*
X819999Y875000D01*
X820000Y874999D01*
D02*
G37*
G36*
X1219163Y871194D02*
X1226195Y864162D01*
X1230001Y854972D01*
X1229999Y850000D01*
X1229999D01*
X1230000Y849999D01*
X1229999Y774999D01*
X1230000Y770026D01*
X1226195Y760836D01*
X1219162Y753804D01*
X1209972Y749999D01*
X1204999Y750000D01*
X1204999Y750000D01*
X1204999Y750000D01*
X1114261Y750000D01*
X1038524Y750000D01*
X1035540Y750000D01*
X1030027Y752284D01*
X1025807Y756503D01*
X1023523Y762016D01*
X1023524Y765000D01*
X1023523Y771476D01*
X1023264Y774115D01*
X1021244Y778990D01*
X1017513Y782721D01*
X1013657Y784318D01*
X1012638Y784740D01*
X1010000Y785000D01*
X1010000Y785000D01*
X865000D01*
X862016Y785000D01*
X856503Y787284D01*
X852283Y791503D01*
X850000Y797016D01*
X850000Y800000D01*
Y860000D01*
X850000Y862983D01*
X852283Y868496D01*
X856503Y872716D01*
X862016Y875000D01*
X864999Y874999D01*
X864999Y875000D01*
X940000Y875000D01*
X1030000D01*
X1205001Y874999D01*
X1209974Y875000D01*
X1219163Y871194D01*
D02*
G37*
G36*
X1309999Y774999D02*
X1434999Y775000D01*
X1435000Y774999D01*
X1435000Y774999D01*
X1435011D01*
X1438644Y774961D01*
X1445210Y773656D01*
X1451580Y771019D01*
X1457313Y767188D01*
X1462188Y762313D01*
X1466018Y756580D01*
X1468656Y750210D01*
X1470000Y743447D01*
X1469999Y740000D01*
X1470000Y620000D01*
X1470288Y617073D01*
X1472527Y611665D01*
X1476666Y607527D01*
X1482073Y605287D01*
X1485000Y605000D01*
X1580000Y605000D01*
Y653000D01*
X1918000D01*
X1918000Y540512D01*
X1914124Y537196D01*
X1801457D01*
X1801098Y537125D01*
X1750196D01*
X1749567Y537000D01*
X1740629D01*
X1740000Y537125D01*
X1700000D01*
X1699371Y537000D01*
X1690000D01*
Y527914D01*
X1689804Y526929D01*
X1689803Y139584D01*
X1688269Y131873D01*
X1684877Y123684D01*
X1679953Y116314D01*
X1673685Y110046D01*
X1666315Y105121D01*
X1658126Y101729D01*
X1649432Y100000D01*
X1645000Y100000D01*
X1524998Y100000D01*
X1517611Y99999D01*
X1503121Y102881D01*
X1489471Y108534D01*
X1477187Y116742D01*
X1466741Y127189D01*
X1458533Y139473D01*
X1452880Y153123D01*
X1449999Y167613D01*
X1450000Y175000D01*
X1449999Y500000D01*
X1449999D01*
X1449999Y500000D01*
X1449565Y508834D01*
X1446114Y526161D01*
X1439344Y542480D01*
X1429517Y557162D01*
X1417010Y569641D01*
X1402307Y579436D01*
X1385973Y586171D01*
X1368639Y589584D01*
X1359804Y589999D01*
X1110000Y590000D01*
X1101179Y589566D01*
X1083875Y586124D01*
X1067575Y579373D01*
X1052905Y569571D01*
X1040430Y557095D01*
X1030628Y542426D01*
X1023876Y526126D01*
X1020434Y508822D01*
X1020001Y500001D01*
X1020001Y500001D01*
X1020001Y490151D01*
X1016158Y470832D01*
X1008620Y452633D01*
X997676Y436254D01*
X983747Y422325D01*
X967369Y411381D01*
X949170Y403843D01*
X929850Y400000D01*
X920001D01*
X848523Y400000D01*
Y695000D01*
X848524Y695000D01*
X848860Y698798D01*
X850806Y703497D01*
X855025Y707717D01*
X860539Y710000D01*
X863523Y709999D01*
X943536Y710000D01*
X1008553Y710000D01*
X1011480Y710288D01*
X1012240Y710603D01*
X1016887Y712527D01*
X1021026Y716666D01*
X1023265Y722074D01*
X1023553Y725000D01*
X1023552Y727984D01*
X1025835Y733497D01*
X1030055Y737717D01*
X1030055D01*
X1030055Y737717D01*
X1030055Y737717D01*
X1035240Y739864D01*
X1035540Y739804D01*
X1038524Y739804D01*
X1114261Y739804D01*
X1204997Y739804D01*
X1209970Y739803D01*
X1209970Y739803D01*
X1209971Y739803D01*
X1210961Y739999D01*
X1280000Y740000D01*
X1282927Y740287D01*
X1283688Y740602D01*
X1288334Y742526D01*
X1292473Y746665D01*
X1294418Y751362D01*
X1294712Y752073D01*
X1295000Y754999D01*
X1295000Y755000D01*
X1295000Y760000D01*
X1295336Y763798D01*
X1297282Y768497D01*
X1301502Y772717D01*
X1307016Y775000D01*
X1309999Y774999D01*
D02*
G37*
G36*
X381079Y464900D02*
X368189Y452210D01*
Y477790D01*
X381079Y464900D01*
D02*
G37*
G36*
X392500Y452200D02*
X378400D01*
X391200Y465000D01*
X378404Y477796D01*
X392500D01*
Y452200D01*
D02*
G37*
G36*
X85174Y481450D02*
X86559Y474488D01*
X89276Y467929D01*
X93220Y462026D01*
X95606Y459393D01*
X100000Y455000D01*
X100000Y455000D01*
X101189Y453811D01*
X103057Y451015D01*
X104344Y447908D01*
X105000Y444610D01*
Y443972D01*
X104803Y442981D01*
X104803Y442981D01*
X104803Y442980D01*
X104804Y439996D01*
X104804Y367343D01*
X104804Y367343D01*
X104804Y367342D01*
X105000Y366357D01*
X105000Y366356D01*
X105000D01*
X105000Y330000D01*
X40000D01*
X37016Y330000D01*
X31503Y332284D01*
X27283Y336503D01*
X25000Y342016D01*
X25000Y345000D01*
X25000Y485000D01*
X85000D01*
X85174Y481450D01*
D02*
G37*
G36*
X129999Y454998D02*
X129999Y454999D01*
X143790D01*
X148833Y454999D01*
X158727Y453031D01*
X168046Y449170D01*
X176433Y443566D01*
X180000Y440000D01*
X180000Y440000D01*
X180000Y440000D01*
X199040Y420960D01*
X206269Y413730D01*
X219242Y397923D01*
X230603Y380920D01*
X240243Y362885D01*
X248069Y343992D01*
X254005Y324423D01*
X257994Y304367D01*
X259998Y284016D01*
X259998Y273791D01*
X259998Y273791D01*
X259998Y273791D01*
X259998Y244850D01*
X259998Y235972D01*
X258258Y218302D01*
X254795Y200888D01*
X249641Y183898D01*
X242846Y167494D01*
X234476Y151836D01*
X224612Y137073D01*
X213348Y123348D01*
X207071Y117071D01*
X201823Y111823D01*
X189481Y103576D01*
X175767Y97896D01*
X161208Y95000D01*
X153787Y95000D01*
X115245D01*
X115196Y95500D01*
Y201772D01*
X116004D01*
Y248228D01*
X114587D01*
X112473Y253334D01*
X108334Y257473D01*
X103606Y259430D01*
X102926Y259712D01*
X100001Y259999D01*
X100000Y260000D01*
X100000Y260000D01*
X100000Y260000D01*
X35000Y260000D01*
X32016Y260000D01*
X26503Y262283D01*
X22283Y266503D01*
X20391Y271070D01*
Y298931D01*
X22282Y303498D01*
X26502Y307718D01*
X32016Y310001D01*
X35000Y310000D01*
X35000Y310000D01*
X100000Y310000D01*
X102926Y310287D01*
X108334Y312526D01*
X112473Y316665D01*
X113805Y319882D01*
X116004D01*
Y366339D01*
X116004D01*
X115000Y367343D01*
X115000Y440000D01*
X114999Y442983D01*
X117282Y448497D01*
X121501Y452717D01*
X127015Y455000D01*
X129999Y454998D01*
D02*
G37*
G36*
X1740000Y455006D02*
X1740288Y452078D01*
X1742528Y446668D01*
X1746668Y442527D01*
X1752078Y440287D01*
X1755006Y439999D01*
Y439999D01*
X1757960Y440000D01*
X1763756Y438849D01*
X1769215Y436589D01*
X1774129Y433306D01*
X1778307Y429128D01*
X1781589Y424215D01*
X1783849Y418755D01*
X1785000Y412960D01*
X1784999Y410005D01*
X1785000Y392500D01*
Y369289D01*
X1785237Y364457D01*
X1787121Y354980D01*
X1790818Y346053D01*
X1796186Y338019D01*
X1803018Y331186D01*
X1811053Y325818D01*
X1819980Y322121D01*
X1829457Y320237D01*
X1834288Y320000D01*
X1969849D01*
X1989168Y316157D01*
X2007367Y308619D01*
X2023746Y297675D01*
X2037675Y283746D01*
X2048618Y267368D01*
X2056157Y249169D01*
X2059999Y229849D01*
Y220000D01*
X2060000Y124999D01*
X2059999Y124999D01*
X2060000Y118117D01*
X2058204Y104471D01*
X2054642Y91175D01*
X2049375Y78459D01*
X2042493Y66538D01*
X2034114Y55618D01*
X2024381Y45885D01*
X2013461Y37506D01*
X2001541Y30624D01*
X1988824Y25357D01*
X1975528Y21796D01*
X1961882Y20000D01*
X1954999Y20000D01*
X94126D01*
X76779Y23451D01*
X62291Y29452D01*
X49252Y38164D01*
X38164Y49252D01*
X29452Y62291D01*
X23451Y76779D01*
X20000Y94126D01*
Y98033D01*
X20391Y100000D01*
Y228933D01*
X22281Y233498D01*
X26501Y237718D01*
X32015Y240000D01*
X34999Y239999D01*
X102216Y240000D01*
X105000Y237216D01*
Y95000D01*
X105287Y92073D01*
X107526Y86666D01*
X111665Y82527D01*
X117073Y80288D01*
X119999Y80000D01*
X1019999Y80005D01*
X1390000Y80000D01*
X1670000D01*
X1672940Y80144D01*
X1678708Y81292D01*
X1684141Y83542D01*
X1689031Y86809D01*
X1693189Y90968D01*
X1696457Y95858D01*
X1698707Y101291D01*
X1699854Y107058D01*
X1699999Y109999D01*
X1700000Y526929D01*
X1740000D01*
Y455006D01*
D02*
G37*
%LPC*%
G36*
X1641811Y529213D02*
X1598189D01*
Y448189D01*
X1641811D01*
Y529213D01*
D02*
G37*
%LPD*%
D10*
X357362Y522791D02*
G03*
X328073Y593502I-100000J0D01*
G01*
X400000Y425000D02*
G03*
X401654Y428992I-3992J3992D01*
G01*
X276651Y3113226D02*
G03*
X247362Y3042516I70711J-70711D01*
G01*
X325000Y1276575D02*
G03*
X282362Y1173638I102937J-102937D01*
G01*
X325000Y2241575D02*
G03*
X282812Y2139724I101850J-101850D01*
G01*
X357362Y465000D02*
Y522791D01*
X325000Y596575D02*
X328073Y593502D01*
X401654Y428992D02*
Y465000D01*
X291654Y3030000D02*
X330000D01*
X291654Y3030000D02*
X291654Y3030000D01*
X247362D02*
Y3042516D01*
X276651Y3113226D02*
X325000Y3161575D01*
X282362Y1173638D02*
X282362Y1173593D01*
Y1145000D02*
Y1173593D01*
X282812Y2111450D02*
Y2139679D01*
X282812Y2139724D02*
X282812Y2139679D01*
X365000Y1145000D02*
X365000Y1145000D01*
X326654Y1145000D02*
X365000D01*
X365450Y2111450D02*
X365450Y2111450D01*
X327104Y2111450D02*
X365450D01*
D16*
X142548Y130000D02*
D03*
X77453D02*
D03*
X807452Y560000D02*
D03*
X872548D02*
D03*
X1721071Y1516254D02*
D03*
X1655976D02*
D03*
X142548Y430000D02*
D03*
X77453D02*
D03*
X1957547Y700000D02*
D03*
X1892453D02*
D03*
X1662453Y3280000D02*
D03*
X1727547D02*
D03*
X1662453Y3370000D02*
D03*
X1727547D02*
D03*
D17*
X1180000Y780464D02*
D03*
Y709536D02*
D03*
X1348524Y1290790D02*
D03*
Y1361717D02*
D03*
D18*
X728524Y746254D02*
D03*
X1800000Y1330000D02*
D03*
D19*
X953524Y836804D02*
D03*
Y746254D02*
D03*
Y655702D02*
D03*
X1575000Y1239449D02*
D03*
Y1330000D02*
D03*
Y1420551D02*
D03*
D20*
X804536Y455000D02*
D03*
X875464D02*
D03*
X1659536Y385000D02*
D03*
X1730464D02*
D03*
X1659536Y275000D02*
D03*
X1730464D02*
D03*
X1723987Y1621254D02*
D03*
X1653060D02*
D03*
D21*
X1070000Y777548D02*
D03*
Y712452D02*
D03*
X1458524Y1293706D02*
D03*
Y1358801D02*
D03*
D22*
X1770000Y701299D02*
D03*
X1720000D02*
D03*
X1670000D02*
D03*
X1620000D02*
D03*
Y488701D02*
D03*
X1670000D02*
D03*
X1720000D02*
D03*
X1770000D02*
D03*
D23*
X1530000Y3595484D02*
D03*
Y3664516D02*
D03*
Y570484D02*
D03*
Y639516D02*
D03*
Y730484D02*
D03*
Y799516D02*
D03*
D24*
X1620000Y3661215D02*
D03*
X1670000D02*
D03*
X1720000D02*
D03*
X1770000D02*
D03*
Y3475104D02*
D03*
X1720000D02*
D03*
X1670000D02*
D03*
D25*
X1620000D02*
D03*
D26*
X1873882Y592640D02*
D03*
Y419406D02*
D03*
D27*
X1955000Y1223071D02*
D03*
Y1366929D02*
D03*
D28*
X75000Y343110D02*
D03*
Y225000D02*
D03*
D29*
X1380000Y945079D02*
D03*
Y704921D02*
D03*
D30*
X1746968Y945000D02*
D03*
X1993032D02*
D03*
D47*
X325000Y2241575D02*
D03*
Y2340000D02*
D03*
Y2438425D02*
D03*
Y1276575D02*
D03*
Y1473425D02*
D03*
Y1375000D02*
D03*
Y3358425D02*
D03*
Y3260000D02*
D03*
Y3161575D02*
D03*
Y596575D02*
D03*
Y695000D02*
D03*
Y793425D02*
D03*
D48*
Y2536850D02*
D03*
Y1571850D02*
D03*
Y3456850D02*
D03*
Y891850D02*
D03*
D49*
X891329Y1166329D02*
G03*
X980000Y1380290I-213963J214026D01*
G01*
X1075240Y1610240D02*
G03*
X980000Y1380290I229821J-229884D01*
G01*
X779375Y1775000D02*
G03*
X1395000Y2030000I0J870625D01*
G01*
X1395000Y2730000D02*
G03*
X1370858Y2740000I-24142J-24142D01*
G01*
X1362674Y3362325D02*
G03*
X535002Y3705000I-827676J-828223D01*
G01*
X433640Y3305000D02*
G03*
X325000Y3260000I0J-153640D01*
G01*
X445000Y533678D02*
G03*
X415711Y604289I-100000J-100D01*
G01*
X445000Y533678D02*
G03*
X468743Y476256I81065J-100D01*
G01*
X1530000Y799516D02*
G03*
X1468476Y825000I-61524J-61524D01*
G01*
X1305000Y900000D02*
G03*
X1380000Y825000I75000J0D01*
G01*
X1620000Y3661215D02*
G03*
X1612030Y3664516I-7970J-7970D01*
G01*
X1995000Y3730000D02*
G03*
X1920783Y3700783I-3571J-99799D01*
G01*
X1729645Y3565000D02*
G03*
X1824174Y3604174I0J133640D01*
G01*
X1680000Y3565000D02*
G03*
X1620000Y3505000I0J-60000D01*
G01*
X1995000Y3630000D02*
G03*
X1875293Y3580397I0J-169247D01*
G01*
X1727795Y3270076D02*
G03*
X1785917Y3139083I199039J9924D01*
G01*
X1875000Y1540355D02*
G03*
X1940907Y1381022I225551J-0D01*
G01*
X1495000Y3330000D02*
G03*
X1572782Y3142218I265563J-0D01*
G01*
X1875000Y2544846D02*
G03*
X1666256Y3048744I-712696J-54D01*
G01*
X1724389Y1642674D02*
G03*
X1642071Y1725000I-82318J8D01*
G01*
X1575000D02*
G03*
X1475000Y1625000I0J-100000D01*
G01*
X1395000Y1530000D02*
G03*
X1475000Y1610000I0J80000D01*
G01*
X1781434Y700000D02*
G03*
X1770000Y688566I0J-11434D01*
G01*
X1607371Y701195D02*
G03*
X1536660Y730484I-70711J-70711D01*
G01*
X1075240Y1610240D02*
X1395000Y1930000D01*
X535000Y810000D02*
X891329Y1166329D01*
X779312Y1775000D02*
X779375Y1775000D01*
X535000Y1775000D02*
X779312D01*
X535000Y2740000D02*
X1370858D01*
X1362674Y3362325D02*
X1395000Y3330000D01*
X535000Y3705000D02*
X535002Y3705000D01*
X433640Y3305000D02*
X535000D01*
X468743Y476256D02*
X468805Y476195D01*
X535000Y410000D01*
X325000Y695000D02*
X415711Y604289D01*
X1380000Y825000D02*
X1468476D01*
X1530000Y3530000D02*
Y3595484D01*
Y3664516D02*
X1612030D01*
X1824174Y3604174D02*
X1920783Y3700783D01*
X1680000Y3565000D02*
X1729581D01*
X1729645Y3565000D01*
X1620000Y3475104D02*
Y3505000D01*
X1770000Y3475104D02*
X1875293Y3580397D01*
X1660000Y3215000D02*
Y3280000D01*
X1662453D01*
Y3370000D01*
X1670000D02*
Y3475104D01*
X1662453Y3370000D02*
X1670000D01*
X1727547Y3280000D02*
X1727795Y3270076D01*
X1785990Y3139010D02*
X1995000Y2930000D01*
X1785917Y3139083D02*
X1785990Y3139010D01*
X1727547Y3280000D02*
Y3370000D01*
X1720558Y3376989D02*
Y3474546D01*
X1720000Y3475104D02*
X1720558Y3474546D01*
Y3376989D02*
X1727547Y3370000D01*
X1944252Y1377677D02*
X1955000Y1366929D01*
X1875000Y1540355D02*
X1875000Y1540445D01*
Y2544729D01*
X1940907Y1381022D02*
X1944252Y1377677D01*
X1572782Y3142218D02*
X1572835Y3142165D01*
X1666194Y3048806D01*
X1666255Y3048744D01*
X1875000Y2544846D02*
X1875000Y2544729D01*
X1955000Y1175000D02*
Y1223071D01*
X1575000Y1725000D02*
X1642071D01*
X1723987Y1621254D02*
X1724385Y1641887D01*
X1724389Y1642674D01*
X1475000Y1610000D02*
Y1625000D01*
X1781434Y700000D02*
X1892453D01*
X1607371Y701195D02*
X1620000Y688566D01*
X1530000Y730484D02*
X1536660D01*
X1530000Y639516D02*
Y730484D01*
X325000Y2340000D02*
X535000D01*
X325000Y1375000D02*
X535000D01*
D50*
X535000Y310000D02*
G03*
X747596Y398060I0J300656D01*
G01*
X190000Y716127D02*
G03*
X321665Y398334I449351J-0D01*
G01*
D02*
G03*
X535000Y310000I213334J213443D01*
G01*
X195745Y958962D02*
G03*
X190000Y920000I129255J-38962D01*
G01*
X325000Y1055000D02*
G03*
X195745Y958962I0J-135000D01*
G01*
X305651Y1870651D02*
G03*
X190000Y1591789I279055J-279143D01*
G01*
X365000Y1055000D02*
G03*
X535000Y1225000I0J170000D01*
G01*
X435970Y2000970D02*
G03*
X535000Y2240000I-238960J239030D01*
G01*
X288579Y2813579D02*
G03*
X190000Y2575649I237843J-237930D01*
G01*
X432445Y2957445D02*
G03*
X535000Y3205000I-247506J247554D01*
G01*
X1275000Y945079D02*
G03*
X1175000Y845079I0J-100000D01*
G01*
X1348524Y976555D02*
G03*
X1380000Y945079I31477J0D01*
G01*
X325000Y3456850D02*
G03*
X55000Y3186850I0J-270000D01*
G01*
X55000Y835000D02*
Y2470000D01*
X747596Y398060D02*
X804536Y455000D01*
X190000Y716237D02*
Y920000D01*
Y958962D02*
Y1591507D01*
X190000Y716127D02*
X190000Y716237D01*
X190000Y1591789D02*
Y2565037D01*
X190000Y1591507D02*
X190000Y1591789D01*
X325000Y1055000D02*
X365000D01*
X190000Y2565147D02*
X190000Y2565037D01*
X190000Y2565147D02*
Y2575539D01*
X190000Y2575649D02*
X190000Y2575539D01*
X535000Y1225000D02*
Y1275000D01*
X55000Y485000D02*
Y835000D01*
X55000Y2470000D02*
X55000Y2470000D01*
X55000Y2470000D02*
Y3186850D01*
X288579Y2813579D02*
X432445Y2957445D01*
X305651Y1870651D02*
X435970Y2000970D01*
X1275000Y945079D02*
X1380000D01*
X1348524Y976555D02*
Y1220000D01*
D51*
X1745000Y3810000D02*
G03*
X1707500Y3772500I0J-37500D01*
G01*
X1707500Y3716284D02*
G03*
X1709887Y3708165I15000J0D01*
G01*
X1707500Y3716284D02*
G03*
X1707500Y3716354I-25000J0D01*
G01*
X1682500Y3772500D02*
G03*
X1645000Y3810000I-37500J0D01*
G01*
X1680113Y3708164D02*
G03*
X1682500Y3716284I-12613J8119D01*
G01*
X1709887Y3708164D02*
X1720000Y3692455D01*
X1707500Y3716354D02*
Y3772500D01*
X1682500Y3735000D02*
Y3772500D01*
X1670000Y3692455D02*
X1680113Y3708164D01*
X1682500Y3716284D02*
X1682500Y3735000D01*
X1720000Y3661215D02*
Y3692455D01*
X1670000Y3661215D02*
Y3692455D01*
D52*
X291654Y3030000D02*
D03*
X247362Y3030000D02*
D03*
X327104Y2111450D02*
D03*
X282812Y2111450D02*
D03*
X326654Y1145000D02*
D03*
X282362Y1145000D02*
D03*
X401654Y465000D02*
D03*
X357362Y465000D02*
D03*
D53*
X1695000Y595000D02*
D03*
D54*
X149837Y284067D02*
D03*
D55*
X535000Y3405000D02*
D03*
Y3305000D02*
D03*
Y3505000D02*
D03*
Y3605000D02*
D03*
Y3705000D02*
D03*
Y510000D02*
D03*
Y410000D02*
D03*
Y610000D02*
D03*
Y710000D02*
D03*
Y810000D02*
D03*
Y1475000D02*
D03*
Y1375000D02*
D03*
Y1575000D02*
D03*
Y1675000D02*
D03*
Y1775000D02*
D03*
Y2440000D02*
D03*
Y2340000D02*
D03*
Y2540000D02*
D03*
Y2640000D02*
D03*
Y2740000D02*
D03*
D56*
Y3205000D02*
D03*
Y310000D02*
D03*
Y1275000D02*
D03*
Y2240000D02*
D03*
D57*
X1205000Y2115000D02*
D03*
Y3080000D02*
D03*
Y1150000D02*
D03*
Y185000D02*
D03*
D58*
X860000Y235000D02*
D03*
X185000Y3745000D02*
D03*
D59*
X1771772Y620591D02*
D03*
Y569409D02*
D03*
X1720591Y620591D02*
D03*
Y569409D02*
D03*
X1618228D02*
D03*
Y620591D02*
D03*
X1669409Y569409D02*
D03*
Y620591D02*
D03*
D60*
X1545000Y3810000D02*
D03*
X1645000D02*
D03*
D61*
X1745000D02*
D03*
D62*
X1545000Y155000D02*
D03*
X1645000D02*
D03*
X1745000D02*
D03*
D63*
X1845000D02*
D03*
D64*
X1395000Y3030000D02*
D03*
Y3130000D02*
D03*
Y3230000D02*
D03*
Y3330000D02*
D03*
Y3430000D02*
D03*
Y3530000D02*
D03*
Y3630000D02*
D03*
Y3730000D02*
D03*
Y3830000D02*
D03*
X1995000D02*
D03*
Y3730000D02*
D03*
Y3630000D02*
D03*
Y3530000D02*
D03*
Y3430000D02*
D03*
Y3330000D02*
D03*
Y3230000D02*
D03*
Y3130000D02*
D03*
Y3030000D02*
D03*
X1395000Y1530000D02*
D03*
Y1630000D02*
D03*
Y1730000D02*
D03*
Y1830000D02*
D03*
Y1930000D02*
D03*
Y2030000D02*
D03*
Y2130000D02*
D03*
Y2230000D02*
D03*
Y2330000D02*
D03*
Y2430000D02*
D03*
Y2530000D02*
D03*
Y2630000D02*
D03*
Y2730000D02*
D03*
Y2830000D02*
D03*
X1995000Y2930000D02*
D03*
Y2830000D02*
D03*
Y2730000D02*
D03*
Y2630000D02*
D03*
Y2530000D02*
D03*
Y2430000D02*
D03*
Y2330000D02*
D03*
Y2230000D02*
D03*
Y2130000D02*
D03*
Y2030000D02*
D03*
Y1930000D02*
D03*
Y1830000D02*
D03*
Y1730000D02*
D03*
X1395000Y2930000D02*
D03*
X1495000Y3330000D02*
D03*
X1995000Y1630000D02*
D03*
Y1530000D02*
D03*
D65*
X55000Y2455000D02*
D03*
Y2490000D02*
D03*
Y820000D02*
D03*
Y855000D02*
D03*
Y1540000D02*
D03*
Y1505000D02*
D03*
X400000Y425000D02*
D03*
X190000Y400000D02*
D03*
X330000Y3030000D02*
D03*
X1095000Y655000D02*
D03*
X1325000Y1420000D02*
D03*
X1160000Y650000D02*
D03*
X1050000Y655000D02*
D03*
X1200000Y650000D02*
D03*
X1330000Y625000D02*
D03*
X935000Y435000D02*
D03*
Y475000D02*
D03*
Y580000D02*
D03*
Y540000D02*
D03*
X365000Y1145000D02*
D03*
X1370000Y1420000D02*
D03*
X1380000Y625000D02*
D03*
X1530000Y3530000D02*
D03*
X1660000Y3215000D02*
D03*
X200000Y135000D02*
D03*
X1955000Y1175000D02*
D03*
X365450Y2111450D02*
D03*
X1480000Y1420000D02*
D03*
X1435000D02*
D03*
X1595000Y1495000D02*
D03*
Y1535000D02*
D03*
Y1640000D02*
D03*
Y1600000D02*
D03*
X1600000Y295000D02*
D03*
Y255000D02*
D03*
Y365000D02*
D03*
Y405000D02*
D03*
X1430000Y625000D02*
D03*
M02*
