G04*
G04 #@! TF.GenerationSoftware,Altium Limited,Altium Designer,25.1.2 (22)*
G04*
G04 Layer_Physical_Order=2*
G04 Layer_Color=16711680*
%FSLAX26Y26*%
%MOIN*%
G70*
G04*
G04 #@! TF.SameCoordinates,36FF1957-655E-4FCE-A78B-4FF043CE075B*
G04*
G04*
G04 #@! TF.FilePolarity,Positive*
G04*
G01*
G75*
%ADD47C,0.055118*%
%ADD48R,0.055118X0.055118*%
%ADD50C,0.060000*%
%ADD55C,0.059843*%
G04:AMPARAMS|DCode=56|XSize=59.843mil|YSize=59.843mil|CornerRadius=14.961mil|HoleSize=0mil|Usage=FLASHONLY|Rotation=90.000|XOffset=0mil|YOffset=0mil|HoleType=Round|Shape=RoundedRectangle|*
%AMROUNDEDRECTD56*
21,1,0.059843,0.029921,0,0,90.0*
21,1,0.029921,0.059843,0,0,90.0*
1,1,0.029921,0.014961,0.014961*
1,1,0.029921,0.014961,-0.014961*
1,1,0.029921,-0.014961,-0.014961*
1,1,0.029921,-0.014961,0.014961*
%
%ADD56ROUNDEDRECTD56*%
%ADD57C,0.150000*%
%ADD58C,0.250000*%
%ADD59C,0.019685*%
%ADD60C,0.062992*%
G04:AMPARAMS|DCode=61|XSize=62.992mil|YSize=62.992mil|CornerRadius=15.748mil|HoleSize=0mil|Usage=FLASHONLY|Rotation=180.000|XOffset=0mil|YOffset=0mil|HoleType=Round|Shape=RoundedRectangle|*
%AMROUNDEDRECTD61*
21,1,0.062992,0.031496,0,0,180.0*
21,1,0.031496,0.062992,0,0,180.0*
1,1,0.031496,-0.015748,0.015748*
1,1,0.031496,0.015748,0.015748*
1,1,0.031496,0.015748,-0.015748*
1,1,0.031496,-0.015748,-0.015748*
%
%ADD61ROUNDEDRECTD61*%
%ADD62C,0.067913*%
%ADD63R,0.067913X0.067913*%
%ADD64C,0.051496*%
%ADD65C,0.024000*%
G36*
X1995000Y3909608D02*
X2002841Y3909609D01*
X2018221Y3906549D01*
X2032709Y3900548D01*
X2045747Y3891836D01*
X2056836Y3880747D01*
X2065548Y3867708D01*
X2071549Y3853221D01*
X2074609Y3837840D01*
X2074609Y3830000D01*
X2074608Y100000D01*
X2074609Y92159D01*
X2071549Y76779D01*
X2065548Y62291D01*
X2056836Y49252D01*
X2045747Y38164D01*
X2032709Y29451D01*
X2018221Y23451D01*
X2002841Y20391D01*
X92159D01*
X76779Y23451D01*
X62291Y29452D01*
X49252Y38164D01*
X38164Y49252D01*
X29452Y62291D01*
X23451Y76779D01*
X20391Y92159D01*
Y100000D01*
Y808271D01*
X24119Y809537D01*
X26472Y806472D01*
X34827Y800060D01*
X44558Y796029D01*
X55000Y794655D01*
X65442Y796029D01*
X75173Y800060D01*
X83528Y806472D01*
Y806471D01*
X83546Y806906D01*
X101686Y822400D01*
X122301Y835032D01*
X144637Y844284D01*
X168147Y849928D01*
X190727Y851706D01*
X192249Y851505D01*
X325000D01*
X335442Y852880D01*
X338850Y854291D01*
X362559D01*
Y878001D01*
X363971Y881408D01*
X365345Y891850D01*
X363971Y902293D01*
X362559Y905700D01*
Y929409D01*
X338850D01*
X335442Y930821D01*
X325000Y932196D01*
X192249D01*
Y932219D01*
X165997Y930745D01*
X140075Y926341D01*
X114809Y919062D01*
X90517Y909000D01*
X67504Y896281D01*
X46060Y881066D01*
X26455Y863545D01*
X26472Y863528D01*
X24119Y860463D01*
X20391Y861729D01*
Y1493272D01*
X24119Y1494537D01*
X26472Y1491472D01*
X34827Y1485060D01*
X44558Y1481030D01*
X55000Y1479655D01*
X65442Y1481030D01*
X75173Y1485060D01*
X83528Y1491472D01*
Y1491472D01*
X83543Y1491834D01*
X99680Y1505617D01*
X118004Y1516846D01*
X137858Y1525070D01*
X158754Y1530086D01*
X178907Y1531673D01*
X180178Y1531505D01*
X325000D01*
X335442Y1532880D01*
X338850Y1534291D01*
X362559D01*
Y1558001D01*
X363971Y1561408D01*
X365345Y1571850D01*
X363971Y1582293D01*
X362559Y1585700D01*
Y1609409D01*
X338850D01*
X335442Y1610821D01*
X325000Y1612196D01*
X180178D01*
Y1612316D01*
X151789Y1610455D01*
X123886Y1604905D01*
X96947Y1595760D01*
X71431Y1583177D01*
X47776Y1567372D01*
X26386Y1548614D01*
X26472Y1548528D01*
X24119Y1545463D01*
X20391Y1546728D01*
Y2443271D01*
X24119Y2444537D01*
X26472Y2441472D01*
X34827Y2435060D01*
X44558Y2431030D01*
X55000Y2429655D01*
X65442Y2431030D01*
X75173Y2435060D01*
X83528Y2441472D01*
Y2441472D01*
X83540Y2441811D01*
X101856Y2457874D01*
X122319Y2471547D01*
X144391Y2482432D01*
X167696Y2490342D01*
X191833Y2495144D01*
X215133Y2496671D01*
X216391Y2496505D01*
X325000D01*
X335442Y2497880D01*
X338850Y2499291D01*
X362559D01*
Y2523001D01*
X363971Y2526408D01*
X365345Y2536850D01*
X363971Y2547293D01*
X362559Y2550700D01*
Y2574409D01*
X338850D01*
X335442Y2575821D01*
X325000Y2577196D01*
X216391D01*
Y2577273D01*
X186310Y2575584D01*
X156608Y2570537D01*
X127657Y2562197D01*
X99822Y2550667D01*
X73453Y2536093D01*
X48882Y2518659D01*
X26417Y2498583D01*
X26472Y2498528D01*
X24119Y2495463D01*
X20391Y2496729D01*
Y3830000D01*
Y3837841D01*
X23451Y3853221D01*
X29452Y3867709D01*
X38164Y3880747D01*
X49252Y3891836D01*
X62291Y3900548D01*
X76779Y3906549D01*
X92159Y3909609D01*
X100000Y3909609D01*
X1995000Y3909608D01*
D02*
G37*
%LPC*%
G36*
X1999706Y3865748D02*
X1990294D01*
X1981202Y3863312D01*
X1973050Y3858606D01*
X1966395Y3851950D01*
X1961688Y3843798D01*
X1959252Y3834706D01*
Y3825294D01*
X1961688Y3816202D01*
X1966395Y3808050D01*
X1973050Y3801394D01*
X1981202Y3796688D01*
X1990294Y3794252D01*
X1999706D01*
X2008798Y3796688D01*
X2016950Y3801394D01*
X2023605Y3808050D01*
X2028312Y3816202D01*
X2030748Y3825294D01*
Y3834706D01*
X2028312Y3843798D01*
X2023605Y3851950D01*
X2016950Y3858606D01*
X2008798Y3863312D01*
X1999706Y3865748D01*
D02*
G37*
G36*
X1399706D02*
X1390294D01*
X1381202Y3863312D01*
X1373050Y3858606D01*
X1366395Y3851950D01*
X1361688Y3843798D01*
X1359252Y3834706D01*
Y3825294D01*
X1361688Y3816202D01*
X1366395Y3808050D01*
X1373050Y3801394D01*
X1381202Y3796688D01*
X1390294Y3794252D01*
X1399706D01*
X1408798Y3796688D01*
X1416950Y3801394D01*
X1423605Y3808050D01*
X1428312Y3816202D01*
X1430748Y3825294D01*
Y3834706D01*
X1428312Y3843798D01*
X1423605Y3851950D01*
X1416950Y3858606D01*
X1408798Y3863312D01*
X1399706Y3865748D01*
D02*
G37*
G36*
X1650463Y3851496D02*
X1639537D01*
X1628983Y3848668D01*
X1619521Y3843205D01*
X1611795Y3835479D01*
X1606332Y3826017D01*
X1603504Y3815463D01*
Y3804537D01*
X1606332Y3793983D01*
X1611795Y3784521D01*
X1619521Y3776795D01*
X1628983Y3771332D01*
X1639537Y3768504D01*
X1650463D01*
X1661017Y3771332D01*
X1670479Y3776795D01*
X1678205Y3784521D01*
X1683668Y3793983D01*
X1686496Y3804537D01*
Y3815463D01*
X1683668Y3826017D01*
X1678205Y3835479D01*
X1670479Y3843205D01*
X1661017Y3848668D01*
X1650463Y3851496D01*
D02*
G37*
G36*
X1760748Y3851718D02*
X1729252D01*
X1722530Y3850833D01*
X1716267Y3848239D01*
X1710888Y3844112D01*
X1706761Y3838733D01*
X1704167Y3832470D01*
X1703282Y3825748D01*
Y3794252D01*
X1704167Y3787530D01*
X1706761Y3781267D01*
X1710888Y3775888D01*
X1716267Y3771761D01*
X1722530Y3769167D01*
X1729252Y3768282D01*
X1760748D01*
X1767470Y3769167D01*
X1773733Y3771761D01*
X1779112Y3775888D01*
X1783239Y3781267D01*
X1785833Y3787530D01*
X1786718Y3794252D01*
Y3825748D01*
X1785833Y3832470D01*
X1783239Y3838733D01*
X1779112Y3844112D01*
X1773733Y3848239D01*
X1767470Y3850833D01*
X1760748Y3851718D01*
D02*
G37*
G36*
X1999706Y3765748D02*
X1990294D01*
X1981202Y3763312D01*
X1973050Y3758606D01*
X1966395Y3751950D01*
X1961688Y3743798D01*
X1959252Y3734706D01*
Y3725294D01*
X1961688Y3716202D01*
X1966395Y3708050D01*
X1973050Y3701394D01*
X1981202Y3696688D01*
X1990294Y3694252D01*
X1999706D01*
X2008798Y3696688D01*
X2016950Y3701394D01*
X2023605Y3708050D01*
X2028312Y3716202D01*
X2030748Y3725294D01*
Y3734706D01*
X2028312Y3743798D01*
X2023605Y3751950D01*
X2016950Y3758606D01*
X2008798Y3763312D01*
X1999706Y3765748D01*
D02*
G37*
G36*
X1399706D02*
X1390294D01*
X1381202Y3763312D01*
X1373050Y3758606D01*
X1366395Y3751950D01*
X1361688Y3743798D01*
X1359252Y3734706D01*
Y3725294D01*
X1361688Y3716202D01*
X1366395Y3708050D01*
X1373050Y3701394D01*
X1381202Y3696688D01*
X1390294Y3694252D01*
X1399706D01*
X1408798Y3696688D01*
X1416950Y3701394D01*
X1423605Y3708050D01*
X1428312Y3716202D01*
X1430748Y3725294D01*
Y3734706D01*
X1428312Y3743798D01*
X1423605Y3751950D01*
X1416950Y3758606D01*
X1408798Y3763312D01*
X1399706Y3765748D01*
D02*
G37*
G36*
X540256Y3744921D02*
X529744D01*
X519591Y3742201D01*
X510488Y3736945D01*
X503055Y3729512D01*
X497799Y3720409D01*
X495079Y3710256D01*
Y3699744D01*
X497799Y3689591D01*
X503055Y3680488D01*
X510488Y3673055D01*
X519591Y3667799D01*
X529744Y3665079D01*
X540256D01*
X550409Y3667799D01*
X559512Y3673055D01*
X566945Y3680488D01*
X572201Y3689591D01*
X574921Y3699744D01*
Y3710256D01*
X572201Y3720409D01*
X566945Y3729512D01*
X559512Y3736945D01*
X550409Y3742201D01*
X540256Y3744921D01*
D02*
G37*
G36*
X195625Y3880000D02*
X174375D01*
X153387Y3876676D01*
X133178Y3870109D01*
X114245Y3860462D01*
X97053Y3847972D01*
X82028Y3832947D01*
X69538Y3815755D01*
X59891Y3796822D01*
X53324Y3776613D01*
X50000Y3755625D01*
Y3734375D01*
X53324Y3713387D01*
X59891Y3693178D01*
X69538Y3674245D01*
X82028Y3657053D01*
X97053Y3642028D01*
X114245Y3629538D01*
X133178Y3619891D01*
X153387Y3613324D01*
X174375Y3610000D01*
X195625D01*
X216613Y3613324D01*
X236822Y3619891D01*
X255755Y3629538D01*
X272947Y3642028D01*
X287972Y3657053D01*
X300462Y3674245D01*
X310109Y3693178D01*
X316676Y3713387D01*
X320000Y3734375D01*
Y3755625D01*
X316676Y3776613D01*
X310109Y3796822D01*
X300462Y3815755D01*
X287972Y3832947D01*
X272947Y3847972D01*
X255755Y3860462D01*
X236822Y3870109D01*
X216613Y3876676D01*
X195625Y3880000D01*
D02*
G37*
G36*
X1999706Y3665748D02*
X1990294D01*
X1981202Y3663312D01*
X1973050Y3658606D01*
X1966395Y3651950D01*
X1961688Y3643798D01*
X1959252Y3634706D01*
Y3625294D01*
X1961688Y3616202D01*
X1966395Y3608050D01*
X1973050Y3601394D01*
X1981202Y3596688D01*
X1990294Y3594252D01*
X1999706D01*
X2008798Y3596688D01*
X2016950Y3601394D01*
X2023605Y3608050D01*
X2028312Y3616202D01*
X2030748Y3625294D01*
Y3634706D01*
X2028312Y3643798D01*
X2023605Y3651950D01*
X2016950Y3658606D01*
X2008798Y3663312D01*
X1999706Y3665748D01*
D02*
G37*
G36*
X1399706D02*
X1390294D01*
X1381202Y3663312D01*
X1373050Y3658606D01*
X1366395Y3651950D01*
X1361688Y3643798D01*
X1359252Y3634706D01*
Y3625294D01*
X1361688Y3616202D01*
X1366395Y3608050D01*
X1373050Y3601394D01*
X1381202Y3596688D01*
X1390294Y3594252D01*
X1399706D01*
X1408798Y3596688D01*
X1416950Y3601394D01*
X1423605Y3608050D01*
X1428312Y3616202D01*
X1430748Y3625294D01*
Y3634706D01*
X1428312Y3643798D01*
X1423605Y3651950D01*
X1416950Y3658606D01*
X1408798Y3663312D01*
X1399706Y3665748D01*
D02*
G37*
G36*
X1999706Y3565748D02*
X1990294D01*
X1981202Y3563312D01*
X1973050Y3558606D01*
X1966395Y3551950D01*
X1961688Y3543798D01*
X1959252Y3534706D01*
Y3525294D01*
X1961688Y3516202D01*
X1966395Y3508050D01*
X1973050Y3501394D01*
X1981202Y3496688D01*
X1990294Y3494252D01*
X1999706D01*
X2008798Y3496688D01*
X2016950Y3501394D01*
X2023605Y3508050D01*
X2028312Y3516202D01*
X2030748Y3525294D01*
Y3534706D01*
X2028312Y3543798D01*
X2023605Y3551950D01*
X2016950Y3558606D01*
X2008798Y3563312D01*
X1999706Y3565748D01*
D02*
G37*
G36*
X1399706D02*
X1390294D01*
X1381202Y3563312D01*
X1373050Y3558606D01*
X1366395Y3551950D01*
X1361688Y3543798D01*
X1359252Y3534706D01*
Y3525294D01*
X1361688Y3516202D01*
X1366395Y3508050D01*
X1373050Y3501394D01*
X1381202Y3496688D01*
X1390294Y3494252D01*
X1399706D01*
X1408798Y3496688D01*
X1416950Y3501394D01*
X1423605Y3508050D01*
X1428312Y3516202D01*
X1430748Y3525294D01*
Y3534706D01*
X1428312Y3543798D01*
X1423605Y3551950D01*
X1416950Y3558606D01*
X1408798Y3563312D01*
X1399706Y3565748D01*
D02*
G37*
G36*
X362559Y3494409D02*
X287441D01*
Y3419291D01*
X362559D01*
Y3494409D01*
D02*
G37*
G36*
X1999706Y3465748D02*
X1990294D01*
X1981202Y3463312D01*
X1973050Y3458606D01*
X1966395Y3451950D01*
X1961688Y3443798D01*
X1959252Y3434706D01*
Y3425294D01*
X1961688Y3416202D01*
X1966395Y3408050D01*
X1973050Y3401394D01*
X1981202Y3396688D01*
X1990294Y3394252D01*
X1999706D01*
X2008798Y3396688D01*
X2016950Y3401394D01*
X2023605Y3408050D01*
X2028312Y3416202D01*
X2030748Y3425294D01*
Y3434706D01*
X2028312Y3443798D01*
X2023605Y3451950D01*
X2016950Y3458606D01*
X2008798Y3463312D01*
X1999706Y3465748D01*
D02*
G37*
G36*
X1399706D02*
X1390294D01*
X1381202Y3463312D01*
X1373050Y3458606D01*
X1366395Y3451950D01*
X1361688Y3443798D01*
X1359252Y3434706D01*
Y3425294D01*
X1361688Y3416202D01*
X1366395Y3408050D01*
X1373050Y3401394D01*
X1381202Y3396688D01*
X1390294Y3394252D01*
X1399706D01*
X1408798Y3396688D01*
X1416950Y3401394D01*
X1423605Y3408050D01*
X1428312Y3416202D01*
X1430748Y3425294D01*
Y3434706D01*
X1428312Y3443798D01*
X1423605Y3451950D01*
X1416950Y3458606D01*
X1408798Y3463312D01*
X1399706Y3465748D01*
D02*
G37*
G36*
X1999706Y3365748D02*
X1990294D01*
X1981202Y3363312D01*
X1973050Y3358606D01*
X1966395Y3351950D01*
X1961688Y3343798D01*
X1959252Y3334706D01*
Y3325294D01*
X1961688Y3316202D01*
X1966395Y3308050D01*
X1973050Y3301394D01*
X1981202Y3296688D01*
X1990294Y3294252D01*
X1999706D01*
X2008798Y3296688D01*
X2016950Y3301394D01*
X2023605Y3308050D01*
X2028312Y3316202D01*
X2030748Y3325294D01*
Y3334706D01*
X2028312Y3343798D01*
X2023605Y3351950D01*
X2016950Y3358606D01*
X2008798Y3363312D01*
X1999706Y3365748D01*
D02*
G37*
G36*
X1499706D02*
X1490294D01*
X1481202Y3363312D01*
X1473050Y3358606D01*
X1466395Y3351950D01*
X1461688Y3343798D01*
X1459252Y3334706D01*
Y3325294D01*
X1461688Y3316202D01*
X1466395Y3308050D01*
X1473050Y3301394D01*
X1481202Y3296688D01*
X1490294Y3294252D01*
X1499706D01*
X1508798Y3296688D01*
X1516950Y3301394D01*
X1523605Y3308050D01*
X1528312Y3316202D01*
X1530748Y3325294D01*
Y3334706D01*
X1528312Y3343798D01*
X1523605Y3351950D01*
X1516950Y3358606D01*
X1508798Y3363312D01*
X1499706Y3365748D01*
D02*
G37*
G36*
X1399706D02*
X1390294D01*
X1381202Y3363312D01*
X1373050Y3358606D01*
X1366395Y3351950D01*
X1361688Y3343798D01*
X1359252Y3334706D01*
Y3325294D01*
X1361688Y3316202D01*
X1366395Y3308050D01*
X1373050Y3301394D01*
X1381202Y3296688D01*
X1390294Y3294252D01*
X1399706D01*
X1408798Y3296688D01*
X1416950Y3301394D01*
X1423605Y3308050D01*
X1428312Y3316202D01*
X1430748Y3325294D01*
Y3334706D01*
X1428312Y3343798D01*
X1423605Y3351950D01*
X1416950Y3358606D01*
X1408798Y3363312D01*
X1399706Y3365748D01*
D02*
G37*
G36*
X540256Y3344921D02*
X529744D01*
X519591Y3342201D01*
X510488Y3336945D01*
X503055Y3329512D01*
X497799Y3320409D01*
X495079Y3310256D01*
Y3299744D01*
X497799Y3289591D01*
X503055Y3280488D01*
X510488Y3273055D01*
X519591Y3267799D01*
X529744Y3265079D01*
X540256D01*
X550409Y3267799D01*
X559512Y3273055D01*
X566945Y3280488D01*
X572201Y3289591D01*
X574921Y3299744D01*
Y3310256D01*
X572201Y3320409D01*
X566945Y3329512D01*
X559512Y3336945D01*
X550409Y3342201D01*
X540256Y3344921D01*
D02*
G37*
G36*
X329945Y3297559D02*
X320055D01*
X310503Y3294999D01*
X301938Y3290055D01*
X294945Y3283062D01*
X290001Y3274497D01*
X287441Y3264945D01*
Y3255055D01*
X290001Y3245503D01*
X294945Y3236938D01*
X301938Y3229945D01*
X310503Y3225001D01*
X320055Y3222441D01*
X329945D01*
X339497Y3225001D01*
X348062Y3229945D01*
X355055Y3236938D01*
X359999Y3245503D01*
X362559Y3255055D01*
Y3264945D01*
X359999Y3274497D01*
X355055Y3283062D01*
X348062Y3290055D01*
X339497Y3294999D01*
X329945Y3297559D01*
D02*
G37*
G36*
X1999706Y3265748D02*
X1990294D01*
X1981202Y3263312D01*
X1973050Y3258606D01*
X1966395Y3251950D01*
X1961688Y3243798D01*
X1959252Y3234706D01*
Y3225294D01*
X1961688Y3216202D01*
X1966395Y3208050D01*
X1973050Y3201394D01*
X1981202Y3196688D01*
X1990294Y3194252D01*
X1999706D01*
X2008798Y3196688D01*
X2016950Y3201394D01*
X2023605Y3208050D01*
X2028312Y3216202D01*
X2030748Y3225294D01*
Y3234706D01*
X2028312Y3243798D01*
X2023605Y3251950D01*
X2016950Y3258606D01*
X2008798Y3263312D01*
X1999706Y3265748D01*
D02*
G37*
G36*
X1399706D02*
X1390294D01*
X1381202Y3263312D01*
X1373050Y3258606D01*
X1366395Y3251950D01*
X1361688Y3243798D01*
X1359252Y3234706D01*
Y3225294D01*
X1361688Y3216202D01*
X1366395Y3208050D01*
X1373050Y3201394D01*
X1381202Y3196688D01*
X1390294Y3194252D01*
X1399706D01*
X1408798Y3196688D01*
X1416950Y3201394D01*
X1423605Y3208050D01*
X1428312Y3216202D01*
X1430748Y3225294D01*
Y3234706D01*
X1428312Y3243798D01*
X1423605Y3251950D01*
X1416950Y3258606D01*
X1408798Y3263312D01*
X1399706Y3265748D01*
D02*
G37*
G36*
X549961Y3245410D02*
X520039D01*
X510300Y3243473D01*
X502044Y3237956D01*
X496527Y3229700D01*
X494590Y3219961D01*
Y3190039D01*
X496527Y3180300D01*
X502044Y3172044D01*
X510300Y3166527D01*
X520039Y3164590D01*
X549961D01*
X559700Y3166527D01*
X567956Y3172044D01*
X573473Y3180300D01*
X575410Y3190039D01*
Y3219961D01*
X573473Y3229700D01*
X567956Y3237956D01*
X559700Y3243473D01*
X549961Y3245410D01*
D02*
G37*
G36*
X329945Y3199134D02*
X320055D01*
X310503Y3196574D01*
X301938Y3191630D01*
X294945Y3184637D01*
X290001Y3176072D01*
X287441Y3166519D01*
Y3156630D01*
X290001Y3147078D01*
X294945Y3138513D01*
X301938Y3131520D01*
X310503Y3126575D01*
X320055Y3124016D01*
X329945D01*
X339497Y3126575D01*
X348062Y3131520D01*
X355055Y3138513D01*
X359999Y3147078D01*
X362559Y3156630D01*
Y3166519D01*
X359999Y3176072D01*
X355055Y3184637D01*
X348062Y3191630D01*
X339497Y3196574D01*
X329945Y3199134D01*
D02*
G37*
G36*
X1999706Y3165748D02*
X1990294D01*
X1981202Y3163312D01*
X1973050Y3158606D01*
X1966395Y3151950D01*
X1961688Y3143798D01*
X1959252Y3134706D01*
Y3125294D01*
X1961688Y3116202D01*
X1966395Y3108050D01*
X1973050Y3101394D01*
X1981202Y3096688D01*
X1990294Y3094252D01*
X1999706D01*
X2008798Y3096688D01*
X2016950Y3101394D01*
X2023605Y3108050D01*
X2028312Y3116202D01*
X2030748Y3125294D01*
Y3134706D01*
X2028312Y3143798D01*
X2023605Y3151950D01*
X2016950Y3158606D01*
X2008798Y3163312D01*
X1999706Y3165748D01*
D02*
G37*
G36*
X1399706D02*
X1390294D01*
X1381202Y3163312D01*
X1373050Y3158606D01*
X1366395Y3151950D01*
X1361688Y3143798D01*
X1359252Y3134706D01*
Y3125294D01*
X1361688Y3116202D01*
X1366395Y3108050D01*
X1373050Y3101394D01*
X1381202Y3096688D01*
X1390294Y3094252D01*
X1399706D01*
X1408798Y3096688D01*
X1416950Y3101394D01*
X1423605Y3108050D01*
X1428312Y3116202D01*
X1430748Y3125294D01*
Y3134706D01*
X1428312Y3143798D01*
X1423605Y3151950D01*
X1416950Y3158606D01*
X1408798Y3163312D01*
X1399706Y3165748D01*
D02*
G37*
G36*
X1213372Y3165000D02*
X1196628D01*
X1180206Y3161733D01*
X1164737Y3155326D01*
X1150816Y3146024D01*
X1138976Y3134184D01*
X1129674Y3120263D01*
X1123266Y3104794D01*
X1120000Y3088372D01*
Y3071628D01*
X1123266Y3055206D01*
X1129674Y3039737D01*
X1138976Y3025816D01*
X1150816Y3013976D01*
X1164737Y3004674D01*
X1180206Y2998267D01*
X1196628Y2995000D01*
X1213372D01*
X1229794Y2998267D01*
X1245263Y3004674D01*
X1259184Y3013976D01*
X1271024Y3025816D01*
X1280326Y3039737D01*
X1286734Y3055206D01*
X1290000Y3071628D01*
Y3088372D01*
X1286734Y3104794D01*
X1280326Y3120263D01*
X1271024Y3134184D01*
X1259184Y3146024D01*
X1245263Y3155326D01*
X1229794Y3161733D01*
X1213372Y3165000D01*
D02*
G37*
G36*
X1999706Y3065748D02*
X1990294D01*
X1981202Y3063312D01*
X1973050Y3058606D01*
X1966395Y3051950D01*
X1961688Y3043798D01*
X1959252Y3034706D01*
Y3025294D01*
X1961688Y3016202D01*
X1966395Y3008050D01*
X1973050Y3001394D01*
X1981202Y2996688D01*
X1990294Y2994252D01*
X1999706D01*
X2008798Y2996688D01*
X2016950Y3001394D01*
X2023605Y3008050D01*
X2028312Y3016202D01*
X2030748Y3025294D01*
Y3034706D01*
X2028312Y3043798D01*
X2023605Y3051950D01*
X2016950Y3058606D01*
X2008798Y3063312D01*
X1999706Y3065748D01*
D02*
G37*
G36*
X1399706D02*
X1390294D01*
X1381202Y3063312D01*
X1373050Y3058606D01*
X1366395Y3051950D01*
X1361688Y3043798D01*
X1359252Y3034706D01*
Y3025294D01*
X1361688Y3016202D01*
X1366395Y3008050D01*
X1373050Y3001394D01*
X1381202Y2996688D01*
X1390294Y2994252D01*
X1399706D01*
X1408798Y2996688D01*
X1416950Y3001394D01*
X1423605Y3008050D01*
X1428312Y3016202D01*
X1430748Y3025294D01*
Y3034706D01*
X1428312Y3043798D01*
X1423605Y3051950D01*
X1416950Y3058606D01*
X1408798Y3063312D01*
X1399706Y3065748D01*
D02*
G37*
G36*
X1999706Y2965748D02*
X1990294D01*
X1981202Y2963312D01*
X1973050Y2958606D01*
X1966395Y2951950D01*
X1961688Y2943798D01*
X1959252Y2934706D01*
Y2925294D01*
X1961688Y2916202D01*
X1966395Y2908050D01*
X1973050Y2901394D01*
X1981202Y2896688D01*
X1990294Y2894252D01*
X1999706D01*
X2008798Y2896688D01*
X2016950Y2901394D01*
X2023605Y2908050D01*
X2028312Y2916202D01*
X2030748Y2925294D01*
Y2934706D01*
X2028312Y2943798D01*
X2023605Y2951950D01*
X2016950Y2958606D01*
X2008798Y2963312D01*
X1999706Y2965748D01*
D02*
G37*
G36*
Y2865748D02*
X1990294D01*
X1981202Y2863312D01*
X1973050Y2858606D01*
X1966395Y2851950D01*
X1961688Y2843798D01*
X1959252Y2834706D01*
Y2825294D01*
X1961688Y2816202D01*
X1966395Y2808050D01*
X1973050Y2801394D01*
X1981202Y2796688D01*
X1990294Y2794252D01*
X1999706D01*
X2008798Y2796688D01*
X2016950Y2801394D01*
X2023605Y2808050D01*
X2028312Y2816202D01*
X2030748Y2825294D01*
Y2834706D01*
X2028312Y2843798D01*
X2023605Y2851950D01*
X2016950Y2858606D01*
X2008798Y2863312D01*
X1999706Y2865748D01*
D02*
G37*
G36*
X1399706D02*
X1390294D01*
X1381202Y2863312D01*
X1373050Y2858606D01*
X1366395Y2851950D01*
X1361688Y2843798D01*
X1359252Y2834706D01*
Y2825294D01*
X1361688Y2816202D01*
X1366395Y2808050D01*
X1373050Y2801394D01*
X1381202Y2796688D01*
X1390294Y2794252D01*
X1399706D01*
X1408798Y2796688D01*
X1416950Y2801394D01*
X1423605Y2808050D01*
X1428312Y2816202D01*
X1430748Y2825294D01*
Y2834706D01*
X1428312Y2843798D01*
X1423605Y2851950D01*
X1416950Y2858606D01*
X1408798Y2863312D01*
X1399706Y2865748D01*
D02*
G37*
G36*
X540256Y2779921D02*
X529744D01*
X519591Y2777201D01*
X510488Y2771945D01*
X503055Y2764512D01*
X497799Y2755409D01*
X495079Y2745256D01*
Y2734744D01*
X497799Y2724591D01*
X503055Y2715488D01*
X510488Y2708055D01*
X519591Y2702799D01*
X529744Y2700079D01*
X540256D01*
X550409Y2702799D01*
X559512Y2708055D01*
X566945Y2715488D01*
X572201Y2724591D01*
X574921Y2734744D01*
Y2745256D01*
X572201Y2755409D01*
X566945Y2764512D01*
X559512Y2771945D01*
X550409Y2777201D01*
X540256Y2779921D01*
D02*
G37*
G36*
X1999706Y2765748D02*
X1990294D01*
X1981202Y2763312D01*
X1973050Y2758606D01*
X1966395Y2751950D01*
X1961688Y2743798D01*
X1959252Y2734706D01*
Y2725294D01*
X1961688Y2716202D01*
X1966395Y2708050D01*
X1973050Y2701394D01*
X1981202Y2696688D01*
X1990294Y2694252D01*
X1999706D01*
X2008798Y2696688D01*
X2016950Y2701394D01*
X2023605Y2708050D01*
X2028312Y2716202D01*
X2030748Y2725294D01*
Y2734706D01*
X2028312Y2743798D01*
X2023605Y2751950D01*
X2016950Y2758606D01*
X2008798Y2763312D01*
X1999706Y2765748D01*
D02*
G37*
G36*
X1399706D02*
X1390294D01*
X1381202Y2763312D01*
X1373050Y2758606D01*
X1366395Y2751950D01*
X1361688Y2743798D01*
X1359252Y2734706D01*
Y2725294D01*
X1361688Y2716202D01*
X1366395Y2708050D01*
X1373050Y2701394D01*
X1381202Y2696688D01*
X1390294Y2694252D01*
X1399706D01*
X1408798Y2696688D01*
X1416950Y2701394D01*
X1423605Y2708050D01*
X1428312Y2716202D01*
X1430748Y2725294D01*
Y2734706D01*
X1428312Y2743798D01*
X1423605Y2751950D01*
X1416950Y2758606D01*
X1408798Y2763312D01*
X1399706Y2765748D01*
D02*
G37*
G36*
X1999706Y2665748D02*
X1990294D01*
X1981202Y2663312D01*
X1973050Y2658606D01*
X1966395Y2651950D01*
X1961688Y2643798D01*
X1959252Y2634706D01*
Y2625294D01*
X1961688Y2616202D01*
X1966395Y2608050D01*
X1973050Y2601394D01*
X1981202Y2596688D01*
X1990294Y2594252D01*
X1999706D01*
X2008798Y2596688D01*
X2016950Y2601394D01*
X2023605Y2608050D01*
X2028312Y2616202D01*
X2030748Y2625294D01*
Y2634706D01*
X2028312Y2643798D01*
X2023605Y2651950D01*
X2016950Y2658606D01*
X2008798Y2663312D01*
X1999706Y2665748D01*
D02*
G37*
G36*
X1399706D02*
X1390294D01*
X1381202Y2663312D01*
X1373050Y2658606D01*
X1366395Y2651950D01*
X1361688Y2643798D01*
X1359252Y2634706D01*
Y2625294D01*
X1361688Y2616202D01*
X1366395Y2608050D01*
X1373050Y2601394D01*
X1381202Y2596688D01*
X1390294Y2594252D01*
X1399706D01*
X1408798Y2596688D01*
X1416950Y2601394D01*
X1423605Y2608050D01*
X1428312Y2616202D01*
X1430748Y2625294D01*
Y2634706D01*
X1428312Y2643798D01*
X1423605Y2651950D01*
X1416950Y2658606D01*
X1408798Y2663312D01*
X1399706Y2665748D01*
D02*
G37*
G36*
X1999706Y2565748D02*
X1990294D01*
X1981202Y2563312D01*
X1973050Y2558606D01*
X1966395Y2551950D01*
X1961688Y2543798D01*
X1959252Y2534706D01*
Y2525294D01*
X1961688Y2516202D01*
X1966395Y2508050D01*
X1973050Y2501394D01*
X1981202Y2496688D01*
X1990294Y2494252D01*
X1999706D01*
X2008798Y2496688D01*
X2016950Y2501394D01*
X2023605Y2508050D01*
X2028312Y2516202D01*
X2030748Y2525294D01*
Y2534706D01*
X2028312Y2543798D01*
X2023605Y2551950D01*
X2016950Y2558606D01*
X2008798Y2563312D01*
X1999706Y2565748D01*
D02*
G37*
G36*
X1399706D02*
X1390294D01*
X1381202Y2563312D01*
X1373050Y2558606D01*
X1366395Y2551950D01*
X1361688Y2543798D01*
X1359252Y2534706D01*
Y2525294D01*
X1361688Y2516202D01*
X1366395Y2508050D01*
X1373050Y2501394D01*
X1381202Y2496688D01*
X1390294Y2494252D01*
X1399706D01*
X1408798Y2496688D01*
X1416950Y2501394D01*
X1423605Y2508050D01*
X1428312Y2516202D01*
X1430748Y2525294D01*
Y2534706D01*
X1428312Y2543798D01*
X1423605Y2551950D01*
X1416950Y2558606D01*
X1408798Y2563312D01*
X1399706Y2565748D01*
D02*
G37*
G36*
X1999706Y2465748D02*
X1990294D01*
X1981202Y2463312D01*
X1973050Y2458606D01*
X1966395Y2451950D01*
X1961688Y2443798D01*
X1959252Y2434706D01*
Y2425294D01*
X1961688Y2416202D01*
X1966395Y2408050D01*
X1973050Y2401394D01*
X1981202Y2396688D01*
X1990294Y2394252D01*
X1999706D01*
X2008798Y2396688D01*
X2016950Y2401394D01*
X2023605Y2408050D01*
X2028312Y2416202D01*
X2030748Y2425294D01*
Y2434706D01*
X2028312Y2443798D01*
X2023605Y2451950D01*
X2016950Y2458606D01*
X2008798Y2463312D01*
X1999706Y2465748D01*
D02*
G37*
G36*
X1399706D02*
X1390294D01*
X1381202Y2463312D01*
X1373050Y2458606D01*
X1366395Y2451950D01*
X1361688Y2443798D01*
X1359252Y2434706D01*
Y2425294D01*
X1361688Y2416202D01*
X1366395Y2408050D01*
X1373050Y2401394D01*
X1381202Y2396688D01*
X1390294Y2394252D01*
X1399706D01*
X1408798Y2396688D01*
X1416950Y2401394D01*
X1423605Y2408050D01*
X1428312Y2416202D01*
X1430748Y2425294D01*
Y2434706D01*
X1428312Y2443798D01*
X1423605Y2451950D01*
X1416950Y2458606D01*
X1408798Y2463312D01*
X1399706Y2465748D01*
D02*
G37*
G36*
X329945Y2377559D02*
X320055D01*
X310503Y2374999D01*
X301938Y2370055D01*
X294945Y2363062D01*
X290001Y2354497D01*
X287441Y2344945D01*
Y2335055D01*
X290001Y2325503D01*
X294945Y2316938D01*
X301938Y2309945D01*
X310503Y2305001D01*
X320055Y2302441D01*
X329945D01*
X339497Y2305001D01*
X348062Y2309945D01*
X355055Y2316938D01*
X359999Y2325503D01*
X362559Y2335055D01*
Y2344945D01*
X359999Y2354497D01*
X355055Y2363062D01*
X348062Y2370055D01*
X339497Y2374999D01*
X329945Y2377559D01*
D02*
G37*
G36*
X540256Y2379921D02*
X529744D01*
X519591Y2377201D01*
X510488Y2371945D01*
X503055Y2364512D01*
X497799Y2355409D01*
X495079Y2345256D01*
Y2334744D01*
X497799Y2324591D01*
X503055Y2315488D01*
X510488Y2308055D01*
X519591Y2302799D01*
X529744Y2300079D01*
X540256D01*
X550409Y2302799D01*
X559512Y2308055D01*
X566945Y2315488D01*
X572201Y2324591D01*
X574921Y2334744D01*
Y2345256D01*
X572201Y2355409D01*
X566945Y2364512D01*
X559512Y2371945D01*
X550409Y2377201D01*
X540256Y2379921D01*
D02*
G37*
G36*
X1999706Y2365748D02*
X1990294D01*
X1981202Y2363312D01*
X1973050Y2358606D01*
X1966395Y2351950D01*
X1961688Y2343798D01*
X1959252Y2334706D01*
Y2325294D01*
X1961688Y2316202D01*
X1966395Y2308050D01*
X1973050Y2301394D01*
X1981202Y2296688D01*
X1990294Y2294252D01*
X1999706D01*
X2008798Y2296688D01*
X2016950Y2301394D01*
X2023605Y2308050D01*
X2028312Y2316202D01*
X2030748Y2325294D01*
Y2334706D01*
X2028312Y2343798D01*
X2023605Y2351950D01*
X2016950Y2358606D01*
X2008798Y2363312D01*
X1999706Y2365748D01*
D02*
G37*
G36*
X1399706D02*
X1390294D01*
X1381202Y2363312D01*
X1373050Y2358606D01*
X1366395Y2351950D01*
X1361688Y2343798D01*
X1359252Y2334706D01*
Y2325294D01*
X1361688Y2316202D01*
X1366395Y2308050D01*
X1373050Y2301394D01*
X1381202Y2296688D01*
X1390294Y2294252D01*
X1399706D01*
X1408798Y2296688D01*
X1416950Y2301394D01*
X1423605Y2308050D01*
X1428312Y2316202D01*
X1430748Y2325294D01*
Y2334706D01*
X1428312Y2343798D01*
X1423605Y2351950D01*
X1416950Y2358606D01*
X1408798Y2363312D01*
X1399706Y2365748D01*
D02*
G37*
G36*
X329945Y2279134D02*
X320055D01*
X310503Y2276574D01*
X301938Y2271630D01*
X294945Y2264637D01*
X290001Y2256072D01*
X287441Y2246519D01*
Y2236630D01*
X290001Y2227078D01*
X294945Y2218513D01*
X301938Y2211520D01*
X310503Y2206575D01*
X320055Y2204016D01*
X329945D01*
X339497Y2206575D01*
X348062Y2211520D01*
X355055Y2218513D01*
X359999Y2227078D01*
X362559Y2236630D01*
Y2246519D01*
X359999Y2256072D01*
X355055Y2264637D01*
X348062Y2271630D01*
X339497Y2276574D01*
X329945Y2279134D01*
D02*
G37*
G36*
X549961Y2280410D02*
X520039D01*
X510300Y2278473D01*
X502044Y2272956D01*
X496527Y2264700D01*
X494590Y2254961D01*
Y2225039D01*
X496527Y2215300D01*
X502044Y2207044D01*
X510300Y2201527D01*
X520039Y2199590D01*
X549961D01*
X559700Y2201527D01*
X567956Y2207044D01*
X573473Y2215300D01*
X575410Y2225039D01*
Y2254961D01*
X573473Y2264700D01*
X567956Y2272956D01*
X559700Y2278473D01*
X549961Y2280410D01*
D02*
G37*
G36*
X1999706Y2265748D02*
X1990294D01*
X1981202Y2263312D01*
X1973050Y2258606D01*
X1966395Y2251950D01*
X1961688Y2243798D01*
X1959252Y2234706D01*
Y2225294D01*
X1961688Y2216202D01*
X1966395Y2208050D01*
X1973050Y2201394D01*
X1981202Y2196688D01*
X1990294Y2194252D01*
X1999706D01*
X2008798Y2196688D01*
X2016950Y2201394D01*
X2023605Y2208050D01*
X2028312Y2216202D01*
X2030748Y2225294D01*
Y2234706D01*
X2028312Y2243798D01*
X2023605Y2251950D01*
X2016950Y2258606D01*
X2008798Y2263312D01*
X1999706Y2265748D01*
D02*
G37*
G36*
X1399706D02*
X1390294D01*
X1381202Y2263312D01*
X1373050Y2258606D01*
X1366395Y2251950D01*
X1361688Y2243798D01*
X1359252Y2234706D01*
Y2225294D01*
X1361688Y2216202D01*
X1366395Y2208050D01*
X1373050Y2201394D01*
X1381202Y2196688D01*
X1390294Y2194252D01*
X1399706D01*
X1408798Y2196688D01*
X1416950Y2201394D01*
X1423605Y2208050D01*
X1428312Y2216202D01*
X1430748Y2225294D01*
Y2234706D01*
X1428312Y2243798D01*
X1423605Y2251950D01*
X1416950Y2258606D01*
X1408798Y2263312D01*
X1399706Y2265748D01*
D02*
G37*
G36*
X1999706Y2165748D02*
X1990294D01*
X1981202Y2163312D01*
X1973050Y2158606D01*
X1966395Y2151950D01*
X1961688Y2143798D01*
X1959252Y2134706D01*
Y2125294D01*
X1961688Y2116202D01*
X1966395Y2108050D01*
X1973050Y2101394D01*
X1981202Y2096688D01*
X1990294Y2094252D01*
X1999706D01*
X2008798Y2096688D01*
X2016950Y2101394D01*
X2023605Y2108050D01*
X2028312Y2116202D01*
X2030748Y2125294D01*
Y2134706D01*
X2028312Y2143798D01*
X2023605Y2151950D01*
X2016950Y2158606D01*
X2008798Y2163312D01*
X1999706Y2165748D01*
D02*
G37*
G36*
X1399706D02*
X1390294D01*
X1381202Y2163312D01*
X1373050Y2158606D01*
X1366395Y2151950D01*
X1361688Y2143798D01*
X1359252Y2134706D01*
Y2125294D01*
X1361688Y2116202D01*
X1366395Y2108050D01*
X1373050Y2101394D01*
X1381202Y2096688D01*
X1390294Y2094252D01*
X1399706D01*
X1408798Y2096688D01*
X1416950Y2101394D01*
X1423605Y2108050D01*
X1428312Y2116202D01*
X1430748Y2125294D01*
Y2134706D01*
X1428312Y2143798D01*
X1423605Y2151950D01*
X1416950Y2158606D01*
X1408798Y2163312D01*
X1399706Y2165748D01*
D02*
G37*
G36*
X1213372Y2200000D02*
X1196628D01*
X1180206Y2196733D01*
X1164737Y2190326D01*
X1150816Y2181024D01*
X1138976Y2169184D01*
X1129674Y2155263D01*
X1123266Y2139794D01*
X1120000Y2123372D01*
Y2106628D01*
X1123266Y2090206D01*
X1129674Y2074737D01*
X1138976Y2060816D01*
X1150816Y2048976D01*
X1164737Y2039674D01*
X1180206Y2033266D01*
X1196628Y2030000D01*
X1213372D01*
X1229794Y2033266D01*
X1245263Y2039674D01*
X1259184Y2048976D01*
X1271024Y2060816D01*
X1280326Y2074737D01*
X1286734Y2090206D01*
X1290000Y2106628D01*
Y2123372D01*
X1286734Y2139794D01*
X1280326Y2155263D01*
X1271024Y2169184D01*
X1259184Y2181024D01*
X1245263Y2190326D01*
X1229794Y2196733D01*
X1213372Y2200000D01*
D02*
G37*
G36*
X1999706Y2065748D02*
X1990294D01*
X1981202Y2063312D01*
X1973050Y2058606D01*
X1966395Y2051950D01*
X1961688Y2043798D01*
X1959252Y2034706D01*
Y2025294D01*
X1961688Y2016202D01*
X1966395Y2008050D01*
X1973050Y2001395D01*
X1981202Y1996688D01*
X1990294Y1994252D01*
X1999706D01*
X2008798Y1996688D01*
X2016950Y2001395D01*
X2023605Y2008050D01*
X2028312Y2016202D01*
X2030748Y2025294D01*
Y2034706D01*
X2028312Y2043798D01*
X2023605Y2051950D01*
X2016950Y2058606D01*
X2008798Y2063312D01*
X1999706Y2065748D01*
D02*
G37*
G36*
X1399706D02*
X1390294D01*
X1381202Y2063312D01*
X1373050Y2058606D01*
X1366395Y2051950D01*
X1361688Y2043798D01*
X1359252Y2034706D01*
Y2025294D01*
X1361688Y2016202D01*
X1366395Y2008050D01*
X1373050Y2001395D01*
X1381202Y1996688D01*
X1390294Y1994252D01*
X1399706D01*
X1408798Y1996688D01*
X1416950Y2001395D01*
X1423605Y2008050D01*
X1428312Y2016202D01*
X1430748Y2025294D01*
Y2034706D01*
X1428312Y2043798D01*
X1423605Y2051950D01*
X1416950Y2058606D01*
X1408798Y2063312D01*
X1399706Y2065748D01*
D02*
G37*
G36*
X1999706Y1965748D02*
X1990294D01*
X1981202Y1963312D01*
X1973050Y1958605D01*
X1966395Y1951950D01*
X1961688Y1943798D01*
X1959252Y1934706D01*
Y1925294D01*
X1961688Y1916202D01*
X1966395Y1908050D01*
X1973050Y1901395D01*
X1981202Y1896688D01*
X1990294Y1894252D01*
X1999706D01*
X2008798Y1896688D01*
X2016950Y1901395D01*
X2023605Y1908050D01*
X2028312Y1916202D01*
X2030748Y1925294D01*
Y1934706D01*
X2028312Y1943798D01*
X2023605Y1951950D01*
X2016950Y1958605D01*
X2008798Y1963312D01*
X1999706Y1965748D01*
D02*
G37*
G36*
X1399706D02*
X1390294D01*
X1381202Y1963312D01*
X1373050Y1958605D01*
X1366395Y1951950D01*
X1361688Y1943798D01*
X1359252Y1934706D01*
Y1925294D01*
X1361688Y1916202D01*
X1366395Y1908050D01*
X1373050Y1901395D01*
X1381202Y1896688D01*
X1390294Y1894252D01*
X1399706D01*
X1408798Y1896688D01*
X1416950Y1901395D01*
X1423605Y1908050D01*
X1428312Y1916202D01*
X1430748Y1925294D01*
Y1934706D01*
X1428312Y1943798D01*
X1423605Y1951950D01*
X1416950Y1958605D01*
X1408798Y1963312D01*
X1399706Y1965748D01*
D02*
G37*
G36*
X1999706Y1865748D02*
X1990294D01*
X1981202Y1863312D01*
X1973050Y1858605D01*
X1966395Y1851950D01*
X1961688Y1843798D01*
X1959252Y1834706D01*
Y1825294D01*
X1961688Y1816202D01*
X1966395Y1808050D01*
X1973050Y1801395D01*
X1981202Y1796688D01*
X1990294Y1794252D01*
X1999706D01*
X2008798Y1796688D01*
X2016950Y1801395D01*
X2023605Y1808050D01*
X2028312Y1816202D01*
X2030748Y1825294D01*
Y1834706D01*
X2028312Y1843798D01*
X2023605Y1851950D01*
X2016950Y1858605D01*
X2008798Y1863312D01*
X1999706Y1865748D01*
D02*
G37*
G36*
X1399706D02*
X1390294D01*
X1381202Y1863312D01*
X1373050Y1858605D01*
X1366395Y1851950D01*
X1361688Y1843798D01*
X1359252Y1834706D01*
Y1825294D01*
X1361688Y1816202D01*
X1366395Y1808050D01*
X1373050Y1801395D01*
X1381202Y1796688D01*
X1390294Y1794252D01*
X1399706D01*
X1408798Y1796688D01*
X1416950Y1801395D01*
X1423605Y1808050D01*
X1428312Y1816202D01*
X1430748Y1825294D01*
Y1834706D01*
X1428312Y1843798D01*
X1423605Y1851950D01*
X1416950Y1858605D01*
X1408798Y1863312D01*
X1399706Y1865748D01*
D02*
G37*
G36*
X540256Y1814921D02*
X529744D01*
X519591Y1812201D01*
X510488Y1806945D01*
X503055Y1799512D01*
X497799Y1790409D01*
X495079Y1780256D01*
Y1769744D01*
X497799Y1759591D01*
X503055Y1750488D01*
X510488Y1743055D01*
X519591Y1737799D01*
X529744Y1735079D01*
X540256D01*
X550409Y1737799D01*
X559512Y1743055D01*
X566945Y1750488D01*
X572201Y1759591D01*
X574921Y1769744D01*
Y1780256D01*
X572201Y1790409D01*
X566945Y1799512D01*
X559512Y1806945D01*
X550409Y1812201D01*
X540256Y1814921D01*
D02*
G37*
G36*
X1999706Y1765748D02*
X1990294D01*
X1981202Y1763312D01*
X1973050Y1758605D01*
X1966395Y1751950D01*
X1961688Y1743798D01*
X1959252Y1734706D01*
Y1725294D01*
X1961688Y1716202D01*
X1966395Y1708050D01*
X1973050Y1701395D01*
X1981202Y1696688D01*
X1990294Y1694252D01*
X1999706D01*
X2008798Y1696688D01*
X2016950Y1701395D01*
X2023605Y1708050D01*
X2028312Y1716202D01*
X2030748Y1725294D01*
Y1734706D01*
X2028312Y1743798D01*
X2023605Y1751950D01*
X2016950Y1758605D01*
X2008798Y1763312D01*
X1999706Y1765748D01*
D02*
G37*
G36*
X1399706D02*
X1390294D01*
X1381202Y1763312D01*
X1373050Y1758605D01*
X1366395Y1751950D01*
X1361688Y1743798D01*
X1359252Y1734706D01*
Y1725294D01*
X1361688Y1716202D01*
X1366395Y1708050D01*
X1373050Y1701395D01*
X1381202Y1696688D01*
X1390294Y1694252D01*
X1399706D01*
X1408798Y1696688D01*
X1416950Y1701395D01*
X1423605Y1708050D01*
X1428312Y1716202D01*
X1430748Y1725294D01*
Y1734706D01*
X1428312Y1743798D01*
X1423605Y1751950D01*
X1416950Y1758605D01*
X1408798Y1763312D01*
X1399706Y1765748D01*
D02*
G37*
G36*
X1999706Y1665748D02*
X1990294D01*
X1981202Y1663312D01*
X1973050Y1658605D01*
X1966395Y1651950D01*
X1961688Y1643798D01*
X1959252Y1634706D01*
Y1625294D01*
X1961688Y1616202D01*
X1966395Y1608050D01*
X1973050Y1601395D01*
X1981202Y1596688D01*
X1990294Y1594252D01*
X1999706D01*
X2008798Y1596688D01*
X2016950Y1601395D01*
X2023605Y1608050D01*
X2028312Y1616202D01*
X2030748Y1625294D01*
Y1634706D01*
X2028312Y1643798D01*
X2023605Y1651950D01*
X2016950Y1658605D01*
X2008798Y1663312D01*
X1999706Y1665748D01*
D02*
G37*
G36*
X1399706Y1565748D02*
X1390294D01*
X1381202Y1563312D01*
X1373050Y1558605D01*
X1366395Y1551950D01*
X1361688Y1543798D01*
X1359252Y1534706D01*
Y1525294D01*
X1361688Y1516202D01*
X1366395Y1508050D01*
X1373050Y1501395D01*
X1381202Y1496688D01*
X1390294Y1494252D01*
X1399706D01*
X1408798Y1496688D01*
X1416950Y1501395D01*
X1423605Y1508050D01*
X1428312Y1516202D01*
X1430748Y1525294D01*
Y1534706D01*
X1428312Y1543798D01*
X1423605Y1551950D01*
X1416950Y1558605D01*
X1408798Y1563312D01*
X1399706Y1565748D01*
D02*
G37*
G36*
X329945Y1412559D02*
X320055D01*
X310503Y1409999D01*
X301938Y1405055D01*
X294945Y1398062D01*
X290001Y1389497D01*
X287441Y1379945D01*
Y1370055D01*
X290001Y1360503D01*
X294945Y1351938D01*
X301938Y1344945D01*
X310503Y1340001D01*
X320055Y1337441D01*
X329945D01*
X339497Y1340001D01*
X348062Y1344945D01*
X355055Y1351938D01*
X359999Y1360503D01*
X362559Y1370055D01*
Y1379945D01*
X359999Y1389497D01*
X355055Y1398062D01*
X348062Y1405055D01*
X339497Y1409999D01*
X329945Y1412559D01*
D02*
G37*
G36*
X540256Y1414921D02*
X529744D01*
X519591Y1412201D01*
X510488Y1406945D01*
X503055Y1399512D01*
X497799Y1390409D01*
X495079Y1380256D01*
Y1369744D01*
X497799Y1359591D01*
X503055Y1350488D01*
X510488Y1343055D01*
X519591Y1337799D01*
X529744Y1335079D01*
X540256D01*
X550409Y1337799D01*
X559512Y1343055D01*
X566945Y1350488D01*
X572201Y1359591D01*
X574921Y1369744D01*
Y1380256D01*
X572201Y1390409D01*
X566945Y1399512D01*
X559512Y1406945D01*
X550409Y1412201D01*
X540256Y1414921D01*
D02*
G37*
G36*
X329945Y1314134D02*
X320055D01*
X310503Y1311574D01*
X301938Y1306630D01*
X294945Y1299637D01*
X290001Y1291072D01*
X287441Y1281520D01*
Y1271630D01*
X290001Y1262078D01*
X294945Y1253513D01*
X301938Y1246520D01*
X310503Y1241575D01*
X320055Y1239016D01*
X329945D01*
X339497Y1241575D01*
X348062Y1246520D01*
X355055Y1253513D01*
X359999Y1262078D01*
X362559Y1271630D01*
Y1281520D01*
X359999Y1291072D01*
X355055Y1299637D01*
X348062Y1306630D01*
X339497Y1311574D01*
X329945Y1314134D01*
D02*
G37*
G36*
X549961Y1315410D02*
X520039D01*
X510300Y1313473D01*
X502044Y1307956D01*
X496527Y1299700D01*
X494590Y1289961D01*
Y1260039D01*
X496527Y1250300D01*
X502044Y1242044D01*
X510300Y1236527D01*
X520039Y1234590D01*
X549961D01*
X559700Y1236527D01*
X567956Y1242044D01*
X573473Y1250300D01*
X575410Y1260039D01*
Y1289961D01*
X573473Y1299700D01*
X567956Y1307956D01*
X559700Y1313473D01*
X549961Y1315410D01*
D02*
G37*
G36*
X1213372Y1235000D02*
X1196628D01*
X1180206Y1231734D01*
X1164737Y1225326D01*
X1150816Y1216024D01*
X1138976Y1204184D01*
X1129674Y1190263D01*
X1123266Y1174794D01*
X1120000Y1158372D01*
Y1141628D01*
X1123266Y1125206D01*
X1129674Y1109737D01*
X1138976Y1095816D01*
X1150816Y1083976D01*
X1164737Y1074674D01*
X1180206Y1068266D01*
X1196628Y1065000D01*
X1213372D01*
X1229794Y1068266D01*
X1245263Y1074674D01*
X1259184Y1083976D01*
X1271024Y1095816D01*
X1280326Y1109737D01*
X1286734Y1125206D01*
X1290000Y1141628D01*
Y1158372D01*
X1286734Y1174794D01*
X1280326Y1190263D01*
X1271024Y1204184D01*
X1259184Y1216024D01*
X1245263Y1225326D01*
X1229794Y1231734D01*
X1213372Y1235000D01*
D02*
G37*
G36*
X540256Y849921D02*
X529744D01*
X519591Y847201D01*
X510488Y841945D01*
X503055Y834512D01*
X497799Y825409D01*
X495079Y815256D01*
Y804744D01*
X497799Y794591D01*
X503055Y785488D01*
X510488Y778055D01*
X519591Y772799D01*
X529744Y770079D01*
X540256D01*
X550409Y772799D01*
X559512Y778055D01*
X566945Y785488D01*
X572201Y794591D01*
X574921Y804744D01*
Y815256D01*
X572201Y825409D01*
X566945Y834512D01*
X559512Y841945D01*
X550409Y847201D01*
X540256Y849921D01*
D02*
G37*
G36*
X329945Y732559D02*
X320055D01*
X310503Y729999D01*
X301938Y725055D01*
X294945Y718062D01*
X290001Y709497D01*
X287441Y699945D01*
Y690055D01*
X290001Y680503D01*
X294945Y671938D01*
X301938Y664945D01*
X310503Y660001D01*
X320055Y657441D01*
X329945D01*
X339497Y660001D01*
X348062Y664945D01*
X355055Y671938D01*
X359999Y680503D01*
X362559Y690055D01*
Y699945D01*
X359999Y709497D01*
X355055Y718062D01*
X348062Y725055D01*
X339497Y729999D01*
X329945Y732559D01*
D02*
G37*
G36*
Y634134D02*
X320055D01*
X310503Y631574D01*
X301938Y626630D01*
X294945Y619637D01*
X290001Y611072D01*
X287441Y601519D01*
Y591630D01*
X290001Y582078D01*
X294945Y573513D01*
X301938Y566520D01*
X310503Y561575D01*
X320055Y559016D01*
X329945D01*
X339497Y561575D01*
X348062Y566520D01*
X355055Y573513D01*
X359999Y582078D01*
X362559Y591630D01*
Y601519D01*
X359999Y611072D01*
X355055Y619637D01*
X348062Y626630D01*
X339497Y631574D01*
X329945Y634134D01*
D02*
G37*
G36*
X540256Y449921D02*
X529744D01*
X519591Y447201D01*
X510488Y441945D01*
X503055Y434512D01*
X497799Y425409D01*
X495079Y415256D01*
Y404744D01*
X497799Y394591D01*
X503055Y385488D01*
X510488Y378055D01*
X519591Y372799D01*
X529744Y370079D01*
X540256D01*
X550409Y372799D01*
X559512Y378055D01*
X566945Y385488D01*
X572201Y394591D01*
X574921Y404744D01*
Y415256D01*
X572201Y425409D01*
X566945Y434512D01*
X559512Y441945D01*
X550409Y447201D01*
X540256Y449921D01*
D02*
G37*
G36*
X549961Y350410D02*
X520039D01*
X510300Y348473D01*
X502044Y342956D01*
X496527Y334700D01*
X494590Y324961D01*
Y295039D01*
X496527Y285300D01*
X502044Y277044D01*
X510300Y271527D01*
X520039Y269590D01*
X549961D01*
X559700Y271527D01*
X567956Y277044D01*
X573473Y285300D01*
X575410Y295039D01*
Y324961D01*
X573473Y334700D01*
X567956Y342956D01*
X559700Y348473D01*
X549961Y350410D01*
D02*
G37*
G36*
X1888957Y198957D02*
X1801043D01*
Y111043D01*
X1888957D01*
Y198957D01*
D02*
G37*
G36*
X1750787D02*
X1739213D01*
X1728033Y195961D01*
X1718010Y190174D01*
X1709826Y181990D01*
X1704039Y171967D01*
X1701043Y160787D01*
Y149213D01*
X1704039Y138033D01*
X1709826Y128010D01*
X1718010Y119826D01*
X1728033Y114039D01*
X1739213Y111043D01*
X1750787D01*
X1761967Y114039D01*
X1771990Y119826D01*
X1780174Y128010D01*
X1785961Y138033D01*
X1788957Y149213D01*
Y160787D01*
X1785961Y171967D01*
X1780174Y181990D01*
X1771990Y190174D01*
X1761967Y195961D01*
X1750787Y198957D01*
D02*
G37*
G36*
X1213372Y270000D02*
X1196628D01*
X1180206Y266733D01*
X1164737Y260326D01*
X1150816Y251024D01*
X1138976Y239184D01*
X1129674Y225263D01*
X1123266Y209794D01*
X1120000Y193372D01*
Y176628D01*
X1123266Y160206D01*
X1129674Y144737D01*
X1138976Y130816D01*
X1150816Y118976D01*
X1164737Y109674D01*
X1180206Y103266D01*
X1196628Y100000D01*
X1213372D01*
X1229794Y103266D01*
X1245263Y109674D01*
X1259184Y118976D01*
X1271024Y130816D01*
X1280326Y144737D01*
X1286734Y160206D01*
X1290000Y176628D01*
Y193372D01*
X1286734Y209794D01*
X1280326Y225263D01*
X1271024Y239184D01*
X1259184Y251024D01*
X1245263Y260326D01*
X1229794Y266733D01*
X1213372Y270000D01*
D02*
G37*
G36*
X870625Y370000D02*
X849375D01*
X828387Y366676D01*
X808178Y360109D01*
X789245Y350462D01*
X772053Y337972D01*
X757028Y322947D01*
X744538Y305755D01*
X734891Y286822D01*
X728324Y266613D01*
X725000Y245625D01*
Y224375D01*
X728324Y203387D01*
X734891Y183178D01*
X744538Y164245D01*
X757028Y147053D01*
X772053Y132028D01*
X789245Y119538D01*
X808178Y109891D01*
X828387Y103324D01*
X849375Y100000D01*
X870625D01*
X891613Y103324D01*
X911822Y109891D01*
X930755Y119538D01*
X947947Y132028D01*
X962972Y147053D01*
X975462Y164245D01*
X985109Y183178D01*
X991676Y203387D01*
X995000Y224375D01*
Y245625D01*
X991676Y266613D01*
X985109Y286822D01*
X975462Y305755D01*
X962972Y322947D01*
X947947Y337972D01*
X930755Y350462D01*
X911822Y360109D01*
X891613Y366676D01*
X870625Y370000D01*
D02*
G37*
%LPD*%
D47*
X325000Y2241575D02*
D03*
Y2340000D02*
D03*
Y2438425D02*
D03*
Y1276575D02*
D03*
Y1473425D02*
D03*
Y1375000D02*
D03*
Y3358425D02*
D03*
Y3260000D02*
D03*
Y3161575D02*
D03*
Y596575D02*
D03*
Y695000D02*
D03*
Y793425D02*
D03*
D48*
Y2536850D02*
D03*
Y1571850D02*
D03*
Y3456850D02*
D03*
Y891850D02*
D03*
D50*
X180178Y1571850D02*
G03*
X55000Y1520000I0J-177028D01*
G01*
X192249Y891850D02*
G03*
X55000Y835000I0J-194099D01*
G01*
X216391Y2536850D02*
G03*
X55000Y2470000I0J-228242D01*
G01*
X180178Y1571850D02*
X325000D01*
X180178D02*
X180178D01*
X216391Y2536850D02*
X325000D01*
X192249Y891850D02*
X325000D01*
D55*
X535000Y3405000D02*
D03*
Y3305000D02*
D03*
Y3505000D02*
D03*
Y3605000D02*
D03*
Y3705000D02*
D03*
Y510000D02*
D03*
Y410000D02*
D03*
Y610000D02*
D03*
Y710000D02*
D03*
Y810000D02*
D03*
Y1475000D02*
D03*
Y1375000D02*
D03*
Y1575000D02*
D03*
Y1675000D02*
D03*
Y1775000D02*
D03*
Y2440000D02*
D03*
Y2340000D02*
D03*
Y2540000D02*
D03*
Y2640000D02*
D03*
Y2740000D02*
D03*
D56*
Y3205000D02*
D03*
Y310000D02*
D03*
Y1275000D02*
D03*
Y2240000D02*
D03*
D57*
X1205000Y2115000D02*
D03*
Y3080000D02*
D03*
Y1150000D02*
D03*
Y185000D02*
D03*
D58*
X860000Y235000D02*
D03*
X185000Y3745000D02*
D03*
D59*
X1771772Y620591D02*
D03*
Y569409D02*
D03*
X1720591Y620591D02*
D03*
Y569409D02*
D03*
X1618228D02*
D03*
Y620591D02*
D03*
X1669409Y569409D02*
D03*
Y620591D02*
D03*
D60*
X1545000Y3810000D02*
D03*
X1645000D02*
D03*
D61*
X1745000D02*
D03*
D62*
X1545000Y155000D02*
D03*
X1645000D02*
D03*
X1745000D02*
D03*
D63*
X1845000D02*
D03*
D64*
X1395000Y3030000D02*
D03*
Y3130000D02*
D03*
Y3230000D02*
D03*
Y3330000D02*
D03*
Y3430000D02*
D03*
Y3530000D02*
D03*
Y3630000D02*
D03*
Y3730000D02*
D03*
Y3830000D02*
D03*
X1995000D02*
D03*
Y3730000D02*
D03*
Y3630000D02*
D03*
Y3530000D02*
D03*
Y3430000D02*
D03*
Y3330000D02*
D03*
Y3230000D02*
D03*
Y3130000D02*
D03*
Y3030000D02*
D03*
X1395000Y1530000D02*
D03*
Y1630000D02*
D03*
Y1730000D02*
D03*
Y1830000D02*
D03*
Y1930000D02*
D03*
Y2030000D02*
D03*
Y2130000D02*
D03*
Y2230000D02*
D03*
Y2330000D02*
D03*
Y2430000D02*
D03*
Y2530000D02*
D03*
Y2630000D02*
D03*
Y2730000D02*
D03*
Y2830000D02*
D03*
X1995000Y2930000D02*
D03*
Y2830000D02*
D03*
Y2730000D02*
D03*
Y2630000D02*
D03*
Y2530000D02*
D03*
Y2430000D02*
D03*
Y2330000D02*
D03*
Y2230000D02*
D03*
Y2130000D02*
D03*
Y2030000D02*
D03*
Y1930000D02*
D03*
Y1830000D02*
D03*
Y1730000D02*
D03*
X1395000Y2930000D02*
D03*
X1495000Y3330000D02*
D03*
X1995000Y1630000D02*
D03*
Y1530000D02*
D03*
D65*
X55000Y2455000D02*
D03*
Y2490000D02*
D03*
Y820000D02*
D03*
Y855000D02*
D03*
Y1540000D02*
D03*
Y1505000D02*
D03*
X400000Y425000D02*
D03*
X190000Y400000D02*
D03*
X330000Y3030000D02*
D03*
X1095000Y655000D02*
D03*
X1325000Y1420000D02*
D03*
X1160000Y650000D02*
D03*
X1050000Y655000D02*
D03*
X1200000Y650000D02*
D03*
X1330000Y625000D02*
D03*
X935000Y435000D02*
D03*
Y475000D02*
D03*
Y580000D02*
D03*
Y540000D02*
D03*
X365000Y1145000D02*
D03*
X1370000Y1420000D02*
D03*
X1380000Y625000D02*
D03*
X1530000Y3530000D02*
D03*
X1660000Y3215000D02*
D03*
X200000Y135000D02*
D03*
X1955000Y1175000D02*
D03*
X365450Y2111450D02*
D03*
X1480000Y1420000D02*
D03*
X1435000D02*
D03*
X1595000Y1495000D02*
D03*
Y1535000D02*
D03*
Y1640000D02*
D03*
Y1600000D02*
D03*
X1600000Y295000D02*
D03*
Y255000D02*
D03*
Y365000D02*
D03*
Y405000D02*
D03*
X1430000Y625000D02*
D03*
M02*
