G04*
G04 #@! TF.GenerationSoftware,Altium Limited,Altium Designer,25.1.2 (22)*
G04*
G04 Layer_Color=8388736*
%FSLAX26Y26*%
%MOIN*%
G70*
G04*
G04 #@! TF.SameCoordinates,36FF1957-655E-4FCE-A78B-4FF043CE075B*
G04*
G04*
G04 #@! TF.FilePolarity,Negative*
G04*
G01*
G75*
%ADD15R,0.122047X0.102362*%
%ADD16R,0.045619X0.039848*%
%ADD17R,0.061268X0.059238*%
%ADD20R,0.059238X0.061268*%
%ADD21R,0.039848X0.045619*%
%ADD22R,0.023622X0.061024*%
%ADD23R,0.039848X0.041682*%
G04:AMPARAMS|DCode=24|XSize=85.4mil|YSize=22.919mil|CornerRadius=11.459mil|HoleSize=0mil|Usage=FLASHONLY|Rotation=90.000|XOffset=0mil|YOffset=0mil|HoleType=Round|Shape=RoundedRectangle|*
%AMROUNDEDRECTD24*
21,1,0.085400,0.000000,0,0,90.0*
21,1,0.062481,0.022919,0,0,90.0*
1,1,0.022919,0.000000,0.031241*
1,1,0.022919,0.000000,-0.031241*
1,1,0.022919,0.000000,-0.031241*
1,1,0.022919,0.000000,0.031241*
%
%ADD24ROUNDEDRECTD24*%
%ADD25R,0.022919X0.085400*%
%ADD27R,0.066929X0.041496*%
%ADD29R,0.114173X0.094488*%
%ADD31R,0.061017X0.025593*%
%ADD32R,0.101047X0.143370*%
%ADD33R,0.101047X0.045339*%
%ADD34R,0.082740X0.082740*%
%ADD35R,0.066008X0.030457*%
%ADD36R,0.104331X0.141732*%
%ADD37C,0.063779*%
G04:AMPARAMS|DCode=38|XSize=63.779mil|YSize=63.779mil|CornerRadius=16.929mil|HoleSize=0mil|Usage=FLASHONLY|Rotation=90.000|XOffset=0mil|YOffset=0mil|HoleType=Round|Shape=RoundedRectangle|*
%AMROUNDEDRECTD38*
21,1,0.063779,0.029921,0,0,90.0*
21,1,0.029921,0.063779,0,0,90.0*
1,1,0.033858,0.014961,0.014961*
1,1,0.033858,0.014961,-0.014961*
1,1,0.033858,-0.014961,-0.014961*
1,1,0.033858,-0.014961,0.014961*
%
%ADD38ROUNDEDRECTD38*%
%ADD39C,0.153937*%
%ADD40C,0.253937*%
%ADD41C,0.023622*%
%ADD42C,0.066929*%
G04:AMPARAMS|DCode=43|XSize=66.929mil|YSize=66.929mil|CornerRadius=17.716mil|HoleSize=0mil|Usage=FLASHONLY|Rotation=180.000|XOffset=0mil|YOffset=0mil|HoleType=Round|Shape=RoundedRectangle|*
%AMROUNDEDRECTD43*
21,1,0.066929,0.031496,0,0,180.0*
21,1,0.031496,0.066929,0,0,180.0*
1,1,0.035433,-0.015748,0.015748*
1,1,0.035433,0.015748,0.015748*
1,1,0.035433,0.015748,-0.015748*
1,1,0.035433,-0.015748,-0.015748*
%
%ADD43ROUNDEDRECTD43*%
%ADD44C,0.071850*%
%ADD45R,0.071850X0.071850*%
%ADD46C,0.055433*%
%ADD47C,0.055118*%
%ADD48R,0.055118X0.055118*%
G36*
X218312Y323445D02*
X218335Y323446D01*
X220088Y323404D01*
X220134Y323399D01*
X220180Y323400D01*
X221929Y323277D01*
X221975Y323269D01*
X222021Y323268D01*
X223763Y323063D01*
X223808Y323054D01*
X223855Y323050D01*
X225585Y322764D01*
X225630Y322752D01*
X225677Y322747D01*
X227392Y322379D01*
X227436Y322365D01*
X227481Y322358D01*
X229176Y321911D01*
X229220Y321894D01*
X229265Y321885D01*
X230938Y321359D01*
X230981Y321341D01*
X231026Y321329D01*
X232672Y320725D01*
X232714Y320705D01*
X232759Y320691D01*
X234375Y320010D01*
X234416Y319988D01*
X234458Y319972D01*
X236042Y319217D01*
X236082Y319193D01*
X236125Y319175D01*
X237670Y318346D01*
X237709Y318320D01*
X237751Y318300D01*
X239256Y317399D01*
X239293Y317372D01*
X239334Y317350D01*
X240795Y316380D01*
X240831Y316350D01*
X240871Y316327D01*
X242285Y315290D01*
X242320Y315259D01*
X242359Y315233D01*
X243722Y314131D01*
X243755Y314099D01*
X243792Y314071D01*
X245103Y312905D01*
X245135Y312871D01*
X245171Y312842D01*
X246425Y311617D01*
X246455Y311581D01*
X246490Y311551D01*
X247686Y310268D01*
X247714Y310231D01*
X247748Y310198D01*
X248881Y308861D01*
X248908Y308823D01*
X248940Y308789D01*
X250010Y307400D01*
X250035Y307361D01*
X250065Y307325D01*
X251069Y305887D01*
X251092Y305846D01*
X251120Y305810D01*
X252055Y304327D01*
X252076Y304285D01*
X252103Y304247D01*
X252968Y302721D01*
X252987Y302679D01*
X253011Y302640D01*
X253804Y301077D01*
X253821Y301032D01*
X253845Y300992D01*
X254563Y299392D01*
X254577Y299349D01*
X254598Y299308D01*
X255241Y297676D01*
X255254Y297631D01*
X255274Y297588D01*
X255839Y295928D01*
X255849Y295883D01*
X255866Y295840D01*
X256353Y294155D01*
X256362Y294109D01*
X256377Y294065D01*
X256784Y292359D01*
X256790Y292313D01*
X256803Y292269D01*
X257130Y290547D01*
X257134Y290501D01*
X257146Y290455D01*
X257392Y288718D01*
X257394Y288671D01*
X257402Y288626D01*
X257566Y286880D01*
X257566Y286833D01*
X257573Y286788D01*
X257655Y285036D01*
X257652Y284990D01*
X257657Y284944D01*
Y283190D01*
X257652Y283144D01*
X257655Y283098D01*
X257573Y281346D01*
X257566Y281301D01*
X257566Y281254D01*
X257402Y279508D01*
X257394Y279463D01*
X257392Y279416D01*
X257146Y277679D01*
X257135Y277633D01*
X257130Y277587D01*
X256803Y275865D01*
X256790Y275821D01*
X256784Y275775D01*
X256377Y274069D01*
X256362Y274025D01*
X256353Y273979D01*
X255866Y272294D01*
X255849Y272251D01*
X255839Y272206D01*
X255274Y270546D01*
X255254Y270503D01*
X255241Y270457D01*
X254598Y268827D01*
X254577Y268785D01*
X254563Y268742D01*
X253845Y267142D01*
X253821Y267102D01*
X253804Y267058D01*
X253011Y265493D01*
X252987Y265455D01*
X252968Y265413D01*
X252103Y263887D01*
X252076Y263849D01*
X252055Y263807D01*
X251120Y262324D01*
X251091Y262287D01*
X251069Y262247D01*
X250065Y260809D01*
X250035Y260774D01*
X250010Y260734D01*
X248940Y259345D01*
X248908Y259311D01*
X248881Y259273D01*
X247748Y257936D01*
X247714Y257903D01*
X247686Y257866D01*
X246490Y256583D01*
X246455Y256553D01*
X246425Y256517D01*
X245171Y255292D01*
X245135Y255263D01*
X245103Y255229D01*
X243792Y254063D01*
X243755Y254036D01*
X243722Y254003D01*
X242359Y252901D01*
X242319Y252875D01*
X242285Y252844D01*
X240871Y251807D01*
X240831Y251784D01*
X240795Y251754D01*
X239334Y250784D01*
X239293Y250762D01*
X239256Y250735D01*
X237751Y249834D01*
X237709Y249814D01*
X237670Y249788D01*
X236125Y248959D01*
X236081Y248941D01*
X236042Y248917D01*
X234458Y248162D01*
X234416Y248146D01*
X234375Y248124D01*
X232759Y247443D01*
X232714Y247429D01*
X232672Y247409D01*
X231026Y246805D01*
X230981Y246793D01*
X230938Y246775D01*
X229265Y246249D01*
X229220Y246240D01*
X229176Y246223D01*
X227481Y245776D01*
X227436Y245769D01*
X227392Y245755D01*
X225677Y245387D01*
X225630Y245382D01*
X225585Y245369D01*
X223855Y245083D01*
X223808Y245080D01*
X223763Y245071D01*
X222021Y244866D01*
X221975Y244865D01*
X221929Y244857D01*
X220180Y244734D01*
X220134Y244735D01*
X220088Y244730D01*
X218335Y244688D01*
X218312Y244689D01*
X218288Y244687D01*
X145288D01*
X145264Y244689D01*
X145241Y244688D01*
X143488Y244730D01*
X143442Y244735D01*
X143396Y244734D01*
X141647Y244857D01*
X141601Y244865D01*
X141555Y244866D01*
X139813Y245071D01*
X139768Y245080D01*
X139721Y245083D01*
X137991Y245369D01*
X137946Y245382D01*
X137899Y245387D01*
X136184Y245755D01*
X136140Y245769D01*
X136095Y245776D01*
X134400Y246223D01*
X134356Y246240D01*
X134311Y246249D01*
X132638Y246775D01*
X132595Y246793D01*
X132550Y246805D01*
X130904Y247409D01*
X130862Y247429D01*
X130817Y247443D01*
X129201Y248124D01*
X129160Y248146D01*
X129118Y248162D01*
X127534Y248917D01*
X127494Y248941D01*
X127451Y248959D01*
X125906Y249788D01*
X125867Y249814D01*
X125825Y249834D01*
X124320Y250735D01*
X124283Y250762D01*
X124242Y250784D01*
X122781Y251754D01*
X122745Y251784D01*
X122705Y251807D01*
X121291Y252844D01*
X121257Y252875D01*
X121217Y252901D01*
X119854Y254003D01*
X119821Y254036D01*
X119784Y254063D01*
X118472Y255229D01*
X118441Y255263D01*
X118405Y255292D01*
X117151Y256517D01*
X117121Y256553D01*
X117086Y256583D01*
X115890Y257866D01*
X115862Y257903D01*
X115829Y257936D01*
X114695Y259272D01*
X114668Y259311D01*
X114636Y259345D01*
X113566Y260734D01*
X113541Y260773D01*
X113511Y260809D01*
X112507Y262247D01*
X112484Y262288D01*
X112456Y262324D01*
X111521Y263807D01*
X111500Y263849D01*
X111473Y263887D01*
X110608Y265413D01*
X110590Y265455D01*
X110565Y265493D01*
X109772Y267058D01*
X109755Y267101D01*
X109732Y267141D01*
X109684Y267282D01*
X109631Y267419D01*
X109623Y267464D01*
X109608Y267509D01*
X109243Y269096D01*
X43994D01*
X43608Y269134D01*
X43237Y269247D01*
X42895Y269429D01*
X42595Y269675D01*
X42349Y269975D01*
X42167Y270317D01*
X42054Y270688D01*
X42016Y271074D01*
Y297058D01*
X42054Y297444D01*
X42167Y297815D01*
X42349Y298157D01*
X42595Y298457D01*
X42895Y298703D01*
X43237Y298885D01*
X43608Y298998D01*
X43994Y299036D01*
X109243D01*
X109608Y300625D01*
X109623Y300670D01*
X109631Y300715D01*
X109684Y300852D01*
X109732Y300993D01*
X109755Y301033D01*
X109772Y301077D01*
X110565Y302640D01*
X110590Y302679D01*
X110608Y302721D01*
X111473Y304247D01*
X111500Y304286D01*
X111521Y304327D01*
X112456Y305810D01*
X112484Y305847D01*
X112507Y305887D01*
X113511Y307325D01*
X113541Y307360D01*
X113566Y307400D01*
X114636Y308789D01*
X114668Y308823D01*
X114695Y308861D01*
X115829Y310198D01*
X115862Y310231D01*
X115890Y310268D01*
X117086Y311551D01*
X117121Y311581D01*
X117151Y311617D01*
X118405Y312842D01*
X118441Y312871D01*
X118472Y312905D01*
X119784Y314071D01*
X119821Y314098D01*
X119854Y314131D01*
X121217Y315233D01*
X121257Y315259D01*
X121291Y315290D01*
X122705Y316327D01*
X122745Y316351D01*
X122781Y316380D01*
X124242Y317350D01*
X124283Y317372D01*
X124320Y317399D01*
X125825Y318300D01*
X125867Y318320D01*
X125906Y318346D01*
X127451Y319175D01*
X127495Y319193D01*
X127534Y319217D01*
X129118Y319972D01*
X129160Y319988D01*
X129201Y320010D01*
X130817Y320691D01*
X130862Y320705D01*
X130904Y320725D01*
X132550Y321329D01*
X132595Y321341D01*
X132638Y321359D01*
X134311Y321885D01*
X134356Y321894D01*
X134400Y321911D01*
X136095Y322358D01*
X136140Y322365D01*
X136184Y322379D01*
X137899Y322747D01*
X137946Y322752D01*
X137991Y322764D01*
X139721Y323050D01*
X139768Y323054D01*
X139813Y323063D01*
X141555Y323268D01*
X141601Y323269D01*
X141647Y323277D01*
X143396Y323400D01*
X143442Y323399D01*
X143488Y323404D01*
X145241Y323446D01*
X145264Y323445D01*
X145288Y323447D01*
X218288D01*
X218312Y323445D01*
D02*
G37*
D15*
X1694996Y595000D02*
D03*
D16*
X142548Y130000D02*
D03*
X77453D02*
D03*
X807452Y560000D02*
D03*
X872548D02*
D03*
X1721071Y1516254D02*
D03*
X1655976D02*
D03*
X142548Y430000D02*
D03*
X77453D02*
D03*
X1957547Y700000D02*
D03*
X1892453D02*
D03*
X1662453Y3280000D02*
D03*
X1727547D02*
D03*
X1662453Y3370000D02*
D03*
X1727547D02*
D03*
D17*
X1180000Y780464D02*
D03*
Y709536D02*
D03*
X1348524Y1290790D02*
D03*
Y1361717D02*
D03*
D20*
X804536Y455000D02*
D03*
X875464D02*
D03*
X1659536Y385000D02*
D03*
X1730464D02*
D03*
X1659536Y275000D02*
D03*
X1730464D02*
D03*
X1723987Y1621254D02*
D03*
X1653060D02*
D03*
D21*
X1070000Y777548D02*
D03*
Y712452D02*
D03*
X1458524Y1293706D02*
D03*
Y1358801D02*
D03*
D22*
X1770000Y701299D02*
D03*
X1720000D02*
D03*
X1670000D02*
D03*
X1620000D02*
D03*
Y488701D02*
D03*
X1670000D02*
D03*
X1720000D02*
D03*
X1770000D02*
D03*
D23*
X1530000Y3595484D02*
D03*
Y3664516D02*
D03*
Y570484D02*
D03*
Y639516D02*
D03*
Y730484D02*
D03*
Y799516D02*
D03*
D24*
X1620000Y3661215D02*
D03*
X1670000D02*
D03*
X1720000D02*
D03*
X1770000D02*
D03*
Y3475104D02*
D03*
X1720000D02*
D03*
X1670000D02*
D03*
D25*
X1620000D02*
D03*
D27*
X1955000Y1223071D02*
D03*
Y1366929D02*
D03*
D29*
X1380000Y945079D02*
D03*
Y704921D02*
D03*
D31*
X271861Y3029999D02*
D03*
X307312Y2111448D02*
D03*
X306861Y1144998D02*
D03*
X381861Y464998D02*
D03*
D32*
X728524Y746254D02*
D03*
X1800000Y1330000D02*
D03*
D33*
X953524Y836804D02*
D03*
Y746254D02*
D03*
Y655702D02*
D03*
X1575000Y1239449D02*
D03*
Y1330000D02*
D03*
Y1420551D02*
D03*
D34*
X1873882Y592640D02*
D03*
Y419406D02*
D03*
D35*
X75000Y343110D02*
D03*
Y225000D02*
D03*
D36*
X1746968Y945000D02*
D03*
X1993032D02*
D03*
D37*
X535000Y3405000D02*
D03*
Y3305000D02*
D03*
Y3505000D02*
D03*
Y3605000D02*
D03*
Y3705000D02*
D03*
Y510000D02*
D03*
Y410000D02*
D03*
Y610000D02*
D03*
Y710000D02*
D03*
Y810000D02*
D03*
Y1475000D02*
D03*
Y1375000D02*
D03*
Y1575000D02*
D03*
Y1675000D02*
D03*
Y1775000D02*
D03*
Y2440000D02*
D03*
Y2340000D02*
D03*
Y2540000D02*
D03*
Y2640000D02*
D03*
Y2740000D02*
D03*
D38*
Y3205000D02*
D03*
Y310000D02*
D03*
Y1275000D02*
D03*
Y2240000D02*
D03*
D39*
X1205000Y2115000D02*
D03*
Y3080000D02*
D03*
Y1150000D02*
D03*
Y185000D02*
D03*
D40*
X860000Y235000D02*
D03*
X185000Y3745000D02*
D03*
D41*
X1771772Y620591D02*
D03*
Y569409D02*
D03*
X1720591Y620591D02*
D03*
Y569409D02*
D03*
X1618228D02*
D03*
Y620591D02*
D03*
X1669409Y569409D02*
D03*
Y620591D02*
D03*
D42*
X1545000Y3810000D02*
D03*
X1645000D02*
D03*
D43*
X1745000D02*
D03*
D44*
X1545000Y155000D02*
D03*
X1645000D02*
D03*
X1745000D02*
D03*
D45*
X1845000D02*
D03*
D46*
X1395000Y3030000D02*
D03*
Y3130000D02*
D03*
Y3230000D02*
D03*
Y3330000D02*
D03*
Y3430000D02*
D03*
Y3530000D02*
D03*
Y3630000D02*
D03*
Y3730000D02*
D03*
Y3830000D02*
D03*
X1995000D02*
D03*
Y3730000D02*
D03*
Y3630000D02*
D03*
Y3530000D02*
D03*
Y3430000D02*
D03*
Y3330000D02*
D03*
Y3230000D02*
D03*
Y3130000D02*
D03*
Y3030000D02*
D03*
X1395000Y1530000D02*
D03*
Y1630000D02*
D03*
Y1730000D02*
D03*
Y1830000D02*
D03*
Y1930000D02*
D03*
Y2030000D02*
D03*
Y2130000D02*
D03*
Y2230000D02*
D03*
Y2330000D02*
D03*
Y2430000D02*
D03*
Y2530000D02*
D03*
Y2630000D02*
D03*
Y2730000D02*
D03*
Y2830000D02*
D03*
X1995000Y2930000D02*
D03*
Y2830000D02*
D03*
Y2730000D02*
D03*
Y2630000D02*
D03*
Y2530000D02*
D03*
Y2430000D02*
D03*
Y2330000D02*
D03*
Y2230000D02*
D03*
Y2130000D02*
D03*
Y2030000D02*
D03*
Y1930000D02*
D03*
Y1830000D02*
D03*
Y1730000D02*
D03*
X1395000Y2930000D02*
D03*
X1495000Y3330000D02*
D03*
X1995000Y1630000D02*
D03*
Y1530000D02*
D03*
D47*
X325000Y2241575D02*
D03*
Y2340000D02*
D03*
Y2438425D02*
D03*
Y1276575D02*
D03*
Y1473425D02*
D03*
Y1375000D02*
D03*
Y3358425D02*
D03*
Y3260000D02*
D03*
Y3161575D02*
D03*
Y596575D02*
D03*
Y695000D02*
D03*
Y793425D02*
D03*
D48*
Y2536850D02*
D03*
Y1571850D02*
D03*
Y3456850D02*
D03*
Y891850D02*
D03*
M02*
