M48
;Layer_Color=9474304
;FILE_FORMAT=2:4
INCH,LZ
;TYPE=PLATED
T01F00S00C0.0079
T02F00S00C0.0120
T03F00S00C0.0315
T04F00S00C0.0354
T05F00S00C0.0402
T06F00S00C0.0433
T07F00S00C0.0453
T08F00S00C0.0840
T09F00S00C0.1250
%
T01
X016182Y005694
Y006206
X016694
X017206
X017718
Y005694
X017206
X016694
T02
X002Y00135
X0019Y004
X004Y00425
X00935Y00435
Y00475
Y0054
Y0058
X0105Y00655
X01095
X0116Y0065
X012
X0133Y00625
X0138
X0143
X01435Y0142
X0148
X0137
X01325
X00365Y01145
X00055Y00855
Y0082
Y01505
Y0154
X01595Y01535
Y01495
X01955Y01175
X016Y00405
Y00365
Y00295
Y00255
X01595Y016
Y0164
X003654Y021114
X00055Y02455
Y0249
X0033Y0303
X0153Y0353
X0166Y03215
T03
X01395Y0153
X01995
Y0163
Y0173
Y0183
Y0193
Y0203
Y0213
Y0223
Y0233
Y0243
Y0253
Y0263
Y0273
Y0283
Y0293
Y0303
X01395
Y0293
Y0283
Y0273
Y0263
Y0253
Y0243
Y0233
Y0223
Y0213
Y0203
Y0193
Y0183
Y0173
Y0163
Y0313
Y0323
Y0333
Y0343
Y0353
Y0363
Y0373
Y0383
X01495Y0333
X01995
Y0343
Y0353
Y0363
Y0373
Y0383
Y0323
Y0313
T04
X00325Y005966
Y00695
Y007934
Y008918
Y012766
Y01375
Y014734
Y015718
Y022416
Y0234
Y024384
Y025368
Y031616
Y0326
Y033584
Y034569
T05
X00535Y0031
Y0041
Y0051
Y0061
Y0071
Y0081
Y01275
Y01375
Y01475
Y01575
Y01675
Y01775
Y0224
Y0234
Y0244
Y0254
Y0264
Y0274
Y03205
Y03305
Y03405
Y03505
Y03605
Y03705
T06
X01545Y0381
X01645
X01745
T07
X01545Y00155
X01645
X01745
X01845
T08
X01205Y00185
Y0115
Y02115
Y0308
T09
X0086Y00235
X00185Y03745
M30
